<svg width="155" height="145" viewBox="0 0 155 145" fill="none" xmlns="http://www.w3.org/2000/svg">
<g filter="url(#filter0_d_2670_1378)">
<path d="M66.7992 25.7037C67.759 25.4622 68.7753 25.6119 69.6247 26.1197C70.4741 26.6276 71.087 27.4521 71.3285 28.4119L74.3636 40.4744C74.6051 41.4341 74.4554 42.4505 73.9475 43.2999C73.4396 44.1493 72.6151 44.7622 71.6554 45.0037C70.6956 45.2452 69.6792 45.0955 68.8298 44.5876C67.9804 44.0797 67.3676 43.2552 67.1261 42.2955L64.091 30.233C63.8495 29.2732 63.9992 28.2568 64.5071 27.4074C65.0149 26.558 65.8395 25.9452 66.7992 25.7037ZM46.1274 41.012C46.6354 40.1636 47.4594 39.5516 48.4183 39.3103C49.3773 39.069 50.3928 39.2182 51.2419 39.7251L61.8102 46.0443C62.2491 46.2862 62.6348 46.6139 62.9442 47.0081C63.2537 47.4022 63.4806 47.8546 63.6115 48.3383C63.7423 48.8221 63.7744 49.3272 63.7057 49.8236C63.6371 50.32 63.4692 50.7975 63.212 51.2276C62.9549 51.6577 62.6137 52.0316 62.2089 52.3269C61.8041 52.6223 61.3439 52.8331 60.8559 52.9468C60.3679 53.0605 59.8619 53.0747 59.3682 52.9886C58.8746 52.9025 58.4033 52.7179 57.9826 52.4457L47.4143 46.1265C46.5659 45.6185 45.9538 44.7945 45.7125 43.8356C45.4712 42.8766 45.6204 41.8611 46.1274 41.012ZM92.2543 29.4058C93.1027 29.9138 93.7148 30.7378 93.9561 31.6968C94.1974 32.6558 94.0482 33.6713 93.5412 34.5203L87.2221 45.0886C86.9802 45.5275 86.6525 45.9132 86.2583 46.2227C85.8642 46.5322 85.4118 46.7591 84.928 46.8899C84.4443 47.0208 83.9392 47.0528 83.4428 46.9842C82.9464 46.9156 82.4689 46.7477 82.0388 46.4905C81.6087 46.2333 81.2348 45.8922 80.9394 45.4874C80.6441 45.0826 80.4332 44.6224 80.3196 44.1344C80.2059 43.6463 80.1917 43.1404 80.2778 42.6467C80.3638 42.153 80.5485 41.6818 80.8207 41.261L87.1399 30.6927C87.6479 29.8443 88.4718 29.2322 89.4308 28.9909C90.3898 28.7497 91.4053 28.8989 92.2543 29.4058ZM42.4252 66.4672C42.1837 65.5074 42.3334 64.491 42.8413 63.6416C43.3492 62.7922 44.1737 62.1794 45.1334 61.9379L57.1959 58.9028C58.1557 58.6613 59.1721 58.811 60.0215 59.3189C60.8709 59.8268 61.4837 60.6513 61.7252 61.611C61.9667 62.5708 61.817 63.5871 61.3092 64.4365C60.8013 65.286 59.9768 65.8988 59.017 66.1403L46.9545 69.1754C45.9948 69.4169 44.9784 69.2672 44.129 68.7593C43.2796 68.2514 42.6667 67.4269 42.4252 66.4672ZM72.27 62.739C70.9017 57.3012 76.5422 52.7626 81.5587 55.2662L131.187 79.9851C136.525 82.6438 135.836 90.4668 130.12 92.1564L111.777 97.5565C109.804 98.1351 108.155 99.494 107.196 101.31L98.1313 118.582C95.3338 123.919 87.426 122.974 85.9558 117.131L72.27 62.739Z" fill="#F6D251"/>
<path d="M86.3547 44.5906L86.3638 44.5754L92.6826 34.0077L86.3547 44.5906ZM86.3547 44.5906L86.3462 44.606M86.3547 44.5906L86.3462 44.606M86.3462 44.606C86.1692 44.9273 85.9293 45.2096 85.6407 45.4362C85.3522 45.6627 85.0211 45.8288 84.6669 45.9246C84.3128 46.0204 83.9431 46.0438 83.5797 45.9936C83.2164 45.9434 82.8668 45.8205 82.552 45.6322C82.2372 45.444 81.9635 45.1942 81.7473 44.8979C81.531 44.6016 81.3767 44.2647 81.2935 43.9075C81.2103 43.5502 81.1999 43.1799 81.2629 42.8185C81.3259 42.4571 81.4611 42.1122 81.6603 41.8042L81.6699 41.7894M86.3462 44.606L81.6699 41.7894M81.6699 41.7894L81.6789 41.7742M81.6699 41.7894L81.6789 41.7742M81.6789 41.7742L87.9978 31.2064L81.6789 41.7742ZM91.7408 30.2639C91.1195 29.8932 90.3765 29.7842 89.6748 29.9607C88.973 30.1373 88.37 30.5851 87.9981 31.2059L91.7408 30.2639ZM91.7408 30.2639C92.3618 30.6358 92.8097 31.2389 92.9863 31.9408C93.1629 32.6426 93.0538 33.3857 92.683 34.0071L91.7408 30.2639ZM61.297 46.9026L61.3121 46.9117L61.3276 46.9202C61.6489 47.0972 61.9312 47.3371 62.1577 47.6256C62.3843 47.9141 62.5504 48.2453 62.6462 48.5994C62.7419 48.9535 62.7654 49.3233 62.7152 49.6867C62.6649 50.05 62.542 50.3995 62.3538 50.7144C62.1655 51.0292 61.9158 51.3029 61.6195 51.5191C61.3231 51.7353 60.9863 51.8897 60.629 51.9729C60.2718 52.0561 59.9014 52.0665 59.5401 52.0035C59.1787 51.9405 58.8337 51.8053 58.5257 51.6061L58.5109 51.5965L58.4958 51.5874L47.928 45.2686C47.3069 44.8967 46.8589 44.2935 46.6823 43.5916C46.5057 42.8898 46.6148 42.1466 46.9856 41.5252C47.3575 40.9045 47.9606 40.4566 48.6623 40.28C49.3643 40.1034 50.1077 40.2126 50.7292 40.5837L61.297 46.9026ZM81.1122 56.1609L81.1129 56.1613L130.741 80.8802C135.265 83.1333 134.682 89.764 129.837 91.1971L129.836 91.1974L111.496 96.5969C109.261 97.2524 107.396 98.7908 106.312 100.843L106.311 100.846L97.2459 118.118L97.2456 118.118C94.8755 122.64 88.1723 121.842 86.9256 116.887L73.2397 62.495C72.0798 57.8851 76.8614 54.0395 81.1122 56.1609ZM67.0432 26.6735C67.7458 26.4967 68.4898 26.6062 69.1115 26.978L69.6234 26.122L69.1115 26.978C69.7333 27.3498 70.1819 27.9534 70.3587 28.6559L73.3938 40.7184C73.5706 41.421 73.461 42.165 73.0892 42.7867C72.7175 43.4085 72.1139 43.8571 71.4113 44.0339C70.7088 44.2107 69.9648 44.1011 69.343 43.7293C68.7212 43.3575 68.2726 42.754 68.0959 42.0514L65.0608 29.9889C64.884 29.2864 64.9935 28.5424 65.3653 27.9206C65.7371 27.2988 66.3407 26.8502 67.0432 26.6735ZM43.395 66.2232C43.2182 65.5206 43.3278 64.7766 43.6996 64.1548C44.0713 63.5331 44.6749 63.0844 45.3775 62.9077L57.44 59.8726C58.1425 59.6958 58.8865 59.8054 59.5083 60.1771C60.1301 60.5489 60.5787 61.1525 60.7554 61.855C60.9322 62.5576 60.8227 63.3016 60.4509 63.9234C60.0791 64.5451 59.4755 64.9938 58.773 65.1705L46.7105 68.2056C46.0079 68.3824 45.2639 68.2728 44.6422 67.9011C44.0204 67.5293 43.5718 66.9257 43.395 66.2232Z" stroke="#404040" stroke-width="2"/>
</g>
<defs>
<filter id="filter0_d_2670_1378" x="40.7125" y="22.9937" width="113.712" height="117.7" filterUnits="userSpaceOnUse" color-interpolation-filters="sRGB">
<feFlood flood-opacity="0" result="BackgroundImageFix"/>
<feColorMatrix in="SourceAlpha" type="matrix" values="0 0 0 0 0 0 0 0 0 0 0 0 0 0 0 0 0 0 127 0" result="hardAlpha"/>
<feOffset dx="9" dy="8"/>
<feGaussianBlur stdDeviation="5.3"/>
<feComposite in2="hardAlpha" operator="out"/>
<feColorMatrix type="matrix" values="0 0 0 0 0 0 0 0 0 0 0 0 0 0 0 0 0 0 0.25 0"/>
<feBlend mode="normal" in2="BackgroundImageFix" result="effect1_dropShadow_2670_1378"/>
<feBlend mode="normal" in="SourceGraphic" in2="effect1_dropShadow_2670_1378" result="shape"/>
</filter>
</defs>
</svg>
