<svg width="174" height="161" viewBox="0 0 174 161" fill="none" xmlns="http://www.w3.org/2000/svg">
<path d="M151.683 51.6131L17.2305 160.864H0V141.707H19.0604V126.218H38.1251V110.732H57.1855V95.2427H76.246V79.7531H95.3106V64.2635H114.371V48.7739L133.431 33.2885V33.2843L134.452 32.4569L151.683 51.6131Z" fill="#FFC727"/>
<path opacity="0.1" d="M151.683 51.6131L17.2305 160.864H0V141.707H19.0604V126.218H38.1251V110.732H57.1855V95.2427H76.246V79.7531H95.3106V64.2635H114.371V48.7739L133.431 33.2885V33.2843L134.452 32.4569L151.683 51.6131Z" fill="black"/>
<path d="M147.083 71.265L136.848 47.0919L112.527 34.1206L173.15 17.594L147.083 71.265Z" fill="#FFC727"/>
<g opacity="0.1">
<path d="M147.083 71.265L136.848 47.0919L112.527 34.1206L173.15 17.594L147.083 71.265Z" fill="black"/>
</g>
<g opacity="0.1">
<path d="M25.6068 126.218H19.0586V141.705H25.6068V126.218Z" fill="black"/>
<path d="M44.6693 110.731H38.1211V126.218H44.6693V110.731Z" fill="black"/>
<path d="M63.7357 95.244H57.1875V110.731H63.7357V95.244Z" fill="black"/>
<path d="M82.806 79.7574H76.2578V95.2441H82.806V79.7574Z" fill="black"/>
<path d="M101.869 64.2708H95.3203V79.7574H101.869V64.2708Z" fill="black"/>
<path d="M120.931 64.2708H114.383V48.7841L120.931 43.4442V64.2708Z" fill="black"/>
<path d="M6.54822 141.704H0V160.864H6.54822V141.704Z" fill="black"/>
</g>
<path d="M35.0988 15.1291C26.4141 16.4689 17.8322 19.1838 16.7423 21.6425C15.2761 24.9495 15.728 33.4852 16.3727 37.8944C16.5621 39.1896 26.6144 37.5126 26.4137 36.1274C26.1709 34.4533 24.7769 25.8131 24.8038 25.6455C24.8618 25.2864 33.3516 19.797 35.4117 18.5349C38.852 16.4265 38.9536 14.5344 35.0988 15.1291Z" fill="#D3766A"/>
<path d="M17.6783 44.4609C16.6657 42.5331 16.1361 37.7813 16.449 36.5855C16.7623 35.3898 24.8116 34.2213 25.7238 35.1025C26.6361 35.9837 29.5433 42.7377 29.1208 44.9187C28.6979 47.1002 18.7275 46.458 17.6783 44.4609Z" fill="#D3766A"/>
<path d="M29.0943 41.433C28.1065 40.837 27.9696 42.3419 27.9696 42.3419C27.9696 42.3419 27.6449 40.1276 26.3891 39.9067C25.1782 39.6971 25.0762 41.5212 25.0674 41.6518C25.0493 41.5346 24.6978 39.5077 23.413 39.4157C22.0774 39.3212 22.2899 41.1701 22.3038 41.2894C22.2521 41.1844 21.5427 39.8068 20.5507 39.9588C18.8459 40.2209 20.562 43.7938 20.0446 45.0908C20.0446 45.0908 17.7463 44.4646 17.6758 44.4608C17.6758 44.4608 19.239 47.8934 21.0274 48.4936C21.9703 48.8099 22.4512 47.9938 22.4512 47.9938C22.4512 47.9938 22.833 49.1564 23.8422 49.2605C24.3605 49.3126 24.9052 48.5302 24.9052 48.5302C24.9052 48.5302 25.2496 49.4483 26.1535 49.4848C26.8746 49.5163 27.3085 48.7267 27.3085 48.7267C27.3085 48.7267 28.0485 49.4546 28.7953 49.2475C30.3031 48.8338 31.2082 42.7115 29.0943 41.433Z" fill="#D3766A"/>
<path d="M27.3951 48.6122C27.3904 48.6323 27.4177 48.6428 27.4257 48.6231C28.2145 46.6823 28.4866 44.3084 27.9843 42.2618C27.9679 42.1946 27.8516 42.1925 27.8558 42.2697C27.97 44.4781 27.8957 46.4475 27.3951 48.6122Z" fill="#263238"/>
<path d="M24.9185 48.5627C24.913 48.5863 24.9517 48.5955 24.9613 48.5716C25.7635 46.5673 25.9962 43.8848 25.1394 41.5941C25.11 41.5156 25.005 41.4744 25.0319 41.5676C25.4859 43.1338 25.3788 46.616 24.9185 48.5627Z" fill="#263238"/>
<path d="M22.1898 41.1505C22.9265 43.379 22.8748 45.6193 22.4909 47.9129C22.4859 47.9427 22.5287 47.9465 22.5396 47.923C23.0331 46.8524 23.1255 45.3647 23.0995 44.2013C23.0743 43.0871 22.8282 42.0866 22.2679 41.1248C22.2461 41.0875 22.1738 41.103 22.1898 41.1505Z" fill="#263238"/>
<path d="M27.9695 42.3419C27.8654 41.9224 27.7297 41.5108 27.5525 41.1214C27.3735 40.7388 27.1425 40.3574 26.8116 40.1357C26.6478 40.0273 26.4579 39.9748 26.2706 40.0025C26.0804 40.0328 25.8893 40.1042 25.7423 40.2226C25.4411 40.4549 25.3004 40.8728 25.2845 41.2483L25.2441 42.1933L24.9531 41.2915C24.8262 40.898 24.6368 40.5002 24.3899 40.1714C24.1446 39.8425 23.8124 39.5804 23.4415 39.554C23.0543 39.5191 22.7174 39.7018 22.5855 40.0613C22.4402 40.4112 22.4327 40.8585 22.4877 41.2558L22.6418 42.3659L22.1353 41.3717C21.998 41.1025 21.8174 40.8316 21.6132 40.6044C21.4079 40.3789 21.1626 40.1844 20.8959 40.1218C20.6346 40.0592 20.3356 40.1399 20.1785 40.3432C20.0101 40.5548 19.9538 40.8782 19.9307 41.189C19.8912 41.8245 19.9878 42.4768 20.0513 43.1282C20.0857 43.4545 20.1206 43.7821 20.1395 44.1114C20.1525 44.4373 20.1697 44.7817 20.0445 45.0904C20.1365 44.7729 20.0828 44.4415 20.0487 44.1198C20.0051 43.7964 19.9458 43.4747 19.8866 43.1517C19.7682 42.5062 19.6565 41.8552 19.6602 41.1769C19.6741 40.8417 19.7006 40.4784 19.9253 40.1533C20.1596 39.8194 20.5998 39.6997 20.9711 39.7858C21.3499 39.8719 21.6401 40.1109 21.8774 40.3604C22.1147 40.6183 22.3062 40.8942 22.4717 41.2063L22.1193 41.3222C22.0505 40.853 22.0408 40.3847 22.2206 39.9097C22.3105 39.6766 22.4852 39.4494 22.7237 39.3192C22.9627 39.1873 23.2231 39.1525 23.4764 39.1751C24.0026 39.2255 24.4096 39.5851 24.6776 39.9563C24.9527 40.339 25.1408 40.7518 25.2778 41.1979L24.9468 41.2411C24.9833 40.764 25.1774 40.294 25.5802 40.003C25.7797 39.8614 26.0111 39.7896 26.2475 39.7648C26.4915 39.7396 26.7419 39.8245 26.93 39.9639C27.3089 40.2524 27.5004 40.6729 27.6579 41.0761C27.8112 41.4877 27.9124 41.9127 27.9695 42.3419Z" fill="#263238"/>
<path d="M26.4214 36.1659C26.4214 36.1659 33.5904 41.9921 29.9401 43.6784C28.8553 44.1795 23.8027 44.9426 23.6301 43.9309C23.407 42.6242 25.4562 41.9123 26.8141 41.6696C26.8141 41.6696 24.0967 40.0312 24.6733 37.7989C25.035 36.3986 26.4214 36.1659 26.4214 36.1659Z" fill="#D3766A"/>
<path d="M30.2344 43.5188C29.8434 43.7822 29.3889 43.9346 28.94 44.0728C28.488 44.2097 28.0248 44.3034 27.5598 44.3782C26.6253 44.5163 25.6976 44.6251 24.7353 44.5999C24.4938 44.5898 24.249 44.5697 23.9928 44.4857C23.8664 44.4437 23.7307 44.3773 23.6202 44.2723C23.5644 44.2211 23.5211 44.1703 23.4732 44.0863C23.4359 44.0111 23.4098 43.9372 23.3993 43.8637C23.3447 43.5684 23.4321 43.2874 23.5648 43.0564C23.7063 42.8288 23.8911 42.6465 24.0885 42.4907C24.488 42.1832 24.9399 41.9896 25.3952 41.8414C25.8509 41.6876 26.3171 41.5923 26.7837 41.5079L26.7316 41.8103C26.4187 41.6083 26.1457 41.3831 25.8845 41.1341C25.6249 40.8859 25.3884 40.6133 25.1847 40.3172C24.9831 40.0198 24.8231 39.6931 24.7177 39.3516C24.6093 39.0106 24.569 38.6506 24.5967 38.2999C24.6169 38.651 24.6933 38.9942 24.8252 39.313C24.9554 39.633 25.1427 39.9245 25.3523 40.1954C25.5627 40.4663 25.803 40.7137 26.0642 40.9363C26.3234 41.1576 26.6081 41.3638 26.8954 41.5268L27.2608 41.7338L26.8437 41.8292C26.3943 41.9317 25.9433 42.032 25.517 42.1921C25.0915 42.3462 24.669 42.5272 24.3296 42.7981C23.9974 43.0577 23.7194 43.4378 23.7845 43.7931C23.8143 44.1102 24.3195 44.2026 24.7563 44.2286C25.2087 44.2589 25.6736 44.2417 26.1373 44.2244C26.6022 44.206 27.0663 44.1816 27.5279 44.1333C28.4444 44.0216 29.3831 43.9128 30.2344 43.5188Z" fill="#263238"/>
<path d="M26.7541 35.8003L15.4502 35.6352C15.4502 35.6352 14.6123 23.6489 17.0702 20.9819C18.7149 19.1969 27.5063 15.873 33.5728 15.0914C39.6393 14.3097 39.5775 16.2472 34.3086 19.5446C29.0397 22.842 25.1648 25.5775 25.1657 25.7476C25.1669 25.9173 26.7541 35.8003 26.7541 35.8003Z" fill="#FFC727"/>
<path d="M25.244 24.3469C25.1331 24.0768 25.1075 23.8072 25.1016 23.5376C25.1067 23.2679 25.1323 22.9979 25.244 22.7282C25.3557 22.9979 25.3813 23.2679 25.3864 23.5376C25.3805 23.8072 25.3549 24.0768 25.244 24.3469ZM15.7848 28.5393C15.7797 28.2697 15.7541 27.9996 15.6424 27.73C15.5307 27.9996 15.505 28.2697 15.5 28.5393C15.5059 28.8094 15.5315 29.079 15.6424 29.3487C15.7533 29.079 15.7789 28.809 15.7848 28.5393ZM29.8035 22.1503C29.9085 22.1923 30.0093 22.2217 30.1143 22.2427C30.2277 22.1671 30.3453 22.0915 30.4629 22.0117C30.2403 22.0243 30.0219 22.0621 29.8035 22.1503ZM24.2419 29.5457C24.5115 29.5406 24.7816 29.515 25.0512 29.4033C24.7816 29.2916 24.5115 29.2659 24.2419 29.2609C23.9722 29.2668 23.7022 29.2924 23.4325 29.4033C23.7022 29.5142 23.9718 29.5398 24.2419 29.5457ZM17.4291 22.2923C17.6987 22.2872 17.9688 22.2616 18.2384 22.1499C17.9688 22.0382 17.6987 22.0125 17.4291 22.0075C17.1594 22.0134 16.8894 22.039 16.6197 22.1499C16.8894 22.2608 17.1594 22.2868 17.4291 22.2923ZM18.6924 32.5491C18.498 32.3618 18.2892 32.1891 18.0196 32.0774C18.1313 32.3471 18.3043 32.5562 18.4912 32.7503C18.6861 32.9372 18.8953 33.1098 19.1641 33.2219C19.0515 32.9531 18.8789 32.744 18.6924 32.5491ZM22.2805 19.7038C22.086 19.5165 21.8773 19.3439 21.6076 19.2321C21.7194 19.5018 21.8924 19.7109 22.0793 19.905C22.2742 20.0919 22.4833 20.2645 22.7526 20.3766C22.6396 20.1078 22.467 19.8987 22.2805 19.7038ZM35.0913 18.2653C35.1795 18.4753 35.3013 18.6475 35.4399 18.8071C35.5197 18.7525 35.5953 18.7021 35.6667 18.6475C35.4987 18.4963 35.3181 18.3619 35.0913 18.2653ZM22.6509 35.1871C22.4955 35.3467 22.3485 35.5231 22.2393 35.7331L22.4199 35.7373C22.5795 35.6365 22.7223 35.5147 22.8525 35.3887C23.0415 35.1913 23.2137 34.9855 23.3229 34.7167C23.0541 34.8259 22.8483 35.0023 22.6509 35.1871ZM28.399 18.4136C28.2117 18.608 28.0391 18.8168 27.9274 19.0864C28.197 18.9747 28.4062 18.8016 28.6002 18.6147C28.7871 18.4199 28.9597 18.2107 29.0719 17.9419C28.8027 18.0545 28.5939 18.2271 28.399 18.4136ZM19.9957 26.2789C19.8084 26.4734 19.6357 26.6821 19.524 26.9517C19.7937 26.8396 20.0024 26.667 20.1969 26.4801C20.3838 26.2852 20.5564 26.076 20.6685 25.8072C20.3997 25.9194 20.1906 26.092 19.9957 26.2789Z" fill="white"/>
<path d="M25.669 33.7146C25.7039 33.7141 25.7043 33.6591 25.6694 33.6558C22.5325 33.342 19.3652 33.2425 16.2178 33.258C16.1829 33.258 16.1825 33.3139 16.2173 33.3168C19.3556 33.5974 22.5211 33.7633 25.669 33.7146Z" fill="#263238"/>
<path opacity="0.1" d="M34.3098 19.5463C29.0388 22.8433 25.1664 25.5775 25.1664 25.7455C25.1664 25.9177 26.754 35.8003 26.754 35.8003L15.4518 35.6365C15.4518 35.6365 15.3006 33.4903 15.3132 30.8149L36.855 14.9767C39.3204 15.3001 38.3334 17.0263 34.3098 19.5463Z" fill="black"/>
<path d="M62.4185 110.852C61.6474 111.105 39.6326 110.932 38.7994 110.393C38.4789 110.194 40.846 90.6351 40.846 90.6351L55.0118 90.7712L52.4284 103.173C52.4284 103.173 60.8254 107.008 61.6801 107.698C62.5273 108.385 63.1896 110.602 62.4185 110.852Z" fill="#D3766A"/>
<path d="M62.4199 110.85C61.6471 111.106 39.6349 110.934 38.7991 110.392C38.6437 110.296 39.1267 105.592 39.6601 100.799H52.9237L52.4281 103.172C52.4281 103.172 60.8239 107.007 61.6807 107.696C62.5291 108.385 63.1885 110.602 62.4199 110.85Z" fill="#EBEBEB"/>
<path d="M62.7484 110.944C61.9651 111.208 39.5367 111.197 38.6837 110.654C38.3557 110.453 39.2805 103.036 39.2797 102.995L52.5193 102.95L52.5134 103.196C52.5134 103.196 61.0966 107.04 61.9723 107.736C62.8408 108.43 63.5321 110.683 62.7484 110.944Z" fill="#FFC727"/>
<path d="M62.4973 110.074C58.7165 109.979 43.4591 109.955 39.7144 110.148C39.6837 110.15 39.6837 110.17 39.7144 110.172C43.4595 110.348 58.7169 110.249 62.4973 110.136C62.5771 110.134 62.5771 110.076 62.4973 110.074Z" fill="#263238"/>
<path d="M54.1323 102.992C52.6447 102.714 50.8248 102.941 49.6874 104.001C49.6433 104.042 49.7021 104.104 49.7504 104.089C51.2183 103.627 52.5892 103.33 54.126 103.18C54.2344 103.17 54.239 103.012 54.1323 102.992Z" fill="#263238"/>
<path d="M55.2025 103.64C53.7149 103.362 51.895 103.589 50.7577 104.648C50.7136 104.69 50.7728 104.752 50.8207 104.736C52.2886 104.274 53.6595 103.978 55.1962 103.828C55.305 103.818 55.3092 103.66 55.2025 103.64Z" fill="#263238"/>
<path d="M56.2807 104.288C54.7931 104.009 52.9732 104.237 51.8359 105.296C51.7918 105.337 51.8506 105.399 51.8989 105.384C53.3668 104.922 54.7376 104.625 56.2744 104.475C56.3832 104.465 56.3874 104.308 56.2807 104.288Z" fill="#263238"/>
<path d="M53.6682 102.829L38.817 102.747C38.817 102.747 43.1888 71.9824 42.8091 70.7165C42.6609 70.2217 26.5749 54.6065 26.5749 54.6065C20.1627 48.286 22.0872 38.0913 22.0872 38.0913H40.5802C40.5802 38.0913 39.7373 42.5975 40.6953 43.5794C41.8587 44.7718 55.8119 59.825 57.6284 64.6219C60.0539 71.0285 53.6682 102.829 53.6682 102.829Z" fill="#37474F"/>
<path d="M53.4753 99.8847C51.1914 99.7373 51.8491 99.7398 49.5639 99.6239C48.4454 99.5672 41.0954 99.2022 40.0421 99.3753C40.0185 99.3791 40.0169 99.4269 40.0395 99.4328C41.0769 99.6869 48.4324 99.8936 49.5521 99.9238C51.8399 99.9855 51.1838 99.9368 53.472 99.9671C53.5152 99.9675 53.5182 99.8877 53.4753 99.8847Z" fill="#263238"/>
<path d="M41.4827 44.4144L34.4729 62.319C30.4871 58.4088 26.5727 54.6078 26.5727 54.6078C20.1635 48.2868 22.0871 38.0892 22.0871 38.0892H40.5797C40.5797 38.0892 39.7355 42.5958 40.6931 43.5786C40.8191 43.7088 41.0921 43.9944 41.4827 44.4144Z" fill="#263238"/>
<path d="M29.077 126.35C28.271 126.443 6.73884 121.854 6.03072 121.158C5.75688 120.898 6.24282 117.722 6.94002 113.9C6.94758 113.861 6.95556 113.821 6.96312 113.781C7.10508 112.993 10.8968 99.8149 10.8968 99.8149L24.9316 103.121L20.8878 116.587L20.8324 116.822C20.8324 116.822 28.2886 122.265 28.9871 123.112C29.6792 123.954 29.8829 126.26 29.077 126.35Z" fill="#D3766A"/>
<path d="M29.0756 126.348C28.2734 126.445 6.74 121.854 6.0302 121.157C5.7572 120.896 6.2444 117.721 6.9416 113.899C6.95 113.861 6.9542 113.819 6.9626 113.782C7.0004 113.576 7.2902 112.509 7.6976 111.052L21.6374 114.092L20.8898 116.587L20.831 116.822C20.831 116.822 28.2902 122.266 28.9874 123.11C29.6804 123.954 29.882 126.26 29.0756 126.348Z" fill="#EBEBEB"/>
<path d="M29.2815 126.435C28.46 126.528 6.53554 121.8 5.81608 121.089C5.53804 120.824 6.04078 117.59 6.76024 113.698C6.76822 113.658 6.7762 113.617 6.78376 113.577L20.9625 116.469L20.9054 116.708C20.9054 116.708 28.4881 122.271 29.1975 123.136C29.9006 123.996 30.1026 126.345 29.2815 126.435Z" fill="#FFC727"/>
<path d="M29.2159 125.531C25.5397 124.644 10.6284 121.41 6.92736 120.812C6.89712 120.807 6.89292 120.827 6.92232 120.835C10.5469 121.794 25.4838 124.907 29.2033 125.592C29.2814 125.606 29.2936 125.55 29.2159 125.531Z" fill="#263238"/>
<path d="M22.5296 116.849C21.134 116.263 19.307 116.103 17.9722 116.9C17.9206 116.93 17.9651 117.004 18.0155 116.999C19.5476 116.856 20.9505 116.854 22.4843 117.031C22.5922 117.044 22.6296 116.891 22.5296 116.849Z" fill="#263238"/>
<path d="M23.4437 117.708C22.0481 117.123 20.2211 116.962 18.8863 117.759C18.8346 117.79 18.8792 117.863 18.9296 117.858C20.4621 117.715 21.8645 117.714 23.3984 117.89C23.5063 117.903 23.5437 117.75 23.4437 117.708Z" fill="#263238"/>
<path d="M24.3578 118.567C22.9621 117.982 21.1351 117.821 19.8004 118.618C19.7487 118.649 19.7932 118.722 19.8436 118.717C21.3762 118.574 22.7786 118.573 24.3124 118.749C24.4204 118.762 24.4577 118.609 24.3578 118.567Z" fill="#263238"/>
<path d="M37.0463 38.0914C37.0463 38.0914 38.2488 48.3844 36.1244 50.7288C36.1244 50.7288 32.3604 74.4319 31.0147 81.2599C29.2385 90.2735 22.0927 116.355 22.0927 116.355L6.375 113.699C6.375 113.699 15.6436 79.8932 15.7192 79.3056C16.1471 75.9721 19.9078 52.841 19.715 52.2664C17.7452 46.3873 20.5849 38.0914 20.5849 38.0914H37.0463Z" fill="#37474F"/>
<path d="M40.5874 38.0914C40.5874 38.0914 39.0884 48.969 36.1244 50.7288C36.1244 50.7288 32.3604 74.4319 31.0147 81.2599C29.2385 90.2735 22.0927 116.355 22.0927 116.355L6.375 113.699C6.375 113.699 15.6436 79.8932 15.7192 79.3056C16.1471 75.9721 19.9078 52.841 19.715 52.2664C17.7452 46.3873 20.5849 38.0914 20.5849 38.0914H40.5874Z" fill="#37474F"/>
<path d="M22.0264 113.12C19.7025 112.6 20.3779 112.71 18.0473 112.221C16.907 111.982 9.41085 110.417 8.30163 110.415C8.27685 110.415 8.26761 110.462 8.29029 110.471C9.31677 110.892 16.8436 112.302 17.9889 112.515C20.33 112.951 19.6635 112.796 22.0104 113.201C22.0545 113.209 22.0701 113.13 22.0264 113.12Z" fill="#263238"/>
<path d="M38.2617 49.545C36.6044 50.1154 35.0046 50.9255 33.475 51.7744C33.4149 51.8075 33.4544 51.9008 33.5195 51.8731C35.1319 51.1805 36.7762 50.5177 38.3486 49.7374C38.4721 49.676 38.3885 49.5009 38.2617 49.545Z" fill="#263238"/>
<path d="M38.7736 38.4797C38.7694 38.4238 38.6711 38.4116 38.6715 38.4717C38.6846 40.386 38.5623 42.0703 38.4011 43.8595C38.3259 44.6902 37.6581 49.2804 36.2175 48.9457C35.9764 48.8898 35.8533 48.6521 35.8151 48.2888C35.7698 47.8516 35.934 47.3156 36.0066 46.8809C36.1667 45.92 36.2948 44.9561 36.3775 43.985C36.5317 42.1731 36.5392 40.3613 36.3191 38.5549C36.312 38.4956 36.2263 38.4998 36.2263 38.5603C36.2284 41.0685 36.1629 43.5722 35.7878 46.0565C35.6076 47.2501 35.0062 49.0477 36.2549 49.2317C37.527 49.419 38.3494 46.408 38.5048 45.5844C38.9378 43.2866 38.9551 40.8052 38.7736 38.4797Z" fill="#263238"/>
<path d="M36.2567 49.0695C36.1265 49.3778 36.022 49.6987 35.9329 50.0208C35.8636 50.2711 35.77 50.5416 35.7981 50.8029C35.8036 50.8537 35.8708 50.8583 35.8976 50.8239C36.0665 50.6097 36.1379 50.3169 36.2324 50.0628C36.342 49.7684 36.4579 49.4765 36.5591 49.1791C36.6263 48.9826 36.337 48.8793 36.2567 49.0695Z" fill="#263238"/>
<path d="M21.59 44.4337C21.9403 44.3745 22.4523 44.4967 23.9689 44.3926C24.3881 44.3636 24.8043 44.283 25.2138 44.1897C25.6229 44.0965 26.0391 43.9911 26.3705 43.7206C26.9291 43.264 27.3516 42.532 27.6893 41.9049C28.0601 41.2157 28.4364 40.429 28.6124 39.663C28.6233 39.6159 28.6914 39.6386 28.6834 39.6844C28.604 40.1279 28.5595 40.5706 28.4423 41.0095C28.3323 41.4219 28.1731 41.8234 27.9996 42.2128C27.6758 42.9402 27.2974 43.7206 26.6451 44.212C25.961 44.7273 25.0067 44.8235 24.1776 44.8815C23.698 44.9151 21.8177 44.8642 21.5648 44.5959C21.5203 44.548 21.5237 44.4447 21.59 44.4337Z" fill="#263238"/>
<path d="M41.0592 42.3254C40.6413 42.6215 20.3755 38.1573 20.2928 37.9965C20.0681 37.5597 30.1636 17.217 35.9478 14.3635C37.1919 13.7499 40.3129 15.0296 40.9517 15.9259C41.3524 16.4883 41.8182 19.7244 42.084 22.3599C42.617 27.6363 41.4234 42.065 41.0592 42.3254Z" fill="#FFC727"/>
<path d="M35.6655 25.7442C35.5546 25.4742 35.529 25.2045 35.5231 24.9349C35.5281 24.6652 35.5537 24.3952 35.6655 24.1255C35.7772 24.3952 35.8028 24.6652 35.8078 24.9349C35.802 25.2045 35.7759 25.4742 35.6655 25.7442ZM40.5257 34.1694C40.5207 33.8998 40.495 33.6297 40.3833 33.3601C40.2716 33.6301 40.246 33.8998 40.2409 34.1694C40.2468 34.4395 40.2724 34.7091 40.3833 34.9788C40.4942 34.7091 40.5203 34.4391 40.5257 34.1694ZM29.3726 33.4508C29.3676 33.1807 29.3419 32.9111 29.2302 32.6415C29.1185 32.9111 29.0929 33.1812 29.0878 33.4508C29.0933 33.7204 29.1193 33.9905 29.2302 34.2601C29.3411 33.9905 29.3667 33.7204 29.3726 33.4508ZM30.6124 22.2922C30.8825 22.2872 31.1521 22.2616 31.4218 22.1499C31.1517 22.0381 30.8821 22.0125 30.6124 22.0075C30.3424 22.0134 30.0727 22.039 29.8031 22.1499C30.0727 22.2607 30.3424 22.2868 30.6124 22.2922ZM29.8027 39.6189C30.0727 39.6139 30.3424 39.5883 30.612 39.4765C30.342 39.3648 30.0723 39.3392 29.8027 39.3342C29.533 39.34 29.263 39.3657 28.9933 39.4765C29.2634 39.5874 29.533 39.613 29.8027 39.6189ZM24.6039 29.2861C24.5619 29.3701 24.5157 29.4541 24.4653 29.5339C24.6585 29.5213 24.8559 29.4835 25.0491 29.4037C24.9021 29.3407 24.7509 29.3071 24.6039 29.2861ZM40.5009 15.4933C40.5009 15.4933 40.5009 15.4933 40.4967 15.4933C40.2825 15.5059 40.0725 15.5395 39.8583 15.6277C40.1271 15.7411 40.3959 15.7663 40.6689 15.7705C40.7193 15.7705 40.7655 15.7663 40.8159 15.7663C40.7277 15.6781 40.6269 15.5899 40.5009 15.4933ZM35.3765 30.8531C35.6466 30.8481 35.9162 30.8224 36.1858 30.7107C35.9158 30.599 35.6461 30.5734 35.3765 30.5683C35.1064 30.5742 34.8368 30.5998 34.5672 30.7107C34.8368 30.822 35.1064 30.8476 35.3765 30.8531ZM39.2527 40.0099C39.5227 40.0049 39.7924 39.9793 40.062 39.8676C39.7924 39.7558 39.5223 39.7302 39.2527 39.7252C38.9826 39.7311 38.713 39.7567 38.4433 39.8676C38.713 39.9784 38.983 40.0045 39.2527 40.0099ZM30.4759 27.8661C30.2815 27.6787 30.0727 27.5061 29.8027 27.3944C29.9148 27.664 30.0874 27.8732 30.2743 28.0672C30.4692 28.2541 30.6784 28.4268 30.9476 28.5389C30.835 28.2701 30.6628 28.0609 30.4759 27.8661ZM35.7658 18.7382C35.5714 18.5509 35.3626 18.3783 35.093 18.2665C35.2047 18.5362 35.3778 18.7449 35.5647 18.9394C35.7595 19.1263 35.9687 19.2989 36.2375 19.411C36.1254 19.1422 35.9527 18.9331 35.7658 18.7382ZM40.574 28.1777C40.3795 27.9904 40.1708 27.8178 39.9012 27.706C40.0133 27.9757 40.1859 28.1844 40.3728 28.3789C40.5677 28.5658 40.7769 28.7384 41.0457 28.8505C40.9335 28.5813 40.7609 28.3726 40.574 28.1777ZM40.3728 21.716C40.1855 21.9105 40.0129 22.1192 39.9012 22.3888C40.1708 22.2771 40.38 22.1041 40.574 21.9172C40.7609 21.7223 40.9335 21.5131 41.0457 21.2443C40.7769 21.3565 40.5677 21.5291 40.3728 21.716ZM22.6513 35.1871C22.464 35.3815 22.2914 35.5903 22.1797 35.8599C22.4493 35.7478 22.6585 35.5752 22.8529 35.3883C23.0398 35.1934 23.2125 34.9842 23.3246 34.7154C23.0554 34.8276 22.8462 35.0002 22.6513 35.1871ZM34.7507 35.7591C34.5634 35.9536 34.3908 36.1623 34.279 36.4324C34.5487 36.3202 34.7574 36.1476 34.9519 35.9607C35.1388 35.7658 35.3114 35.5567 35.4235 35.2879C35.1547 35.4 34.9456 35.5726 34.7507 35.7591Z" fill="white"/>
<path d="M40.1805 18.1615C40.1175 20.1729 40.0155 22.1817 39.9075 24.1898C39.8004 26.1982 39.6614 28.2045 39.5396 30.2117C39.3893 32.2172 39.254 34.2236 39.0894 36.2282L38.8349 39.2346C38.737 40.2359 38.6513 41.238 38.543 42.2384C38.5707 41.2325 38.6215 40.2283 38.6601 39.2228L38.8151 36.2097C38.9231 34.2013 39.0612 32.195 39.1835 30.1878C39.3347 28.1823 39.4686 26.1759 39.6345 24.1713C39.7996 22.167 39.9705 20.1628 40.1805 18.1615Z" fill="#263238"/>
<path d="M41.2501 24.4201C41.24 24.628 41.0632 24.7885 40.8548 24.7784C40.6469 24.7683 40.4861 24.5915 40.4966 24.3832C40.5067 24.1753 40.6835 24.0144 40.8918 24.0249C41.0997 24.035 41.2601 24.2122 41.2501 24.4201Z" fill="#263238"/>
<path d="M40.9063 28.2904C40.8962 28.4988 40.7194 28.6592 40.5111 28.6487C40.3028 28.6386 40.1423 28.4618 40.1528 28.2535C40.1629 28.0456 40.3397 27.8851 40.548 27.8952C40.7559 27.9057 40.9164 28.0825 40.9063 28.2904Z" fill="#263238"/>
<path d="M40.5665 32.1608C40.5564 32.3687 40.3796 32.5296 40.1712 32.5191C39.9633 32.509 39.8025 32.3322 39.813 32.1239C39.8231 31.916 39.9999 31.7551 40.2082 31.7656C40.4161 31.7757 40.5765 31.9529 40.5665 32.1608Z" fill="#263238"/>
<path d="M40.2227 36.031C40.2126 36.2389 40.0358 36.3998 39.8275 36.3893C39.6196 36.3792 39.4591 36.2024 39.4692 35.9941C39.4793 35.7862 39.6561 35.6257 39.8644 35.6358C40.0723 35.6459 40.2328 35.8231 40.2227 36.031Z" fill="#263238"/>
<path d="M39.8828 39.9013C39.8728 40.1092 39.6959 40.2697 39.4876 40.2596C39.2797 40.2495 39.1193 40.0727 39.1294 39.8644C39.1394 39.6565 39.3163 39.4956 39.5246 39.5061C39.7325 39.5162 39.8929 39.693 39.8828 39.9013Z" fill="#263238"/>
<path d="M39.171 18.5554C37.9051 18.5088 36.3658 16.1299 35.966 14.4356C35.9391 14.3193 36.3873 13.2983 36.8728 12.032C37.1647 11.2621 37.4713 10.3986 37.6943 9.59009L42.4252 12.2201C42.4252 12.2201 41.4596 13.7775 41.0795 15.1891C41.0492 15.3075 41.0304 15.4201 41.0228 15.5306C41.0203 15.5461 41.0194 15.5658 41.0148 15.5877C40.9443 16.2462 40.3949 18.5995 39.171 18.5554Z" fill="#D3766A"/>
<path d="M37.9162 9.71472C37.7957 10.7677 37.5668 14.5968 40.485 15.4725C40.6727 15.5271 40.8478 15.5666 41.0125 15.5884C41.0188 15.5662 41.0196 15.5456 41.0196 15.53C41.0276 15.42 41.0465 15.3062 41.0763 15.1894C41.4585 13.7782 42.4245 12.22 42.4245 12.22L37.9162 9.71472Z" fill="#263238"/>
<path d="M37.6542 4.55405C36.9498 6.37223 37.5374 11.818 38.7722 13.1132C40.5627 14.9911 43.6904 15.3875 45.3355 13.1905C46.9303 11.0607 46.0386 3.97781 44.6409 2.78039C42.5824 1.01723 38.6945 1.86815 37.6542 4.55405Z" fill="#D3766A"/>
<path d="M42.6299 8.2177C42.6257 8.20384 42.603 8.23828 42.6051 8.25298C42.6547 8.6188 42.6496 9.04594 42.33 9.20176C42.3203 9.20638 42.3233 9.22486 42.335 9.22192C42.7345 9.12364 42.7353 8.55622 42.6299 8.2177Z" fill="#263238"/>
<path d="M42.2623 7.86828C41.6676 7.88424 41.7432 9.07284 42.2942 9.05814C42.8364 9.04344 42.7608 7.85484 42.2623 7.86828Z" fill="#263238"/>
<path d="M44.6637 8.09728C44.6658 8.083 44.6935 8.11281 44.6939 8.12793C44.7057 8.49669 44.7813 8.91712 45.1219 9.01834C45.1324 9.02128 45.1328 9.04017 45.1202 9.03891C44.7103 9.00783 44.6158 8.44882 44.6637 8.09728Z" fill="#263238"/>
<path d="M44.9678 7.692C45.557 7.60926 45.6788 8.79408 45.1332 8.87052C44.5956 8.94612 44.4738 7.7613 44.9678 7.692Z" fill="#263238"/>
<path d="M41.7605 7.35481C41.9197 7.30357 42.0583 7.23008 42.2108 7.1633C42.3826 7.08812 42.5275 7.04569 42.6325 6.88063C42.6887 6.79201 42.6535 6.64207 42.5724 6.57907C42.3842 6.43249 42.1507 6.47239 41.9403 6.55471C41.7118 6.64417 41.5585 6.77143 41.438 6.98437C41.3208 7.19101 41.5505 7.42201 41.7605 7.35481Z" fill="#263238"/>
<path d="M45.3973 7.06453C45.231 7.04815 45.0798 7.00531 44.9173 6.97213C44.7333 6.93475 44.5829 6.92383 44.4456 6.78439C44.3717 6.70963 44.3746 6.55549 44.4406 6.47695C44.5939 6.29425 44.8303 6.28417 45.0533 6.32029C45.2957 6.35935 45.4721 6.45175 45.635 6.63487C45.7925 6.81169 45.617 7.08595 45.3973 7.06453Z" fill="#263238"/>
<path d="M42.3988 11.6677C42.4924 11.7483 42.5882 11.8613 42.7222 11.8642C42.8511 11.8667 42.9977 11.7995 43.1119 11.7462C43.1233 11.7412 43.1359 11.7525 43.1291 11.7643C43.0426 11.9117 42.8473 12.0129 42.6747 11.994C42.5063 11.9755 42.4147 11.8365 42.3643 11.687C42.3576 11.6656 42.3853 11.6559 42.3988 11.6677Z" fill="#263238"/>
<path d="M42.7201 10.5407C42.9465 10.8473 43.2606 11.0027 43.5924 11.0452C43.7407 11.0653 43.8948 11.0603 44.0448 11.0372C44.0746 11.0347 44.104 11.0296 44.1305 11.0221C44.1569 11.017 44.1813 11.0124 44.2103 11.0044C44.2527 10.9952 44.2741 10.9582 44.2787 10.9175L44.2783 10.915C44.277 10.9015 44.2762 10.8906 44.2724 10.8776C44.2724 10.8776 44.2724 10.8776 44.2724 10.8746L44.2695 10.8423C44.2594 10.5584 44.204 10.1291 44.204 10.1291C44.3111 10.1745 44.8541 10.3782 44.8365 10.2308C44.6853 9.00943 44.5169 7.65115 44.1086 6.46801C44.0973 6.42811 44.036 6.44155 44.0418 6.48145C44.141 7.66123 44.4463 8.81539 44.5647 9.99853C44.3921 9.94519 44.1099 9.84397 43.9616 9.85657C43.9221 9.87085 44.0826 10.6844 44.0771 10.8125C44.0771 10.8125 44.0775 10.8179 44.0754 10.8263C43.6029 10.9175 43.235 10.7965 42.7524 10.5063C42.7235 10.4861 42.6962 10.5126 42.7201 10.5407Z" fill="#263238"/>
<path d="M43.8238 10.9709C43.8238 10.9709 43.5663 11.3015 43.2215 11.4149C43.0947 11.4569 42.9586 11.4716 42.8175 11.4304C42.5272 11.3468 42.5264 11.0789 42.5856 10.8508C42.6335 10.6635 42.7251 10.5031 42.7251 10.5031C42.7251 10.5031 43.1413 10.9126 43.8238 10.9709Z" fill="#263238"/>
<path d="M43.2215 11.4153C43.0947 11.4573 42.9586 11.472 42.8175 11.4308C42.5272 11.3472 42.5264 11.0793 42.5856 10.8512C42.8973 10.8903 43.2022 11.1103 43.2215 11.4153Z" fill="#F291B8"/>
<path d="M45.6569 4.89978C43.9227 6.3051 41.2595 4.60326 41.2595 4.60326C40.7832 6.08586 39.3359 6.02873 39.3359 6.02873C39.3359 6.02873 39.2237 9.16446 38.4051 9.2241C37.1565 9.31608 36.4311 5.11104 36.7579 4.2471C37.0847 3.38316 38.1263 3.08495 38.1263 3.08495C38.1263 3.08495 38.1523 2.43311 38.876 1.78211C39.6756 1.06139 42.687 1.70399 42.687 1.70399C42.687 1.70399 42.8454 1.14035 43.3586 0.627115C43.685 0.303295 44.1545 0.325555 44.4775 0.640135C44.3507 0.856015 44.2641 1.12313 44.2394 1.43015C44.165 2.35121 44.908 2.29073 44.8354 1.46669C44.8026 1.10003 44.664 0.821155 44.4775 0.640135C44.8009 0.0714555 45.3855 -0.151985 45.7719 0.107575C46.4738 0.578815 47.0996 3.73218 45.6569 4.89978Z" fill="#263238"/>
<path d="M38.844 8.86627C38.844 8.86627 37.72 7.06153 36.9073 7.45339C36.0946 7.84525 36.875 10.4161 37.7835 10.8105C38.6919 11.2048 39.0737 10.3711 39.0737 10.3711L38.844 8.86627Z" fill="#D3766A"/>
<path d="M37.1505 8.18472C37.1358 8.18262 37.1316 8.2032 37.1442 8.2095C37.7801 8.50728 38.09 9.12846 38.2962 9.7656C38.1156 9.51486 37.8594 9.36912 37.5251 9.58164C37.5075 9.59298 37.5226 9.62028 37.5411 9.61734C37.8103 9.5745 37.9997 9.63078 38.1686 9.8538C38.2878 10.0117 38.3647 10.207 38.4466 10.3864C38.4739 10.446 38.5806 10.4208 38.5621 10.3523C38.5608 10.3473 38.5592 10.3423 38.5575 10.3372C38.618 9.5094 38.0354 8.31534 37.1505 8.18472Z" fill="#263238"/>
<path d="M41.0114 15.5877L40.0257 18.0183L36.0848 13.9333L34.9336 15.1152C34.9336 15.1152 38.302 21.4921 38.3419 21.2153L40.1151 18.6332L41.4751 20.5903L41.6213 16.6814L41.0114 15.5877Z" fill="#FFC727"/>
<path d="M41.6628 18.3081C41.657 17.5441 41.6994 17.4887 41.6582 16.726C41.6565 16.6987 41.6154 16.6844 41.607 16.7159C41.4121 17.4421 41.423 19.6492 41.3793 20.3468C41.3768 20.3438 41.3739 20.3409 41.3718 20.3384C41.3004 20.2544 40.1324 18.6097 40.1151 18.6332C39.8169 19.0368 38.4217 20.9205 38.3482 21.0919C37.8156 20.0792 35.7635 16.3904 35.1201 15.4248C35.1016 15.3971 35.0592 15.4164 35.073 15.4487C35.5334 16.5122 38.244 21.4762 38.2911 21.4657C38.3209 21.4917 39.9673 19.1754 40.1307 18.7357C40.3844 19.0864 41.5562 20.9297 41.5679 20.8168C41.649 20.0545 41.6687 19.0729 41.6628 18.3081Z" fill="#263238"/>
<path d="M68.9341 42.6703L47.6016 60.2617L58.2593 73.186L79.5918 55.5946L68.9341 42.6703Z" fill="#FFC727"/>
<path opacity="0.1" d="M68.9341 42.6707L47.6016 60.2621L52.6205 66.3483L73.953 48.757L68.9341 42.6707Z" fill="black"/>
<path d="M67.8686 40.3553L45.5273 58.7784L50.5016 64.8106L72.8428 46.3874L67.8686 40.3553Z" fill="#FFC727"/>
<path d="M58.5677 42.2535L61.4048 45.6942L59.7866 47.0285L58.1729 45.0713L52.0019 50.1596L53.6155 52.1168L51.9973 53.4512L49.1602 50.0101L58.5677 42.2535Z" fill="#263238"/>
<path d="M53.8431 59.6467L52.3867 60.8475L54.7624 63.7289L56.2188 62.528L53.8431 59.6467Z" fill="#263238"/>
<path d="M68.597 47.4823L67.1406 48.6831L69.5163 51.5644L70.9727 50.3636L68.597 47.4823Z" fill="#263238"/>
<path d="M31.6944 19.7408C28.2004 27.4322 27.3671 35.7801 29.0362 37.6697C31.431 40.3812 39.6996 44.9899 43.9088 46.4523C45.1453 46.882 48.2961 37.1901 46.9744 36.7293C45.3771 36.1724 36.4433 32.4668 36.3072 32.3651C36.0153 32.148 35.7995 22.7383 35.8322 20.3674C35.8927 16.0191 33.5949 15.5576 31.6944 19.7408Z" fill="#D3766A"/>
<path d="M59.2534 41.8827C59.2572 42.9671 58.1871 43.3081 58.1871 43.3081C58.1871 43.3081 58.6692 44.0272 58.5193 44.8458C58.3479 45.7832 56.8027 45.9247 56.8027 45.9247C56.8027 45.9247 57.1404 46.7538 56.8951 47.6022C56.6406 48.483 55.1022 48.8479 55.1022 48.8479C55.1022 48.8479 54.9921 49.7929 54.2542 50.3742C52.9921 51.3679 50.6837 50.5384 49.2108 50.0256C47.7379 49.5132 44.0402 46.6795 43.2812 46.2112L46.4896 36.7301C46.4896 36.7301 53.7485 37.1497 55.3945 37.9981C56.7813 38.7125 59.2492 40.6651 59.2534 41.8827Z" fill="#D3766A"/>
<path d="M58.1761 43.1333C56.8842 42.0195 55.3331 41.3483 53.8228 40.5907C53.7892 40.5739 53.7632 40.6268 53.7972 40.6432C55.3079 41.3794 56.6528 42.4059 58.1308 43.201C58.1719 43.2228 58.211 43.1636 58.1761 43.1333Z" fill="#263238"/>
<path d="M56.8154 45.7903C56.5155 45.5472 56.1362 45.4035 55.7859 45.2494C55.4088 45.0831 55.0291 44.9239 54.6465 44.7697C53.8808 44.4619 53.1084 44.1717 52.3277 43.9041C52.2932 43.8924 52.2663 43.9423 52.302 43.9566C53.0643 44.2649 53.822 44.5841 54.5709 44.9243C54.9455 45.0944 55.3189 45.2679 55.691 45.4434C56.0371 45.6068 56.3886 45.8084 56.765 45.8916C56.8212 45.9037 56.8607 45.8269 56.8154 45.7903Z" fill="#263238"/>
<path d="M55.072 48.8341C54.82 48.6123 54.4294 48.5136 54.1194 48.3964C53.7679 48.2633 53.4168 48.1284 53.0665 47.9915C52.3663 47.7177 51.6662 47.4439 50.9757 47.1457C50.9413 47.131 50.9152 47.183 50.9501 47.1982C51.6498 47.5043 52.3453 47.8202 53.0484 48.1205C53.3932 48.2679 53.7393 48.4132 54.0858 48.5569C54.3807 48.6791 54.7351 48.8651 55.0598 48.8698C55.0779 48.8698 55.085 48.845 55.072 48.8341Z" fill="#263238"/>
<path d="M46.6704 36.5128L40.6476 46.1992C40.6476 46.1992 28.7746 39.4141 28.1614 37.0659C27.5482 34.7177 28.4819 26.0237 31.1388 20.5141C33.7957 15.0046 36.0956 15.5233 35.9818 21.738C35.868 27.9528 36.3187 32.1502 36.4619 32.2422C36.6043 32.3342 46.6704 36.5128 46.6704 36.5128Z" fill="#FFC727"/>
<path d="M35.6636 25.7444C35.5527 25.4744 35.5271 25.2047 35.5212 24.9351C35.5262 24.6655 35.5518 24.3954 35.6636 24.1258C35.7753 24.3954 35.8009 24.6655 35.8059 24.9351C35.8001 25.2047 35.774 25.4744 35.6636 25.7444ZM40.5158 33.9525C40.4276 33.9189 40.3436 33.8811 40.2596 33.8475C40.247 33.9567 40.2386 34.0617 40.2386 34.1709C40.247 34.4397 40.2722 34.7085 40.3814 34.9773C40.4906 34.7085 40.52 34.4397 40.5242 34.1709C40.5242 34.0995 40.52 34.0281 40.5158 33.9525ZM29.3707 33.451C29.3657 33.181 29.34 32.9113 29.2283 32.6417C29.1166 32.9113 29.091 33.1814 29.0859 33.451C29.0914 33.7207 29.1174 33.9907 29.2283 34.2604C29.3392 33.9907 29.3648 33.7207 29.3707 33.451ZM34.5644 41.4285C34.4552 41.6973 34.4258 41.9703 34.4216 42.2391C34.4216 42.2853 34.4258 42.3315 34.43 42.3777C34.5182 42.4365 34.6022 42.4911 34.6862 42.5499C34.6988 42.4449 34.7072 42.3441 34.7072 42.2391C34.703 41.9703 34.6778 41.6973 34.5644 41.4285ZM30.6122 22.0077C30.5702 22.0077 30.5282 22.0077 30.4862 22.0119C30.4484 22.1001 30.4148 22.1925 30.3812 22.2807C30.461 22.2891 30.5366 22.2891 30.6122 22.2933C30.881 22.2891 31.1498 22.2639 31.4186 22.1505C31.1498 22.0371 30.881 22.0119 30.6122 22.0077ZM30.2384 39.3747C30.3056 39.4293 30.3686 39.4797 30.4358 39.5343C30.44 39.5385 30.44 39.5343 30.44 39.5343C30.4988 39.5175 30.5534 39.5007 30.6122 39.4755C30.4862 39.4251 30.3644 39.3915 30.2384 39.3747ZM35.3746 30.8533C35.6447 30.8483 35.9143 30.8227 36.1839 30.7109C35.9139 30.5992 35.6442 30.5736 35.3746 30.5686C35.1045 30.5744 34.8349 30.6001 34.5653 30.7109C34.8349 30.8222 35.1045 30.8479 35.3746 30.8533ZM39.2508 40.0102C39.5208 40.0051 39.7905 39.9795 40.0601 39.8678C39.7905 39.7561 39.5204 39.7304 39.2508 39.7254C38.9807 39.7313 38.7111 39.7569 38.4414 39.8678C38.7111 39.9787 38.9811 40.0047 39.2508 40.0102ZM39.911 45.4563C39.7178 45.2715 39.5078 45.0951 39.239 44.9859C39.3482 45.2505 39.5162 45.4605 39.701 45.6495L39.7094 45.6537C39.9614 45.8007 40.1672 45.9225 40.3226 46.0149C40.2176 45.8007 40.0706 45.6243 39.911 45.4563ZM30.474 27.8663C30.2796 27.679 30.0708 27.5063 29.8008 27.3946C29.9129 27.6643 30.0855 27.8734 30.2724 28.0675C30.4673 28.2544 30.6765 28.427 30.9457 28.5391C30.8331 28.2703 30.6609 28.0612 30.474 27.8663ZM35.7866 18.7653V18.7611C35.7782 18.7527 35.774 18.7485 35.7656 18.7401C35.5682 18.5511 35.3624 18.3789 35.0894 18.2655C35.2028 18.5343 35.375 18.7443 35.564 18.9417C35.6564 19.0299 35.7488 19.1139 35.8538 19.1895C35.837 19.0425 35.8118 18.8997 35.7866 18.7653ZM44.7179 37.4015C44.5235 37.2142 44.3147 37.0416 44.0451 36.9299C44.1568 37.1995 44.3298 37.4083 44.5167 37.6027C44.7116 37.7896 44.9208 37.9622 45.1896 38.0744C45.0774 37.8052 44.9048 37.5964 44.7179 37.4015ZM34.7488 35.7593C34.5615 35.9538 34.3889 36.1625 34.2771 36.4326C34.5468 36.3205 34.7555 36.1478 34.95 35.9609C35.1369 35.7661 35.3095 35.5569 35.4216 35.2881C35.1528 35.4002 34.9437 35.5729 34.7488 35.7593Z" fill="white"/>
<path d="M44.0399 36.2985C44.0563 36.2695 44.0093 36.2409 43.9895 36.2678C42.2125 38.7076 40.6048 41.2822 39.1049 43.8996C39.0886 43.9286 39.136 43.9576 39.1553 43.9303C40.9042 41.4725 42.5683 38.9336 44.0399 36.2985Z" fill="#263238"/>
<path d="M31.9252 40.5422C30.8807 39.9139 29.9495 39.0869 29.1003 38.2301C28.6396 37.7652 28.291 37.2675 28.1973 36.6161C28.1129 36.0297 28.1347 35.4262 28.1431 34.8357C28.1801 32.2783 28.4808 29.7432 28.9793 27.2337C29.257 25.8355 29.6631 24.4772 30.081 23.1143C30.0886 23.0899 30.0516 23.0828 30.0428 23.1051C29.6501 24.0841 29.3174 25.0908 29.0335 26.1123C29.0751 25.4911 29.1541 24.8703 29.2612 24.2596C29.2658 24.2328 29.2259 24.2223 29.2196 24.2492C29.1297 24.6549 29.0465 25.0673 29.0071 25.4819C28.9772 25.7964 28.96 26.1118 28.9491 26.4277C28.561 27.883 28.27 29.3648 28.0646 30.8411C27.8844 32.1359 27.7937 33.4409 27.7735 34.7471C27.7639 35.3678 27.7336 36.0087 27.8348 36.624C27.9272 37.1856 28.1633 37.6656 28.5434 38.0974C29.4644 39.1423 30.6896 39.9 31.8929 40.5977C31.9298 40.6191 31.9609 40.5636 31.9252 40.5422Z" fill="#263238"/>
<path d="M41.8892 34.4694C40.2155 33.6898 38.5145 32.9796 36.8072 32.2795C36.7324 32.2488 36.6455 32.2228 36.5825 32.1699C36.4569 32.0653 36.4506 31.9187 36.4359 31.7633C36.4145 31.5382 36.3981 31.3126 36.3805 31.0875C36.3435 30.6196 36.3095 30.1513 36.2788 29.6826C36.2188 28.7628 36.1759 27.8422 36.1306 26.9215C36.1281 26.8737 36.126 26.8262 36.1234 26.7783C36.2108 26.1899 36.3078 25.5998 36.3515 25.0072C36.3536 24.9774 36.3057 24.9723 36.3003 25.0013C36.2125 25.4486 36.1562 25.9035 36.1024 26.3575C36.0588 25.4856 36.0142 24.6141 35.9722 23.7421C35.9714 23.7274 35.95 23.7279 35.9496 23.7426C35.8882 25.7283 35.9504 27.7048 36.0802 29.6868C36.1121 30.1728 36.1474 30.6583 36.1856 31.1434C36.2049 31.3857 36.2213 31.6293 36.2457 31.8712C36.2587 32.0002 36.2721 32.1266 36.3498 32.2337C36.4473 32.3677 36.6073 32.4231 36.753 32.4857C36.9912 32.5873 37.2289 32.689 37.4683 32.7877C37.9152 32.9721 38.362 33.1564 38.8093 33.3404C39.8207 33.7575 40.8392 34.1527 41.8661 34.529C41.9001 34.5429 41.9228 34.4849 41.8892 34.4694Z" fill="#263238"/>
</svg>
