<svg width="167" height="169" viewBox="0 0 167 169" fill="none" xmlns="http://www.w3.org/2000/svg">
<path d="M84.1621 154.92C82.529 156.1 80.8419 156.951 78.5633 157.354L79.1 158.974C75.1259 163.648 74.4365 166.53 75.0297 168.201L87.2775 161.001L84.1621 154.92Z" fill="#102048"/>
<path d="M81.2289 147.931L76.1836 150.173L78.5618 157.354C80.8403 156.951 82.5275 156.1 84.1606 154.92L81.2289 147.931Z" fill="#F9B384"/>
<path d="M52.6383 161.458V153.649L47.2567 153.537L46.1602 161.396C48.5346 161.827 50.6828 161.826 52.6383 161.458Z" fill="#F9B384"/>
<path d="M46.1611 161.396L45.9123 163.179C40.0707 165.054 38.217 166.492 37.8398 168.224H52.6391V161.458C50.6837 161.826 48.5356 161.827 46.1611 161.396Z" fill="#102048"/>
<path d="M70.3534 91.2001L59.9837 103.87L59.2538 104.765L58.08 117.311L54.2659 158.134L44.3975 157.908C43.5196 131.411 42.2415 103.864 45.1274 85.2568L46.1364 78.6442L69.6808 80.3259L70.3534 91.2001Z" fill="#1F3C88"/>
<path d="M26.237 50.3618L25.4887 49.5126C25.0402 49.0037 24.3857 48.7246 23.708 48.7534L14.3398 49.1499C14.2872 49.1522 14.2653 49.2204 14.3069 49.2526C16.3398 50.8266 18.8656 51.6528 21.7523 51.9313L24.6394 55.8835L26.237 50.3618Z" fill="#F9B384"/>
<path d="M59.9831 103.87L59.2532 104.765L58.0794 117.311C54.4603 109.484 55.5535 98.2634 55.5535 98.2634L59.9831 103.87Z" fill="#102048"/>
<path d="M70.3541 91.2001C72.924 110.598 78.144 131.453 84.5367 151.799L75.2871 154.994C63.9634 130.721 59.4227 117.604 55.5547 98.2635L70.3541 91.2001Z" fill="#1F3C88"/>
<path d="M59.3329 45.849L57.7422 52.688L61.1888 56.1636L65.3779 55.3228L66.3323 45.5126L59.3329 45.849Z" fill="#F9B384"/>
<path opacity="0.6" d="M47.3125 84.2207C52.0214 85.3139 58.4121 88.0047 66.4843 85.5662L67.4933 81.8663L48.0693 81.3618L47.3125 84.2207Z" fill="#102048"/>
<path d="M57.9132 51.3427C57.9132 51.3427 60.9404 55.8833 65.6492 52.8563L69.8536 60.1719L67.9196 83.0436C60.8674 85.748 54.0628 84.8541 47.4023 81.8664L52.4476 55.1267L57.9132 51.3427Z" fill="white"/>
<g opacity="0.3">
<path d="M57.4883 54.2296C57.9554 54.8762 58.5011 55.418 59.1259 55.8306C59.7514 56.2378 60.4436 56.5275 61.1661 56.6575C61.886 56.7999 62.6333 56.7811 63.3581 56.6177C64.0846 56.4506 64.7804 56.1249 65.4486 55.6871C64.9744 56.3292 64.2896 56.8363 63.5096 57.1203C62.7304 57.4128 61.8636 57.4696 61.0401 57.3179C60.2182 57.1563 59.4361 56.7906 58.8093 56.2468C58.18 55.7099 57.7037 55 57.4883 54.2296Z" fill="#1F3C88"/>
</g>
<path d="M58.0366 51.4268L51.6218 51.3988C49.5708 51.4171 47.5594 51.9661 45.7834 52.9922L37.1411 57.9856L26.2379 50.3617L21.7812 55.2388L32.894 64.7562C34.6565 66.2017 37.0204 66.6808 39.2066 66.0357L45.9703 64.0399L39.1592 88.6774C43.9397 90.0225 47.6209 90.911 52.1086 89.2661C54.5471 83.7163 58.8152 70.4487 58.0366 51.4268Z" fill="#708CD5"/>
<path d="M59.0873 38.9819C59.0873 38.9819 57.2606 39.2419 55.5557 36.5854C53.9641 34.1053 56.6346 28.3624 61.2736 30.7413C64.2167 27.8823 68.4286 29.1644 71.3278 33.3217C71.3278 33.3217 72.4075 33.192 73.4662 34.5252C74.8935 36.3226 74.2882 42.2031 69.9004 44.5292L59.0873 38.9819Z" fill="#102048"/>
<path d="M58.9883 47.3151C58.9883 47.3151 59.8302 50.0576 61.8601 50.4177C64.4667 50.8801 65.7386 47.8057 65.7386 47.8057L58.9883 47.3151Z" fill="#E28B6D"/>
<path d="M69.9578 37.9224L69.4263 42.9442C69.4263 42.9442 68.5283 46.0084 65.4641 48.4402C62.3967 50.872 58.2999 48.282 58.088 44.7941C58.0846 44.7571 58.0846 44.7167 58.0812 44.6798C58.0274 43.7347 58.024 42.8534 58.0542 42.0462C58.1719 38.7063 58.8547 36.6511 58.8547 36.6511L64.3002 34.3269L69.9578 37.9224Z" fill="#F9B384"/>
<path d="M69.2509 42.2693C67.7975 41.639 67.2353 40.1739 67.1892 38.2251C64.0838 38.9436 61.2055 38.647 58.5061 37.5511L57.0391 34.8549L63.2243 32.5156L70.2817 34.3792L71.828 39.0578L69.2509 42.2693Z" fill="#102048"/>
<path d="M64.6652 41.6416C64.5631 42.0135 64.2685 42.2566 64.0071 42.1848C63.7456 42.113 63.6165 41.7535 63.7185 41.3818C63.8206 41.01 64.1152 40.7668 64.3766 40.8386C64.6381 40.9103 64.7672 41.2699 64.6652 41.6416Z" fill="#102048"/>
<path d="M60.4371 40.8826C60.5052 40.5031 60.3442 40.1567 60.0774 40.1088C59.8106 40.0609 59.5391 40.3297 59.471 40.7092C59.4029 41.0886 59.5639 41.4351 59.8307 41.483C60.0975 41.5309 60.369 41.2621 60.4371 40.8826Z" fill="#102048"/>
<path d="M61.6844 40.5729C61.796 40.9387 61.7508 41.3571 61.5637 41.7086C61.4715 41.8849 61.3429 42.0463 61.1877 42.177C61.0357 42.3064 60.8789 42.3947 60.7611 42.497C60.646 42.5932 60.5541 42.7092 60.5305 42.8192C60.5002 42.9208 60.5401 43.0371 60.6274 43.1786C60.8197 43.4623 61.0225 43.7696 61.1999 44.081L61.0763 44.179C60.8169 43.923 60.5719 43.6713 60.3363 43.3809C60.219 43.2365 60.0925 42.9966 60.1451 42.7391C60.1978 42.4953 60.3465 42.3177 60.5047 42.1878C60.6629 42.0616 60.8187 41.9707 60.9462 41.876C61.0713 41.7834 61.1759 41.6653 61.2666 41.5344C61.4413 41.2684 61.5419 40.9417 61.5292 40.601L61.6844 40.5729Z" fill="#E28B6D"/>
<path d="M63.2383 40.0098C63.6083 39.7427 64.084 39.559 64.5882 39.6247C64.8372 39.6588 65.0764 39.7679 65.2659 39.9236C65.4583 40.0776 65.5998 40.2767 65.7001 40.4866L65.5927 40.5626C65.2709 40.2545 64.9342 40.0118 64.5391 39.9559C64.1445 39.8954 63.7248 40.0029 63.2966 40.1275L63.2383 40.0098Z" fill="#102048"/>
<path d="M59.2656 39.3387C59.4172 39.2016 59.5894 39.0828 59.7861 39.0004C59.981 38.9168 60.2047 38.8682 60.434 38.8923C60.6632 38.9167 60.8827 39.0222 61.0446 39.1715C61.21 39.3188 61.3216 39.5047 61.3974 39.6964L61.2865 39.767C61.0081 39.4879 60.7282 39.2608 60.3965 39.2249C60.0636 39.1847 59.7037 39.316 59.3345 39.4506L59.2656 39.3387Z" fill="#102048"/>
<path d="M60.3108 45.0935L62.8703 45.1666C62.7992 45.6736 62.5982 46.0869 62.2453 46.3904C61.7774 46.7929 61.0523 46.7439 60.656 46.2708C60.3845 45.9468 60.2635 45.5566 60.3108 45.0935Z" fill="white"/>
<path opacity="0.4" d="M66.2337 45.0801C66.7678 44.546 66.7678 43.6799 66.2337 43.1457C65.6995 42.6115 64.8334 42.6115 64.2992 43.1457C63.7651 43.6799 63.7651 44.546 64.2992 45.0801C64.8334 45.6143 65.6995 45.6143 66.2337 45.0801Z" fill="#FC8879"/>
<path opacity="0.4" d="M59.07 43.3679C59.07 43.9902 58.653 44.5181 58.0812 44.6797C58.0274 43.7345 58.024 42.8533 58.0542 42.046C58.6395 42.1973 59.07 42.7322 59.07 43.3679Z" fill="#FC8879"/>
<path d="M75.7355 77.1576L72.7084 91.8728L79.6595 91.6486L82.3766 80.8558C83.6737 75.7032 83.2913 70.2627 81.2326 65.3643C80.2265 62.9706 78.946 60.4313 77.4536 57.7798C76.7367 56.506 75.5459 55.566 74.1361 55.1801L65.6134 52.8563C61.4367 65.8217 59.4837 78.32 61.4967 89.9669L71.1106 88.7617C71.2359 82.3435 71.0774 75.1891 73.3809 66.5626C73.3809 66.5626 76.0719 70.2623 75.7355 77.1576Z" fill="#708CD5"/>
<path d="M68.1031 42.1265C69.2529 41.275 69.8476 41.2011 70.6009 41.8673C71.5111 42.6725 71.2748 46.1617 67.7461 44.9031L68.1031 42.1265Z" fill="#F9B384"/>
<path d="M68.6914 43.3124C68.6564 43.1164 68.6791 42.9 68.7703 42.7085C68.8584 42.5155 69.009 42.3516 69.1893 42.238C69.3701 42.1254 69.5851 42.06 69.8059 42.0765C70.024 42.0862 70.2553 42.2131 70.3451 42.4122L70.2383 42.489C70.1057 42.3827 69.9545 42.3615 69.8038 42.372C69.6522 42.386 69.4997 42.4409 69.365 42.5231C69.0902 42.6887 68.9048 42.9622 68.8229 43.3126H68.6914V43.3124Z" fill="#E28B6D"/>
<path d="M46.9031 60.2123L44.5078 68.7922L44.8317 68.8827L47.227 60.3028L46.9031 60.2123Z" fill="#102048"/>
<path d="M72.4497 71.2123L72.1172 71.1624C72.3679 69.4906 73.9055 63.7361 73.9709 63.4918L74.2957 63.5789C74.2798 63.6385 72.6977 69.5591 72.4497 71.2123Z" fill="#102048"/>
<path d="M81.3686 103.367C80.1226 104.57 78.7048 105.486 77.1991 106.119C75.9566 106.647 74.6491 106.98 73.3233 107.119C71.5801 107.307 69.8117 107.155 68.1141 106.671C66.5768 106.233 65.0991 105.523 63.765 104.539C63.1501 104.085 62.5645 103.575 62.0174 103.007C59.4627 100.352 58.19 96.9324 58.1914 93.5145C58.1893 89.9267 59.5905 86.345 62.3798 83.6583C62.9547 83.1083 63.5603 82.6142 64.1937 82.1855C64.8514 81.7374 65.5367 81.3544 66.2452 81.035C66.7296 80.8161 67.2227 80.6305 67.7244 80.4706C68.4014 80.256 69.0926 80.0942 69.7907 79.9851C71.547 79.7165 73.3421 79.7913 75.0738 80.2069C75.933 80.4085 76.7758 80.7002 77.5919 81.0757C78.5949 81.5366 79.5524 82.1276 80.4419 82.8413C80.8912 83.1996 81.3204 83.5938 81.7311 84.0193C86.9723 89.4634 86.8115 98.1232 81.3686 103.367Z" fill="#FBC343"/>
<path opacity="0.4" d="M79.7475 85.9264C79.8253 86.0143 79.8997 86.1021 79.9724 86.1917C83.5941 90.5645 83.2841 97.0587 79.127 101.063C78.6906 101.483 78.2289 101.86 77.7457 102.193C76.5481 103.021 75.2241 103.584 73.8532 103.88C72.019 104.279 70.1022 104.198 68.3013 103.646C66.7822 103.182 65.3456 102.378 64.1104 101.24C64.0662 101.201 64.0221 101.159 63.978 101.116C60.1195 96.7442 60.3569 90.0655 64.5984 85.9799C64.9891 85.6035 65.4017 85.2604 65.8292 84.9538C66.9836 84.1269 68.2593 83.5529 69.5841 83.2303C72.0877 82.6169 74.7612 82.8987 77.1001 84.0658C78.0486 84.5397 78.9426 85.1612 79.7475 85.9264Z" fill="#BB9132"/>
<path opacity="0.4" d="M80.0443 86.3155C80.1578 86.4334 80.2697 86.553 80.3745 86.676C76.1506 82.6558 69.4805 82.6309 65.2544 86.7014C61.0284 90.7721 60.8037 97.4385 64.663 101.81C64.544 101.701 64.4288 101.584 64.3152 101.466C60.1177 97.1086 60.2346 90.1829 64.5781 85.9991C68.9215 81.8153 75.8467 81.9578 80.0443 86.3155Z" fill="#BB9132"/>
<path opacity="0.3" d="M69.7906 79.985L69.5871 83.2239L69.5869 83.2315C69.3092 83.2983 69.0373 83.3772 68.7668 83.4666C68.7184 83.4825 68.6731 83.4968 68.6248 83.5127C68.587 83.5272 68.5447 83.5402 68.5039 83.5562C68.4963 83.5561 68.4902 83.559 68.4812 83.5634C68.1183 83.6937 67.7612 83.8436 67.4098 84.0132C67.3341 84.0497 67.2553 84.0878 67.178 84.1287C67.1279 84.1566 67.0734 84.1829 67.0234 84.2108C66.9203 84.268 66.8187 84.3208 66.7171 84.381C66.6912 84.3971 66.667 84.4088 66.6427 84.4281C66.6185 84.4398 66.5957 84.4546 66.5729 84.4693C66.4652 84.5324 66.3559 84.6001 66.2481 84.6708C66.2299 84.6796 66.2162 84.6899 66.1996 84.7017C66.148 84.734 66.1009 84.768 66.0493 84.8003C65.9763 84.8505 65.9035 84.9006 65.832 84.9537L66.2452 81.0347C66.7297 80.8158 67.2227 80.6302 67.7244 80.4703C68.4012 80.2558 69.0925 80.094 69.7906 79.985Z" fill="white"/>
<path opacity="0.15" d="M68.3051 103.646L68.1154 106.672C66.5768 106.234 65.1005 105.522 63.7656 104.538L64.1124 101.248L64.1143 101.24C64.2044 101.323 64.2961 101.404 64.3897 101.483C65.5597 102.494 66.8977 103.217 68.3051 103.646Z" fill="white"/>
<path opacity="0.15" d="M80.4448 82.8405L79.9857 86.1363L79.9777 86.1915C79.9052 86.102 79.8307 86.0142 79.7528 85.9263C78.948 85.1611 78.054 84.5395 77.1055 84.0655L77.1075 84.0534L77.5952 81.0762C78.5976 81.5357 79.556 82.1257 80.4448 82.8405Z" fill="white"/>
<path opacity="0.3" d="M77.7513 102.193L77.2042 106.12C75.9587 106.648 74.6529 106.979 73.3281 107.119L73.8588 103.88C75.2297 103.584 76.5537 103.021 77.7513 102.193Z" fill="white"/>
<g opacity="0.4">
<path d="M76.791 96.6738L77.9751 97.9031L76.2888 99.4836L75.1577 98.3093C73.9859 99.3094 72.6242 100.046 71.5641 100.275L70.5708 97.5601C71.7184 97.2876 72.9591 96.6262 73.8122 95.8044C74.5545 95.0895 74.6712 94.6781 74.4149 94.412C73.4758 93.437 69.9467 98.3527 67.1624 95.4621C65.9565 94.2103 65.8509 92.283 67.4223 90.279L66.0508 88.8552L67.6128 87.3505L68.9626 88.7517C69.8562 88.0404 70.8577 87.4826 71.8305 87.229L72.8684 89.8805C71.73 90.2294 70.8287 90.7342 70.1532 91.3849C69.3884 92.1216 69.3587 92.578 69.6149 92.8441C70.5105 93.7739 74.051 88.87 76.8032 91.7273C77.9552 92.9231 78.2189 94.7212 76.791 96.6738Z" fill="#BB9132"/>
</g>
<path d="M76.5208 96.3908L77.6991 97.614L76.1447 99.1111L75.0193 97.9427C73.8533 98.9379 72.4984 99.6703 71.4437 99.899L70.4554 97.1972C71.5972 96.926 72.8317 96.2679 73.6807 95.4502C74.4193 94.7388 74.5353 94.3294 74.2803 94.0647C73.3459 93.0946 69.8343 97.9857 67.064 95.1095C65.8642 93.8639 65.7591 91.9461 67.3226 89.9522L66.1652 88.7505L67.7195 87.2534L68.8554 88.4326C69.7446 87.7249 70.741 87.1699 71.7089 86.9175L72.7416 89.5558C71.6089 89.9029 70.7121 90.4052 70.0401 91.0527C69.279 91.7857 69.2494 92.2398 69.5044 92.5046C70.3956 93.4298 73.9185 88.5504 76.6569 91.3934C77.8029 92.5833 77.9416 94.4479 76.5208 96.3908Z" fill="#FBC343"/>
<mask id="mask0_2927_4396" style="mask-type:luminance" maskUnits="userSpaceOnUse" x="66" y="86" width="12" height="14">
<path d="M76.5208 96.3909L77.6991 97.6141L76.1447 99.1112L75.0193 97.9428C73.8533 98.938 72.4984 99.6704 71.4437 99.8991L70.4554 97.1973C71.5972 96.9262 72.8317 96.2681 73.6807 95.4503C74.4193 94.7389 74.5353 94.3296 74.2803 94.0648C73.3459 93.0948 69.8343 97.9858 67.064 95.1096C65.8642 93.864 65.7591 91.9463 67.3226 89.9523L66.1652 88.7506L67.7195 87.2535L68.8554 88.4327C69.7446 87.725 70.741 87.17 71.7089 86.9176L72.7416 89.5559C71.6089 89.903 70.7121 90.4053 70.0401 91.0528C69.279 91.7859 69.2494 92.24 69.5044 92.5047C70.3956 93.4299 73.9185 88.5506 76.6569 91.3935C77.8029 92.5834 77.9416 94.448 76.5208 96.3909Z" fill="white"/>
</mask>
<g mask="url(#mask0_2927_4396)">
<path opacity="0.3" d="M65.3062 75.7673L61.5117 111.71L66.8717 112.249L69.1555 75.8906L65.3062 75.7673Z" fill="white"/>
<path opacity="0.3" d="M72.125 114.867L78.9537 73.186L82.2454 74.0416L76.382 116.165L72.125 114.867Z" fill="white"/>
</g>
<path d="M73.9527 90.9692L73.076 93.5713C73.076 93.5713 70.6439 96.5775 70.9861 96.96C71.7009 97.7589 73.5718 95.8249 73.5718 95.8249L72.0623 99.6721C71.9795 99.9271 72.1321 100.198 72.3938 100.256C73.2089 100.439 74.9313 100.615 76.4772 99.3998C78.487 97.8195 78.0196 94.0211 78.0196 94.0211L78.8808 91.2052L73.9527 90.9692Z" fill="#F9B384"/>
<path d="M82.0446 82.1859L81.224 85.4452L81.2071 85.5125L81.0759 86.027L79.6632 91.6474L77.8469 91.708L77.3727 91.7215L72.7109 91.8728L72.7849 91.5062L72.8589 91.1496L73.0944 90.0161L73.1649 89.6595L73.6997 87.0696L73.7669 86.7299L74.4834 83.2486L74.6649 82.364L74.6717 82.3471V82.3437L75.4319 78.7566C76.1348 78.8575 76.8277 79.0122 77.5038 79.2174C79.2024 79.739 81.7503 80.1847 82.0446 82.1859Z" fill="#708CD5"/>
<path d="M25.782 21.6124C24.4911 15.6938 18.6077 11.9608 12.6881 13.3383C7.0678 14.6462 3.41268 20.2207 4.46024 25.8954C4.95958 28.6001 6.40958 30.8721 8.39319 32.4451C9.95848 33.6865 11.0592 35.419 11.485 37.3708L24.0915 34.6214C23.6662 32.6717 23.9422 30.6393 24.8485 28.8614C25.949 26.7025 26.3387 24.1646 25.782 21.6124Z" fill="#FBC343"/>
<path d="M12.2847 23.9766L11.8671 23.7861C11.4387 23.5907 10.9294 23.9135 10.9668 24.383C10.9732 24.4635 10.9936 24.5446 11.0297 24.6233L16.6587 36.9211L19.2855 36.3482L19.2828 22.8232C19.2828 22.7947 19.2811 22.7669 19.278 22.7394C19.215 22.1978 18.5019 22.0245 18.1577 22.4475L18.002 22.6389C16.6227 24.3337 14.2729 24.8836 12.2847 23.9766Z" stroke="white" stroke-width="0.629999" stroke-miterlimit="10"/>
<path d="M21.6958 43.9489C21.8404 44.612 21.0309 45.3516 19.8877 45.601C18.7445 45.8503 17.7004 45.5149 17.5558 44.8518C17.4111 44.1887 18.2207 43.449 19.3639 43.1997C20.5071 42.9505 21.5511 43.2857 21.6958 43.9489Z" fill="#102048"/>
<path d="M11.4844 37.3707L24.0909 34.6212L25.2367 39.8753L12.6384 42.6531L11.4844 37.3707Z" fill="#1F3C88"/>
<path d="M12.6094 42.5334L25.2159 39.7839L24.3674 41.7767C23.9604 42.7326 23.1165 43.4328 22.1018 43.6563L17.0693 44.7645C16.0478 44.9894 14.9809 44.7032 14.2093 43.9972C13.4459 43.2987 12.6094 42.5334 12.6094 42.5334Z" fill="#1F3C88"/>
<path d="M25.3656 37.3808L11.5306 40.3982C11.3232 40.4434 11.1166 40.3108 11.0714 40.1034C11.0261 39.896 11.1588 39.6893 11.3662 39.6441L25.2012 36.6266C25.4086 36.5814 25.6152 36.7141 25.6605 36.9215C25.7057 37.1289 25.573 37.3355 25.3656 37.3808Z" fill="#708CD5"/>
<path d="M25.975 40.1723L12.14 43.1896C11.9326 43.2348 11.726 43.1021 11.6807 42.8947C11.6355 42.6873 11.7682 42.4807 11.9756 42.4355L25.8106 39.4182C26.018 39.3729 26.2246 39.5056 26.2698 39.7129C26.3151 39.9204 26.1824 40.127 25.975 40.1723Z" fill="#708CD5"/>
<path d="M1 7.76953L6.82118 11.2387" stroke="#FBC343" stroke-width="1.80724" stroke-miterlimit="10" stroke-linecap="round" stroke-linejoin="round"/>
<path d="M18.6587 1.25562L15.6641 8.24735" stroke="#FBC343" stroke-width="1.80724" stroke-miterlimit="10" stroke-linecap="round" stroke-linejoin="round"/>
<path d="M8.33203 1L10.8802 8.46298" stroke="#FBC343" stroke-width="1.80724" stroke-miterlimit="10" stroke-linecap="round" stroke-linejoin="round"/>
<path d="M130.218 107.416H102.836V110.807H130.218V107.416Z" fill="#FBC343"/>
<path opacity="0.4" d="M121.221 107.416H109.984V110.807H121.221V107.416Z" fill="#BB9132"/>
<path opacity="0.4" d="M107.547 107.416H104.953V110.807H107.547V107.416Z" fill="white"/>
<path opacity="0.4" d="M127.492 107.416H124.898V110.807H127.492V107.416Z" fill="white"/>
<path d="M130.218 114.192H102.836V117.584H130.218V114.192Z" fill="#FBC343"/>
<path opacity="0.4" d="M121.221 114.192H109.984V117.584H121.221V114.192Z" fill="#BB9132"/>
<path opacity="0.4" d="M107.547 114.192H104.953V117.584H107.547V114.192Z" fill="white"/>
<path opacity="0.4" d="M127.492 114.192H124.898V117.584H127.492V114.192Z" fill="white"/>
<path d="M129.25 110.801H101.867V114.193H129.25V110.801Z" fill="#FBC343"/>
<path opacity="0.4" d="M120.248 110.801H109.012V114.193H120.248V110.801Z" fill="#BB9132"/>
<path opacity="0.4" d="M106.574 110.801H103.98V114.193H106.574V110.801Z" fill="white"/>
<path opacity="0.4" d="M126.524 110.801H123.93V114.193H126.524V110.801Z" fill="white"/>
<path d="M130.218 120.969H102.836V124.36H130.218V120.969Z" fill="#FBC343"/>
<path opacity="0.4" d="M121.221 120.969H109.984V124.36H121.221V120.969Z" fill="#BB9132"/>
<path opacity="0.4" d="M107.547 120.969H104.953V124.36H107.547V120.969Z" fill="white"/>
<path opacity="0.4" d="M127.492 120.969H124.898V124.36H127.492V120.969Z" fill="white"/>
<path d="M131.597 117.578H104.215V120.969H131.597V117.578Z" fill="#FBC343"/>
<path opacity="0.4" d="M122.596 117.578H111.359V120.969H122.596V117.578Z" fill="#BB9132"/>
<path opacity="0.4" d="M108.926 117.578H106.332V120.969H108.926V117.578Z" fill="white"/>
<path opacity="0.4" d="M128.871 117.578H126.277V120.969H128.871V117.578Z" fill="white"/>
<path d="M130.218 127.745H102.836V131.137H130.218V127.745Z" fill="#FBC343"/>
<path opacity="0.4" d="M121.221 127.745H109.984V131.137H121.221V127.745Z" fill="#BB9132"/>
<path opacity="0.4" d="M107.547 127.745H104.953V131.137H107.547V127.745Z" fill="white"/>
<path opacity="0.4" d="M127.492 127.745H124.898V131.137H127.492V127.745Z" fill="white"/>
<path d="M128.972 124.354H101.59V127.746H128.972V124.354Z" fill="#FBC343"/>
<path opacity="0.4" d="M119.971 124.354H108.734V127.746H119.971V124.354Z" fill="#BB9132"/>
<path opacity="0.4" d="M106.297 124.354H103.703V127.746H106.297V124.354Z" fill="white"/>
<path opacity="0.4" d="M126.246 124.354H123.652V127.746H126.246V124.354Z" fill="white"/>
<path d="M130.218 134.522H102.836V137.914H130.218V134.522Z" fill="#FBC343"/>
<path opacity="0.4" d="M121.221 134.522H109.984V137.913H121.221V134.522Z" fill="#BB9132"/>
<path opacity="0.4" d="M107.547 134.522H104.953V137.913H107.547V134.522Z" fill="white"/>
<path opacity="0.4" d="M127.492 134.522H124.898V137.913H127.492V134.522Z" fill="white"/>
<path d="M130.218 131.131H102.836V134.522H130.218V131.131Z" fill="#FBC343"/>
<path opacity="0.4" d="M121.221 131.131H109.984V134.522H121.221V131.131Z" fill="#BB9132"/>
<path opacity="0.4" d="M107.547 131.131H104.953V134.522H107.547V131.131Z" fill="white"/>
<path opacity="0.4" d="M127.492 131.131H124.898V134.522H127.492V131.131Z" fill="white"/>
<path d="M128.199 141.305H100.816V144.696H128.199V141.305Z" fill="#FBC343"/>
<path opacity="0.4" d="M119.197 141.305H107.961V144.696H119.197V141.305Z" fill="#BB9132"/>
<path opacity="0.4" d="M105.523 141.305H102.93V144.696H105.523V141.305Z" fill="white"/>
<path opacity="0.4" d="M125.473 141.305H122.879V144.696H125.473V141.305Z" fill="white"/>
<path d="M130.218 137.914H102.836V141.305H130.218V137.914Z" fill="#FBC343"/>
<path opacity="0.4" d="M121.221 137.914H109.984V141.305H121.221V137.914Z" fill="#BB9132"/>
<path opacity="0.4" d="M107.547 137.914H104.953V141.305H107.547V137.914Z" fill="white"/>
<path opacity="0.4" d="M127.492 137.914H124.898V141.305H127.492V137.914Z" fill="white"/>
<path d="M130.218 148.088H102.836V151.48H130.218V148.088Z" fill="#FBC343"/>
<path opacity="0.4" d="M121.221 148.088H109.984V151.48H121.221V148.088Z" fill="#BB9132"/>
<path opacity="0.4" d="M107.547 148.088H104.953V151.48H107.547V148.088Z" fill="white"/>
<path opacity="0.4" d="M127.492 148.088H124.898V151.48H127.492V148.088Z" fill="white"/>
<path d="M130.218 144.697H102.836V148.088H130.218V144.697Z" fill="#FBC343"/>
<path opacity="0.4" d="M121.221 144.697H109.984V148.088H121.221V144.697Z" fill="#BB9132"/>
<path opacity="0.4" d="M107.547 144.697H104.953V148.088H107.547V144.697Z" fill="white"/>
<path opacity="0.4" d="M127.492 144.697H124.898V148.088H127.492V144.697Z" fill="white"/>
<path d="M130.218 154.871H102.836V158.263H130.218V154.871Z" fill="#FBC343"/>
<path opacity="0.4" d="M121.221 154.871H109.984V158.263H121.221V154.871Z" fill="#BB9132"/>
<path opacity="0.4" d="M107.547 154.871H104.953V158.263H107.547V154.871Z" fill="white"/>
<path opacity="0.4" d="M127.492 154.871H124.898V158.263H127.492V154.871Z" fill="white"/>
<path d="M130.218 151.48H102.836V154.871H130.218V151.48Z" fill="#FBC343"/>
<path opacity="0.4" d="M121.221 151.48H109.984V154.871H121.221V151.48Z" fill="#BB9132"/>
<path opacity="0.4" d="M107.547 151.48H104.953V154.871H107.547V151.48Z" fill="white"/>
<path opacity="0.4" d="M127.492 151.48H124.898V154.871H127.492V151.48Z" fill="white"/>
<path d="M130.218 161.654H102.836V165.046H130.218V161.654Z" fill="#FBC343"/>
<path opacity="0.4" d="M121.221 161.654H109.984V165.045H121.221V161.654Z" fill="#BB9132"/>
<path opacity="0.4" d="M107.547 161.654H104.953V165.045H107.547V161.654Z" fill="white"/>
<path opacity="0.4" d="M127.492 161.654H124.898V165.045H127.492V161.654Z" fill="white"/>
<path d="M130.218 158.263H102.836V161.654H130.218V158.263Z" fill="#FBC343"/>
<path opacity="0.4" d="M121.221 158.263H109.984V161.654H121.221V158.263Z" fill="#BB9132"/>
<path opacity="0.4" d="M107.547 158.263H104.953V161.654H107.547V158.263Z" fill="white"/>
<path opacity="0.4" d="M127.492 158.263H124.898V161.654H127.492V158.263Z" fill="white"/>
<path d="M130.218 165.046H102.836V168.437H130.218V165.046Z" fill="#FBC343"/>
<path opacity="0.4" d="M121.221 165.046H109.984V168.437H121.221V165.046Z" fill="#BB9132"/>
<path opacity="0.4" d="M107.547 165.046H104.953V168.437H107.547V165.046Z" fill="white"/>
<path opacity="0.4" d="M127.492 165.046H124.898V168.437H127.492V165.046Z" fill="white"/>
<path d="M166.023 120.969H138.641V124.36H166.023V120.969Z" fill="#FBC343"/>
<path opacity="0.4" d="M157.022 120.969H145.785V124.36H157.022V120.969Z" fill="#BB9132"/>
<path opacity="0.4" d="M143.348 120.969H140.754V124.36H143.348V120.969Z" fill="white"/>
<path opacity="0.4" d="M163.297 120.969H160.703V124.36H163.297V120.969Z" fill="white"/>
<path d="M162.66 127.745H135.277V131.137H162.66V127.745Z" fill="#FBC343"/>
<path opacity="0.4" d="M153.659 127.745H142.422V131.137H153.659V127.745Z" fill="#BB9132"/>
<path opacity="0.4" d="M139.984 127.745H137.391V131.137H139.984V127.745Z" fill="white"/>
<path opacity="0.4" d="M159.934 127.745H157.34V131.137H159.934V127.745Z" fill="white"/>
<path d="M161.418 124.354H134.035V127.746H161.418V124.354Z" fill="#FBC343"/>
<path opacity="0.4" d="M152.416 124.354H141.18V127.746H152.416V124.354Z" fill="#BB9132"/>
<path opacity="0.4" d="M138.742 124.354H136.148V127.746H138.742V124.354Z" fill="white"/>
<path opacity="0.4" d="M158.691 124.354H156.098V127.746H158.691V124.354Z" fill="white"/>
<path d="M162.66 134.522H135.277V137.913H162.66V134.522Z" fill="#FBC343"/>
<path opacity="0.4" d="M153.659 134.522H142.422V137.913H153.659V134.522Z" fill="#BB9132"/>
<path opacity="0.4" d="M139.984 134.522H137.391V137.913H139.984V134.522Z" fill="white"/>
<path opacity="0.4" d="M159.934 134.522H157.34V137.913H159.934V134.522Z" fill="white"/>
<path d="M161.277 131.131H133.895V134.522H161.277V131.131Z" fill="#FBC343"/>
<path opacity="0.4" d="M152.276 131.131H141.039V134.522H152.276V131.131Z" fill="#BB9132"/>
<path opacity="0.4" d="M138.602 131.131H136.008V134.522H138.602V131.131Z" fill="white"/>
<path opacity="0.4" d="M158.551 131.131H155.957V134.522H158.551V131.131Z" fill="white"/>
<path d="M162.66 141.305H135.277V144.696H162.66V141.305Z" fill="#FBC343"/>
<path opacity="0.4" d="M153.659 141.305H142.422V144.696H153.659V141.305Z" fill="#BB9132"/>
<path opacity="0.4" d="M139.984 141.305H137.391V144.696H139.984V141.305Z" fill="white"/>
<path opacity="0.4" d="M159.934 141.305H157.34V144.696H159.934V141.305Z" fill="white"/>
<path d="M162.66 137.914H135.277V141.305H162.66V137.914Z" fill="#FBC343"/>
<path opacity="0.4" d="M153.659 137.914H142.422V141.305H153.659V137.914Z" fill="#BB9132"/>
<path opacity="0.4" d="M139.984 137.914H137.391V141.305H139.984V137.914Z" fill="white"/>
<path opacity="0.4" d="M159.934 137.914H157.34V141.305H159.934V137.914Z" fill="white"/>
<path d="M165.351 148.088H137.969V151.479H165.351V148.088Z" fill="#FBC343"/>
<path opacity="0.4" d="M156.35 148.088H145.113V151.479H156.35V148.088Z" fill="#BB9132"/>
<path opacity="0.4" d="M142.68 148.088H140.086V151.479H142.68V148.088Z" fill="white"/>
<path opacity="0.4" d="M162.625 148.088H160.031V151.479H162.625V148.088Z" fill="white"/>
<path d="M162.66 144.697H135.277V148.088H162.66V144.697Z" fill="#FBC343"/>
<path opacity="0.4" d="M153.659 144.697H142.422V148.088H153.659V144.697Z" fill="#BB9132"/>
<path opacity="0.4" d="M139.984 144.697H137.391V148.088H139.984V144.697Z" fill="white"/>
<path opacity="0.4" d="M159.934 144.697H157.34V148.088H159.934V144.697Z" fill="white"/>
<path d="M162.66 154.871H135.277V158.262H162.66V154.871Z" fill="#FBC343"/>
<path opacity="0.4" d="M153.659 154.871H142.422V158.262H153.659V154.871Z" fill="#BB9132"/>
<path opacity="0.4" d="M139.984 154.871H137.391V158.262H139.984V154.871Z" fill="white"/>
<path opacity="0.4" d="M159.934 154.871H157.34V158.262H159.934V154.871Z" fill="white"/>
<path d="M162.66 151.48H135.277V154.871H162.66V151.48Z" fill="#FBC343"/>
<path opacity="0.4" d="M153.659 151.48H142.422V154.871H153.659V151.48Z" fill="#BB9132"/>
<path opacity="0.4" d="M139.984 151.48H137.391V154.871H139.984V151.48Z" fill="white"/>
<path opacity="0.4" d="M159.934 151.48H157.34V154.871H159.934V151.48Z" fill="white"/>
<path d="M162.66 161.654H135.277V165.045H162.66V161.654Z" fill="#FBC343"/>
<path opacity="0.4" d="M153.659 161.654H142.422V165.045H153.659V161.654Z" fill="#BB9132"/>
<path opacity="0.4" d="M139.984 161.654H137.391V165.045H139.984V161.654Z" fill="white"/>
<path opacity="0.4" d="M159.934 161.654H157.34V165.045H159.934V161.654Z" fill="white"/>
<path d="M162.66 158.263H135.277V161.654H162.66V158.263Z" fill="#FBC343"/>
<path opacity="0.4" d="M153.659 158.263H142.422V161.654H153.659V158.263Z" fill="#BB9132"/>
<path opacity="0.4" d="M139.984 158.263H137.391V161.654H139.984V158.263Z" fill="white"/>
<path opacity="0.4" d="M159.934 158.263H157.34V161.654H159.934V158.263Z" fill="white"/>
<path d="M162.66 165.046H135.277V168.437H162.66V165.046Z" fill="#FBC343"/>
<path opacity="0.4" d="M153.659 165.046H142.422V168.437H153.659V165.046Z" fill="#BB9132"/>
<path opacity="0.4" d="M139.984 165.046H137.391V168.437H139.984V165.046Z" fill="white"/>
<path opacity="0.4" d="M159.934 165.046H157.34V168.437H159.934V165.046Z" fill="white"/>
<path d="M150.052 118.324L128.148 101.889L126.113 104.602L148.016 121.037L150.052 118.324Z" fill="#FBC343"/>
<path opacity="0.4" d="M142.851 112.922L133.863 106.178L131.828 108.891L140.816 115.635L142.851 112.922Z" fill="#BB9132"/>
<path opacity="0.4" d="M131.915 104.717L129.84 103.16L127.804 105.873L129.879 107.43L131.915 104.717Z" fill="white"/>
<path opacity="0.4" d="M147.872 116.689L145.797 115.133L143.761 117.845L145.836 119.402L147.872 116.689Z" fill="white"/>
</svg>
