<svg width="104" height="163" viewBox="0 0 104 163" fill="none" xmlns="http://www.w3.org/2000/svg">
<path d="M74.4181 14.8786C74.4181 14.8786 72.1151 10.7859 74.4181 9.95338C76.721 9.1209 77.763 9.8885 77.8726 10.8208C77.9822 11.7529 76.9953 15.4271 76.9953 15.4271L74.4181 14.8786Z" fill="#FFB27D"/>
<g filter="url(#filter0_d_2927_4111)">
<path d="M76.2657 41.054C72.0665 41.8107 68.2062 42.1618 64.722 42.2396C61.4144 42.3142 58.4467 42.142 55.8487 41.8405C55.1512 41.7604 54.4812 41.6705 53.8373 41.5728C47.039 40.5419 43.2852 38.7138 43.2852 38.7138C43.2852 38.7138 49.4968 25.711 54.5141 26.2101C60.401 26.7968 70.3763 32.0796 71.3679 30.598C72.4842 28.9288 73.4186 14.6133 73.4186 14.6133C76.0287 12.8256 77.5871 14.7098 77.5871 14.7098C77.5871 14.7098 82.6856 39.8959 76.2657 41.054Z" fill="#F99746"/>
</g>
<g filter="url(#filter1_d_2927_4111)">
<path d="M76.2623 41.0539C72.0632 41.8107 68.2028 42.1617 64.7187 42.2396C61.4111 42.3142 58.4434 42.1419 55.8454 41.8404C54.2793 36.8591 53.153 31.7714 56.3027 34.839C61.8595 40.2489 76.2623 41.0539 76.2623 41.0539Z" fill="#ED7D2B"/>
</g>
<g filter="url(#filter2_d_2927_4111)">
<path d="M42.8131 146.039C42.8131 146.039 42.3663 151.209 43.4589 151.747L57.4421 151.718C57.4421 151.718 57.4421 150.104 55.1961 149.745C52.9503 149.387 49.0045 148.072 48.3369 145.143C47.6692 142.214 42.8131 146.039 42.8131 146.039Z" fill="#233862"/>
</g>
<g filter="url(#filter3_d_2927_4111)">
<path d="M53.079 83.4775C53.01 86.8576 52.8477 90.344 52.5297 93.4774C51.0197 108.346 50.4888 126.31 50.2716 129.773C49.8955 135.786 48.7078 145.391 48.7078 145.391C48.7078 145.391 46.3522 147.627 41.7603 146.56C41.7603 146.56 37.9559 132.726 37.106 118.159C37.0929 117.92 37.0797 117.68 37.0676 117.44C36.9688 115.514 36.8658 113.312 36.7604 110.937C36.0607 95.0325 35.3008 71.4057 35.3008 71.4057L52.8477 67.2854C52.8477 67.2854 53.2513 75.0514 53.079 83.4775Z" fill="#2A4E96"/>
</g>
<path d="M53.079 83.4774C48.632 91.15 40.1559 105.286 36.7604 110.937C36.0607 95.0325 35.3008 71.4057 35.3008 71.4057L52.8477 67.2854C52.8477 67.2854 53.2513 75.0513 53.079 83.4774Z" fill="#233862"/>
<path d="M8.65132 68.6145C8.65132 68.6145 5.79614 71.9724 5.53924 72.9034C5.28233 73.8344 4.82497 77.1892 5.06991 78.197C5.31484 79.205 7.21322 75.3864 7.90367 74.9785C8.59412 74.5708 7.38531 76.4973 7.62143 76.8189C7.85754 77.1404 9.22081 75.6942 9.75251 75.2049C10.2841 74.7155 10.2314 72.0819 10.8698 70.5245C11.5083 68.967 8.65132 68.6145 8.65132 68.6145Z" fill="#FFB27D"/>
<g filter="url(#filter4_d_2927_4111)">
<path d="M7.98008 140.165C7.98008 140.165 5.4913 142.436 5.97689 144.05C6.46247 145.664 8.70845 146.74 9.01197 148.712C9.3155 150.685 10.5295 151.761 11.6222 151.761C12.7148 151.761 16.8313 151.761 16.8313 151.761C16.8313 151.761 17.6357 150.373 15.6932 149.954C13.7508 149.536 13.0184 147.218 13.1397 145.066C13.2612 142.914 12.9576 140.045 12.9576 140.045L8.82992 139.089L7.98008 140.165Z" fill="#233862"/>
</g>
<g filter="url(#filter5_d_2927_4111)">
<path d="M50.083 71.7658C50.083 71.7658 33.6572 106.912 24.9162 122.333C16.1752 137.755 13.4436 142.058 13.4436 142.058C13.4436 142.058 8.43569 140.086 7.98047 138.741C7.98047 138.741 11.323 108.969 17.1767 101.712C20.4843 97.611 24.3698 85.3044 24.5519 81.0007C24.734 76.6972 28.5714 66.4253 28.5714 66.4253L50.083 71.7658Z" fill="#2A4E96"/>
</g>
<path d="M54.8839 73.4232C54.8839 73.4232 48.3517 77.7905 39.1069 77.3849C35.0496 77.2076 27.0015 76.0573 25.7025 72.8305C25.3976 72.0729 25.6213 71.1114 26.0786 69.6357C27.266 65.8001 30.0335 58.4963 29.1978 42.3018C29.1198 40.7952 29.1622 39.3783 29.3065 38.0519C30.1772 30.0751 34.7484 25.3511 39.1668 23.8076C49.942 20.0414 53.5342 25.2593 53.5342 25.2593C53.5342 25.2593 58.2971 29.0328 59.0151 36.9082C60.4498 52.661 54.8839 73.4232 54.8839 73.4232Z" fill="#F99746"/>
<path d="M42.3281 22.9028C42.3281 22.9028 47.2722 25.91 52.6349 25.0596C52.6349 25.0596 53.695 24.79 53.1738 23.5454C53.5006 22.5409 53.461 22.6313 53.6498 21.8848C54.1201 20.1669 54.2637 19.1758 54.2637 19.1758L51.2206 15.977L48.3382 12.9203C47.542 20.2263 42.3281 22.9028 42.3281 22.9028Z" fill="#FFB27D"/>
<path d="M47.875 15.6912C47.875 15.6912 49.5312 20.1179 53.6482 21.8849C54.1186 20.1671 54.4245 18.3699 54.4245 18.3699L51.219 15.9772L47.875 15.6912Z" fill="#ED985F"/>
<path d="M57.6786 19.0212C57.6786 19.0212 48.2412 20.201 47.5786 14.4012C46.9161 8.60156 45.252 4.84789 51.2496 3.84934C57.2472 2.85092 58.6727 4.93546 59.372 6.81878C60.071 8.70236 60.1163 18.5649 57.6786 19.0212Z" fill="#FFB27D"/>
<path d="M44.5978 2.9067C44.5163 2.8059 44.3229 2.71972 43.8867 2.67927C43.8867 2.67927 44.2443 2.47402 44.712 2.48007C44.8263 1.87577 45.1903 0.812209 46.2462 0.590323C46.2462 0.590323 45.6728 0.868655 45.5749 1.51214C46.8334 0.313625 49.4635 -0.49391 56.6303 0.345376C66.0756 1.4514 62.724 7.39897 61.4702 8.07572C60.2164 8.75247 57.2043 6.65331 54.9123 6.74831C52.6204 6.84319 52.0609 10.1289 51.2686 10.5526C50.4764 10.9765 50.8114 10.1868 49.7805 9.67302C48.7495 9.15919 48.5842 10.8936 48.8442 12.035C49.1044 13.1766 47.607 14.6126 47.607 14.6126C47.607 14.6126 47.607 14.6126 46.2101 12.9891C44.813 11.3656 43.6917 4.6702 44.4073 3.27916C44.4706 3.15631 44.5332 3.03169 44.5978 2.9067Z" fill="#2C3A64"/>
<g filter="url(#filter6_d_2927_4111)">
<path d="M73.42 12.1636L57.3984 12.3063L57.2891 9.89603L73.2608 8.6582L73.42 12.1636Z" fill="#2A4E96"/>
</g>
<g filter="url(#filter7_d_2927_4111)">
<path d="M85.5177 12.5661L68.0741 12.8184L67.875 8.43596L85.269 7.08813L85.5177 12.5661Z" fill="#2A4E96"/>
</g>
<g filter="url(#filter8_d_2927_4111)">
<path d="M97.2754 12.9101L82.5656 12.9284L82.2969 7.01216L96.9469 5.6792L97.2754 12.9101Z" fill="#233862"/>
</g>
<g filter="url(#filter9_d_2927_4111)">
<path d="M97.49 13.9088C97.9439 13.8881 98.2951 13.5035 98.2745 13.0498L97.9292 5.45002C97.9087 4.99616 97.524 4.645 97.0703 4.66566C96.6165 4.68633 96.2654 5.07088 96.286 5.52473L96.6311 13.1244C96.6516 13.5781 97.0362 13.9294 97.49 13.9088Z" fill="#233862"/>
</g>
<g filter="url(#filter10_d_2927_4111)">
<path d="M57.3501 12.8208C56.9468 12.8392 56.6049 12.527 56.5865 12.1237L56.4969 10.1517C56.4785 9.7482 56.7907 9.40636 57.194 9.38809C57.5974 9.36982 57.9393 9.68192 57.9577 10.0852L58.0472 12.0573C58.0656 12.4607 57.7534 12.8026 57.3501 12.8208Z" fill="#2A4E96"/>
</g>
<path d="M26.082 69.6358C27.2694 65.8002 30.0369 58.4964 29.2012 42.3019C29.1232 40.7953 29.1656 39.3784 29.3099 38.052L29.311 38.0522C32.8571 37.7474 38.2777 41.581 38.2777 41.581C38.2777 41.581 34.9395 61.9344 26.082 69.6358Z" fill="#ED7D2B"/>
<path d="M42.3246 22.9028C42.3246 22.9028 33.2319 24.4659 28.4894 30.2557C23.7469 36.0455 16.1182 44.2093 14.3147 47.068C12.5111 49.9268 7.50391 69.3822 7.50391 69.3822C7.50391 69.3822 7.83439 70.0076 9.2153 70.3718C10.537 70.7202 11.496 70.18 11.496 70.18C11.496 70.18 18.1299 58.8263 20.6265 53.1543C21.6637 50.7977 39.6039 41.465 46.3484 42.4319C48.9972 42.8117 42.3246 22.9028 42.3246 22.9028Z" fill="#F99746"/>
<path d="M73.3242 7.96795C73.3242 7.96795 75.2799 9.16432 76.4498 8.65817C77.6196 8.15203 77.5164 7.6886 77.5164 7.6886C77.5164 7.6886 73.9823 6.70795 73.3242 7.96795Z" fill="#FFB27D"/>
<path d="M51.1485 29.2457C51.1485 29.2457 47.1581 54.44 18.8458 61.7752L15.7617 67.8603L21.1796 68.7772C21.1796 68.7772 53.4123 59.4389 52.9781 28.8002L51.1485 29.2457Z" fill="#BC3F3F"/>
<path d="M50.5295 25.2244L49.2227 25.3524V27.2441L51.148 29.2458L52.9787 28.8002V26.1749L51.6628 25.2244H50.5295Z" fill="#A02E2E"/>
<path d="M45.403 20.2141C45.403 20.2141 44.1381 20.4995 41.2461 22.9028C41.2461 22.9028 44.1222 29.0082 50.1905 29.7393C50.1905 29.7393 50.0926 26.906 50.5312 25.2242C50.5312 25.2242 45.7217 23.5026 45.403 20.2141Z" fill="#ED7D2B"/>
<path d="M50.5312 25.2244C50.5312 25.2244 53.4924 26.7963 53.7116 29.2458C53.7116 29.2458 54.8435 27.4524 54.5153 26.2106C54.187 24.9686 53.1722 23.5457 53.1722 23.5457C53.1722 23.5457 53.2729 25.0415 50.5312 25.2244Z" fill="#ED7D2B"/>
<defs>
<filter id="filter0_d_2927_4111" x="37.6853" y="13.843" width="47.4224" height="39.6137" filterUnits="userSpaceOnUse" color-interpolation-filters="sRGB">
<feFlood flood-opacity="0" result="BackgroundImageFix"/>
<feColorMatrix in="SourceAlpha" type="matrix" values="0 0 0 0 0 0 0 0 0 0 0 0 0 0 0 0 0 0 127 0" result="hardAlpha"/>
<feOffset dy="5.59988"/>
<feGaussianBlur stdDeviation="2.79994"/>
<feComposite in2="hardAlpha" operator="out"/>
<feColorMatrix type="matrix" values="0 0 0 0 0 0 0 0 0 0 0 0 0 0 0 0 0 0 0.25 0"/>
<feBlend mode="normal" in2="BackgroundImageFix" result="effect1_dropShadow_2927_4111"/>
<feBlend mode="normal" in="SourceGraphic" in2="effect1_dropShadow_2927_4111" result="shape"/>
</filter>
<filter id="filter1_d_2927_4111" x="48.697" y="33.9088" width="33.1646" height="19.5479" filterUnits="userSpaceOnUse" color-interpolation-filters="sRGB">
<feFlood flood-opacity="0" result="BackgroundImageFix"/>
<feColorMatrix in="SourceAlpha" type="matrix" values="0 0 0 0 0 0 0 0 0 0 0 0 0 0 0 0 0 0 127 0" result="hardAlpha"/>
<feOffset dy="5.59988"/>
<feGaussianBlur stdDeviation="2.79994"/>
<feComposite in2="hardAlpha" operator="out"/>
<feColorMatrix type="matrix" values="0 0 0 0 0 0 0 0 0 0 0 0 0 0 0 0 0 0 0.25 0"/>
<feBlend mode="normal" in2="BackgroundImageFix" result="effect1_dropShadow_2927_4111"/>
<feBlend mode="normal" in="SourceGraphic" in2="effect1_dropShadow_2927_4111" result="shape"/>
</filter>
<filter id="filter2_d_2927_4111" x="37.1228" y="144.039" width="25.9185" height="18.9074" filterUnits="userSpaceOnUse" color-interpolation-filters="sRGB">
<feFlood flood-opacity="0" result="BackgroundImageFix"/>
<feColorMatrix in="SourceAlpha" type="matrix" values="0 0 0 0 0 0 0 0 0 0 0 0 0 0 0 0 0 0 127 0" result="hardAlpha"/>
<feOffset dy="5.59988"/>
<feGaussianBlur stdDeviation="2.79994"/>
<feComposite in2="hardAlpha" operator="out"/>
<feColorMatrix type="matrix" values="0 0 0 0 0 0 0 0 0 0 0 0 0 0 0 0 0 0 0.25 0"/>
<feBlend mode="normal" in2="BackgroundImageFix" result="effect1_dropShadow_2927_4111"/>
<feBlend mode="normal" in="SourceGraphic" in2="effect1_dropShadow_2927_4111" result="shape"/>
</filter>
<filter id="filter3_d_2927_4111" x="29.7009" y="67.2854" width="29.0201" height="90.7628" filterUnits="userSpaceOnUse" color-interpolation-filters="sRGB">
<feFlood flood-opacity="0" result="BackgroundImageFix"/>
<feColorMatrix in="SourceAlpha" type="matrix" values="0 0 0 0 0 0 0 0 0 0 0 0 0 0 0 0 0 0 127 0" result="hardAlpha"/>
<feOffset dy="5.59988"/>
<feGaussianBlur stdDeviation="2.79994"/>
<feComposite in2="hardAlpha" operator="out"/>
<feColorMatrix type="matrix" values="0 0 0 0 0 0 0 0 0 0 0 0 0 0 0 0 0 0 0.25 0"/>
<feBlend mode="normal" in2="BackgroundImageFix" result="effect1_dropShadow_2927_4111"/>
<feBlend mode="normal" in="SourceGraphic" in2="effect1_dropShadow_2927_4111" result="shape"/>
</filter>
<filter id="filter4_d_2927_4111" x="0.314179" y="139.089" width="22.2818" height="23.8716" filterUnits="userSpaceOnUse" color-interpolation-filters="sRGB">
<feFlood flood-opacity="0" result="BackgroundImageFix"/>
<feColorMatrix in="SourceAlpha" type="matrix" values="0 0 0 0 0 0 0 0 0 0 0 0 0 0 0 0 0 0 127 0" result="hardAlpha"/>
<feOffset dy="5.59988"/>
<feGaussianBlur stdDeviation="2.79994"/>
<feComposite in2="hardAlpha" operator="out"/>
<feColorMatrix type="matrix" values="0 0 0 0 0 0 0 0 0 0 0 0 0 0 0 0 0 0 0.25 0"/>
<feBlend mode="normal" in2="BackgroundImageFix" result="effect1_dropShadow_2927_4111"/>
<feBlend mode="normal" in="SourceGraphic" in2="effect1_dropShadow_2927_4111" result="shape"/>
</filter>
<filter id="filter5_d_2927_4111" x="2.38059" y="66.4253" width="53.3013" height="86.8327" filterUnits="userSpaceOnUse" color-interpolation-filters="sRGB">
<feFlood flood-opacity="0" result="BackgroundImageFix"/>
<feColorMatrix in="SourceAlpha" type="matrix" values="0 0 0 0 0 0 0 0 0 0 0 0 0 0 0 0 0 0 127 0" result="hardAlpha"/>
<feOffset dy="5.59988"/>
<feGaussianBlur stdDeviation="2.79994"/>
<feComposite in2="hardAlpha" operator="out"/>
<feColorMatrix type="matrix" values="0 0 0 0 0 0 0 0 0 0 0 0 0 0 0 0 0 0 0.25 0"/>
<feBlend mode="normal" in2="BackgroundImageFix" result="effect1_dropShadow_2927_4111"/>
<feBlend mode="normal" in="SourceGraphic" in2="effect1_dropShadow_2927_4111" result="shape"/>
</filter>
<filter id="filter6_d_2927_4111" x="51.6892" y="8.6582" width="27.3326" height="14.8478" filterUnits="userSpaceOnUse" color-interpolation-filters="sRGB">
<feFlood flood-opacity="0" result="BackgroundImageFix"/>
<feColorMatrix in="SourceAlpha" type="matrix" values="0 0 0 0 0 0 0 0 0 0 0 0 0 0 0 0 0 0 127 0" result="hardAlpha"/>
<feOffset dy="5.59988"/>
<feGaussianBlur stdDeviation="2.79994"/>
<feComposite in2="hardAlpha" operator="out"/>
<feColorMatrix type="matrix" values="0 0 0 0 0 0 0 0 0 0 0 0 0 0 0 0 0 0 0.25 0"/>
<feBlend mode="normal" in2="BackgroundImageFix" result="effect1_dropShadow_2927_4111"/>
<feBlend mode="normal" in="SourceGraphic" in2="effect1_dropShadow_2927_4111" result="shape"/>
</filter>
<filter id="filter7_d_2927_4111" x="62.2751" y="7.08813" width="28.8443" height="16.93" filterUnits="userSpaceOnUse" color-interpolation-filters="sRGB">
<feFlood flood-opacity="0" result="BackgroundImageFix"/>
<feColorMatrix in="SourceAlpha" type="matrix" values="0 0 0 0 0 0 0 0 0 0 0 0 0 0 0 0 0 0 127 0" result="hardAlpha"/>
<feOffset dy="5.59988"/>
<feGaussianBlur stdDeviation="2.79994"/>
<feComposite in2="hardAlpha" operator="out"/>
<feColorMatrix type="matrix" values="0 0 0 0 0 0 0 0 0 0 0 0 0 0 0 0 0 0 0.25 0"/>
<feBlend mode="normal" in2="BackgroundImageFix" result="effect1_dropShadow_2927_4111"/>
<feBlend mode="normal" in="SourceGraphic" in2="effect1_dropShadow_2927_4111" result="shape"/>
</filter>
<filter id="filter8_d_2927_4111" x="76.697" y="5.6792" width="26.1802" height="18.4489" filterUnits="userSpaceOnUse" color-interpolation-filters="sRGB">
<feFlood flood-opacity="0" result="BackgroundImageFix"/>
<feColorMatrix in="SourceAlpha" type="matrix" values="0 0 0 0 0 0 0 0 0 0 0 0 0 0 0 0 0 0 127 0" result="hardAlpha"/>
<feOffset dy="5.59988"/>
<feGaussianBlur stdDeviation="2.79994"/>
<feComposite in2="hardAlpha" operator="out"/>
<feColorMatrix type="matrix" values="0 0 0 0 0 0 0 0 0 0 0 0 0 0 0 0 0 0 0.25 0"/>
<feBlend mode="normal" in2="BackgroundImageFix" result="effect1_dropShadow_2927_4111"/>
<feBlend mode="normal" in="SourceGraphic" in2="effect1_dropShadow_2927_4111" result="shape"/>
</filter>
<filter id="filter9_d_2927_4111" x="90.6853" y="4.66479" width="13.188" height="20.4446" filterUnits="userSpaceOnUse" color-interpolation-filters="sRGB">
<feFlood flood-opacity="0" result="BackgroundImageFix"/>
<feColorMatrix in="SourceAlpha" type="matrix" values="0 0 0 0 0 0 0 0 0 0 0 0 0 0 0 0 0 0 127 0" result="hardAlpha"/>
<feOffset dy="5.59988"/>
<feGaussianBlur stdDeviation="2.79994"/>
<feComposite in2="hardAlpha" operator="out"/>
<feColorMatrix type="matrix" values="0 0 0 0 0 0 0 0 0 0 0 0 0 0 0 0 0 0 0.25 0"/>
<feBlend mode="normal" in2="BackgroundImageFix" result="effect1_dropShadow_2927_4111"/>
<feBlend mode="normal" in="SourceGraphic" in2="effect1_dropShadow_2927_4111" result="shape"/>
</filter>
<filter id="filter10_d_2927_4111" x="50.8962" y="9.38733" width="12.7505" height="14.6341" filterUnits="userSpaceOnUse" color-interpolation-filters="sRGB">
<feFlood flood-opacity="0" result="BackgroundImageFix"/>
<feColorMatrix in="SourceAlpha" type="matrix" values="0 0 0 0 0 0 0 0 0 0 0 0 0 0 0 0 0 0 127 0" result="hardAlpha"/>
<feOffset dy="5.59988"/>
<feGaussianBlur stdDeviation="2.79994"/>
<feComposite in2="hardAlpha" operator="out"/>
<feColorMatrix type="matrix" values="0 0 0 0 0 0 0 0 0 0 0 0 0 0 0 0 0 0 0.25 0"/>
<feBlend mode="normal" in2="BackgroundImageFix" result="effect1_dropShadow_2927_4111"/>
<feBlend mode="normal" in="SourceGraphic" in2="effect1_dropShadow_2927_4111" result="shape"/>
</filter>
</defs>
</svg>
