<svg width="150" height="175" viewBox="0 0 150 175" fill="none" xmlns="http://www.w3.org/2000/svg">
<path d="M60.8023 146.733L10.9986 174.525C10.7592 174.659 10.4492 174.505 10.4492 174.252V57.1146C10.4492 57.0033 10.5133 56.9004 10.6184 56.8417L60.4222 29.0493C60.6616 28.9158 60.9715 29.0698 60.9715 29.3222V146.46C60.9719 146.571 60.9078 146.674 60.8023 146.733Z" fill="#040025"/>
<path d="M10.4492 57.1146V74.1149C21.372 65.2765 35.7106 59.9968 45.3406 65.8694C66.8723 78.9997 49.6462 151.562 49.4648 153.06L60.8027 146.733C60.9078 146.674 60.9719 146.571 60.9719 146.46V29.3222C60.9719 29.0699 60.6619 28.9154 60.4225 29.0494L10.6184 56.8414C10.5133 56.9 10.4492 57.0034 10.4492 57.1146Z" fill="#0A0744"/>
<path d="M43.5813 43.7521C46.4559 42.459 50.0116 41.0762 53.2149 41.9269C59.4779 43.5901 59.9678 52.1786 60.1975 57.4044C60.2792 59.2573 60.3588 61.1081 60.4355 62.9588C60.6497 64.5032 60.8293 66.0484 60.9715 67.5946V29.3222C60.9715 29.0699 60.6616 28.9154 60.4222 29.0494L10.6184 56.8414C10.5133 56.9 10.4492 57.0034 10.4492 57.1142V66.4472C17.8948 60.0353 25.952 54.4499 34.2039 49.1168C37.2262 47.1646 40.2934 45.2314 43.5813 43.7521Z" fill="#1B1B5E"/>
<path d="M74.7489 83.4141C74.7489 83.4141 86.9598 91.0148 89.1403 91.0818C91.3209 91.1487 107.466 85.7718 108.627 84.6979C109.787 83.624 106.57 75.2173 104.641 76.0024C101.606 77.2372 89.2318 82.7906 89.2318 82.7906L76.6252 72.0194C72.7523 75.1996 74.7489 83.4141 74.7489 83.4141Z" fill="#ECB524"/>
<path d="M108.626 84.6979C107.991 84.9751 106.623 83.2446 105.571 80.8326C104.519 78.4206 104.182 76.2404 104.817 75.9632C105.453 75.686 106.821 77.4166 107.873 79.8286C108.925 82.2406 109.262 84.4207 108.626 84.6979Z" fill="#C68D1A"/>
<path d="M105.895 78.1984C107.811 76.2094 108.894 72.4622 109.713 72.2386C110.129 72.1252 110.363 76.0636 110.363 76.0636C110.363 76.0636 113.224 76.1111 116.12 75.1269C117.444 74.6769 118.419 78.0684 115.933 80.0693C114.224 81.4449 110.809 82.8611 108.685 82.7895C106.849 82.7276 104.856 79.2773 105.895 78.1984Z" fill="#DB8262"/>
<path d="M109.668 81.8124C107.928 80.9866 106.883 79.2996 106.505 77.4708C106.311 77.7297 106.109 77.9763 105.895 78.1984C104.856 79.2769 106.849 82.7272 108.685 82.7895C109.506 82.8172 110.519 82.6213 111.552 82.293C110.91 82.2459 110.278 82.1026 109.668 81.8124Z" fill="#C66446"/>
<path d="M112.129 76.4448C112.129 76.4448 113.369 78.1487 113.154 80.9013" stroke="#B74C34" stroke-width="0.270001" stroke-miterlimit="10" stroke-linecap="round" stroke-linejoin="round"/>
<path d="M112.801 77.3996C112.801 77.3996 115.113 77.2794 116.919 75.7051" stroke="#B74C34" stroke-width="0.270001" stroke-miterlimit="10" stroke-linecap="round" stroke-linejoin="round"/>
<path d="M113.258 78.7319C113.258 78.7319 116.093 78.1213 117.304 76.8523" stroke="#B74C34" stroke-width="0.270001" stroke-miterlimit="10" stroke-linecap="round" stroke-linejoin="round"/>
<path d="M108.148 80.3008C108.303 79.7086 108.905 79.2669 109.516 79.2964" stroke="#B74C34" stroke-width="0.270001" stroke-miterlimit="10" stroke-linecap="round" stroke-linejoin="round"/>
<path d="M109.711 72.2386C109.711 72.2386 110.378 73.1131 110.361 76.0636C110.361 76.0636 113.202 76.2112 116.271 75.0931" stroke="#B74C34" stroke-width="0.270001" stroke-miterlimit="10" stroke-linecap="round" stroke-linejoin="round"/>
<path d="M113.219 80.2738C113.219 80.2738 116.305 79.4404 117.387 77.7732" stroke="#B74C34" stroke-width="0.270001" stroke-miterlimit="10" stroke-linecap="round" stroke-linejoin="round"/>
<path d="M67.2267 98.4575C66.1575 99.7557 60.3028 100.419 56.6376 99.5947C53.6032 98.9118 47.7805 95.8983 46.7581 93.2357C45.7425 90.5904 48.1906 69.7799 50.8862 67.1757C52.9098 65.2209 63.1868 65.524 66.7181 66.3088C70.2493 67.0936 78.039 71.9223 78.4307 74.6989C78.9545 78.4116 69.0314 96.2727 67.2267 98.4575Z" fill="#FAEBED"/>
<mask id="mask0_2927_5581" style="mask-type:luminance" maskUnits="userSpaceOnUse" x="46" y="65" width="33" height="35">
<path d="M67.2189 98.4575C66.1497 99.7557 60.295 100.419 56.6298 99.5947C53.5954 98.9118 47.7727 95.8983 46.7503 93.2357C45.7347 90.5904 48.1827 69.7799 50.8784 67.1757C52.902 65.2209 63.179 65.524 66.7102 66.3088C70.2415 67.0936 78.0312 71.9223 78.4229 74.6989C78.9467 78.4116 69.0236 96.2727 67.2189 98.4575Z" fill="white"/>
</mask>
<g mask="url(#mask0_2927_5581)">
<path d="M81.6486 72.121L44.6172 63.7855L44.3959 64.7686L81.4273 73.104L81.6486 72.121Z" fill="#E8DFE1"/>
<path d="M80.8439 75.6799L43.8125 67.3445L43.5912 68.3275L80.6226 76.663L80.8439 75.6799Z" fill="#E8DFE1"/>
<path d="M79.9884 79.4912L42.957 71.1558L42.7358 72.1388L79.7671 80.4742L79.9884 79.4912Z" fill="#E8DFE1"/>
<path d="M79.1876 83.0506L42.1562 74.7152L41.935 75.6983L78.9663 84.0337L79.1876 83.0506Z" fill="#E8DFE1"/>
<path d="M78.3868 86.6096L41.3555 78.2742L41.1342 79.2572L78.1655 87.5927L78.3868 86.6096Z" fill="#E8DFE1"/>
<path d="M77.5861 90.1687L40.5547 81.8333L40.3334 82.8163L77.3648 91.1517L77.5861 90.1687Z" fill="#E8DFE1"/>
<path d="M76.9142 93.1522L39.8828 84.8168L39.6615 85.7998L76.6929 94.1353L76.9142 93.1522Z" fill="#E8DFE1"/>
<path d="M76.1134 96.7113L39.082 88.3759L38.8608 89.3589L75.8921 97.6943L76.1134 96.7113Z" fill="#E8DFE1"/>
<path d="M75.3126 100.27L38.2812 91.9347L38.06 92.9177L75.0913 101.253L75.3126 100.27Z" fill="#E8DFE1"/>
</g>
<path d="M75.1746 84.0221C72.5031 89.6691 69.8513 94.6086 67.2305 98.4577" stroke="#CCCACB" stroke-width="0.360001" stroke-miterlimit="10" stroke-linecap="round" stroke-linejoin="round"/>
<path d="M49.6268 80.5865L48.5 94.8073" stroke="#CCCACB" stroke-width="0.360001" stroke-miterlimit="10" stroke-linecap="round" stroke-linejoin="round"/>
<path d="M54.3404 76.3616C54.0859 76.4591 53.8169 76.539 53.543 76.5916L54.3404 76.3616Z" fill="#ECB524"/>
<path d="M57.3465 72.8652C56.9765 74.509 55.8212 75.773 54.3632 76.3486C54.3553 76.3504 54.3467 76.3562 54.338 76.3616L53.5406 76.5916L36.5104 81.5445C36.5104 81.5445 29.9724 93.4274 28.2912 96.2408C27.2248 98.0267 19.5953 93.2502 19.8747 91.6968C20.1551 90.1398 29.8107 76.1286 31.5924 74.8694C33.374 73.6097 50.8888 67.1758 50.8888 67.1758C50.8888 67.1758 50.896 67.1772 50.909 67.1841C51.7568 66.8766 52.7 66.801 53.6446 67.0138C56.2827 67.6074 57.9402 70.2275 57.3465 72.8652Z" fill="#ECB524"/>
<path d="M28.2011 96.4273C27.8584 97.0303 25.7171 96.46 23.4177 95.154C21.1184 93.8479 19.5322 92.2999 19.8746 91.6969C20.217 91.0939 22.3586 91.6641 24.6583 92.9702C26.9573 94.2766 28.5438 95.8243 28.2011 96.4273Z" fill="#C68D1A"/>
<path d="M54.3649 76.3486C54.357 76.3504 54.3483 76.3562 54.3397 76.3616L53.5423 76.5916L36.512 81.5445C36.512 81.5445 33.6133 86.8128 31.1797 91.1641" stroke="#C68D1A" stroke-width="0.360001" stroke-miterlimit="10" stroke-linecap="round" stroke-linejoin="round"/>
<path d="M25.9681 95.2418C25.9187 97.8417 26.5941 101.285 25.1087 102.446C24.4762 102.941 23.6849 99.6359 23.6849 99.6359C23.6849 99.6359 22.3526 103.005 20.5111 104.201C19.3386 104.963 17.2758 103.786 17.0566 100.271C16.9198 98.0818 19.2375 94.4757 20.9763 93.2549C22.48 92.1994 25.9965 93.7445 25.9681 95.2418Z" fill="#DB8262"/>
<path d="M25.9711 95.1866C26.0567 93.7171 22.4621 92.2123 20.9771 93.2549C20.3475 93.6969 19.7006 94.3986 19.1055 95.2126C21.0646 94.0188 23.635 94.1768 25.9711 95.1866Z" fill="#C66446"/>
<path d="M21.8572 98.2107C21.8572 98.2107 20.2541 100.677 20.8723 103.534C20.9036 103.71 21.3406 104.666 23.6828 99.6359C23.6828 99.6359 24.2718 102.873 25.1066 102.446" stroke="#B74C34" stroke-width="0.270001" stroke-miterlimit="10" stroke-linecap="round" stroke-linejoin="round"/>
<path d="M20.0165 97.7949C20.0165 97.7949 18.6374 102.639 19.8632 104.419" stroke="#B74C34" stroke-width="0.270001" stroke-miterlimit="10" stroke-linecap="round" stroke-linejoin="round"/>
<path d="M18.5396 97.7288C18.5396 97.7288 17.2721 102.137 18.7247 104.077" stroke="#B74C34" stroke-width="0.270001" stroke-miterlimit="10" stroke-linecap="round" stroke-linejoin="round"/>
<path d="M77.2394 82.9564L75.1953 83.9367" stroke="#C68D1A" stroke-width="0.360001" stroke-miterlimit="10" stroke-linecap="round" stroke-linejoin="round"/>
<path d="M61.7293 158.813C60.0928 158.765 58.2215 158.303 56.6663 157.524C56.1255 159.985 55.1888 164.281 55.0664 165.457L67.475 168.933C69.1382 165.303 61.7117 161.455 60.8844 161.165L61.7293 158.813Z" fill="#BD4E92"/>
<path d="M67.5398 168.932C67.3698 169.317 66.9195 169.492 66.5343 169.322L55.4592 166.463C55.0736 166.293 54.899 165.843 55.0689 165.457L67.5398 168.932Z" fill="#ECB524"/>
<path d="M61.8267 161.607L60.3867 162.62" stroke="#3F4C89" stroke-width="0.360001" stroke-miterlimit="10" stroke-linecap="round" stroke-linejoin="round"/>
<path d="M63.022 162.361L61.582 163.373" stroke="#3F4C89" stroke-width="0.360001" stroke-miterlimit="10" stroke-linecap="round" stroke-linejoin="round"/>
<path d="M56.668 157.524C58.2235 158.303 60.0948 158.764 61.731 158.813C64.4562 152.352 70.8304 134.539 71.1868 131.055C71.5368 127.633 68.7467 99.8544 67.2218 98.4576C66.7653 99.0117 65.4358 99.4494 63.778 99.7058C63.7816 99.705 63.7856 99.7047 63.7895 99.7043C64.0548 100.886 58.5263 108.7 53.3477 115.394C55.0227 120.089 59.1109 127.807 58.5835 130.692C57.4232 137.04 56.7328 150.886 56.668 157.524Z" fill="#535C99"/>
<path d="M61.5863 159.464L56.574 158.336C56.1942 158.25 55.9552 157.873 56.0408 157.493L56.1323 157.087C56.218 156.707 56.5952 156.468 56.975 156.554L61.9874 157.682C62.3675 157.767 62.6062 158.145 62.5205 158.525L62.4291 158.931C62.3438 159.311 61.9665 159.55 61.5863 159.464Z" fill="#9AA4D8"/>
<path d="M9.31581 132.696C8.43488 131.316 7.76348 129.509 7.532 127.785C5.19342 128.723 1.66649 129.663 0.625 130.223L4.18254 143.14C8.11916 142.472 7.12123 134.168 6.89551 133.321L9.31581 132.696Z" fill="#BD4E92"/>
<path d="M4.21866 143.191C3.8043 143.268 3.4065 142.994 3.33018 142.58L0.0127577 131.112C-0.0635627 130.698 0.210401 130.3 0.624403 130.224L4.21866 143.191Z" fill="#ECB524"/>
<path d="M7.11772 135.055L5.53516 134.284" stroke="#3F4C89" stroke-width="0.360001" stroke-miterlimit="10" stroke-linecap="round" stroke-linejoin="round"/>
<path d="M7.03179 136.465L5.44922 135.694" stroke="#3F4C89" stroke-width="0.360001" stroke-miterlimit="10" stroke-linecap="round" stroke-linejoin="round"/>
<path d="M63.7845 99.7042C61.5568 100.051 58.7319 100.068 56.6277 99.5948C53.5932 98.9118 47.7706 95.8983 46.7482 93.2357C46.7482 93.2357 43.3735 95.5988 41.4957 98.0424C39.2882 100.916 34.9916 116.456 34.9916 116.456C26.9347 116.172 17.4822 122.219 8.49219 127.251C8.61315 127.338 8.70891 127.461 8.75607 127.614L10.2695 132.524C10.2774 132.55 10.2803 132.575 10.285 132.601C19.0053 131.174 41.9115 127.561 45.0504 125.173C47.7886 123.092 64.2378 101.722 63.7845 99.7042Z" fill="#535C99"/>
<path d="M18.3735 123.849C19.0618 122.704 19.8438 121.594 20.6988 120.533C16.6484 122.535 12.5238 124.995 8.49219 127.252C8.61315 127.338 8.70891 127.461 8.75607 127.614L10.2695 132.524C10.2774 132.55 10.2803 132.576 10.285 132.601C11.7822 132.356 13.6978 132.046 15.8596 131.69C16.0717 128.917 16.9342 126.242 18.3735 123.849Z" fill="#46528C"/>
<path d="M42.875 103.013C42.875 103.013 45.9955 108.696 51.7876 99.1149" stroke="#3F4C89" stroke-width="0.360001" stroke-miterlimit="10" stroke-linecap="round" stroke-linejoin="round"/>
<path d="M47.1171 96.6389C47.1171 96.6389 44.8094 99.6554 43.4047 102.018C41.4247 105.348 41.0258 109.953 39.5311 116.849C38.671 120.818 8.91797 128.097 8.91797 128.097" stroke="#3F4C89" stroke-width="0.360001" stroke-miterlimit="10" stroke-linecap="round" stroke-linejoin="round"/>
<path d="M14.7305 131.876C22.0518 130.652 41.7234 127.703 45.0491 125.174C46.3793 124.162 50.0125 119.439 54.4653 113.879C56.1735 111.746 57.3601 109.908 61.872 108.416" stroke="#9AA4D8" stroke-width="0.360001" stroke-miterlimit="10" stroke-linecap="round" stroke-linejoin="round"/>
<path d="M8.52544 133.063L7.01199 128.153C6.89715 127.781 7.10595 127.386 7.47819 127.271L7.87636 127.149C8.2486 127.034 8.64352 127.243 8.758 127.615L10.2714 132.524C10.3863 132.897 10.1775 133.292 9.80524 133.406L9.40708 133.529C9.03484 133.643 8.63992 133.435 8.52544 133.063Z" fill="#9AA4D8"/>
<path d="M46.7501 93.2359C46.7501 93.2359 49.0436 96.6019 58.0865 98.6374C65.149 100.227 67.2187 98.4577 67.2187 98.4577C67.2187 98.4577 68.9579 99.6652 68.0481 101.037C66.7255 103.032 51.1255 102.51 45.0977 94.502C45.0977 94.502 45.624 92.9825 46.7501 93.2359Z" fill="#BD4E92"/>
<path d="M63.2241 98.9185L60.3383 98.6532C59.9769 98.6201 59.6568 98.8861 59.6234 99.2475L59.452 101.112C59.4189 101.473 59.6849 101.794 60.0467 101.827L62.9325 102.092C63.2939 102.125 63.6143 101.859 63.6475 101.498L63.8188 99.6331C63.8519 99.272 63.5855 98.952 63.2241 98.9185ZM62.9771 100.828C62.944 101.19 62.624 101.456 62.2622 101.423L60.8272 101.291C60.4654 101.258 60.1994 100.938 60.2325 100.576L60.303 99.8095C60.3362 99.4481 60.6566 99.1817 61.018 99.2148L62.453 99.3465C62.8148 99.3797 63.0808 99.6997 63.0477 100.061L62.9771 100.828Z" fill="#ECB524"/>
<path d="M47.8164 93.7377C48.04 93.9177 48.0756 94.2446 47.8956 94.4685L46.2764 96.4816C46.0964 96.7052 45.7695 96.7408 45.5456 96.5608C45.322 96.3808 45.2864 96.0539 45.4664 95.83L47.0856 93.8169C47.2656 93.5933 47.5925 93.558 47.8164 93.7377Z" fill="#535C99"/>
<path d="M51.3312 96.2184C51.5814 96.3591 51.6699 96.6759 51.5292 96.9261L50.2616 99.1776C50.1209 99.4278 49.8041 99.5163 49.5539 99.3756C49.3037 99.2348 49.2151 98.918 49.3562 98.6678L50.6238 96.4167C50.7642 96.1662 51.081 96.0776 51.3312 96.2184Z" fill="#535C99"/>
<path d="M56.7749 97.9734C57.0449 98.0709 57.1842 98.369 57.0867 98.639L56.2079 101.069C56.1103 101.339 55.8123 101.478 55.5423 101.38C55.2723 101.283 55.1326 100.985 55.2305 100.715L56.1093 98.2855C56.2072 98.0155 56.5053 97.8758 56.7749 97.9734Z" fill="#535C99"/>
<path d="M66.0681 98.587C66.3478 98.5229 66.6265 98.6978 66.6906 98.9776L67.2662 101.496C67.3303 101.776 67.1553 102.054 66.8752 102.119C66.5955 102.183 66.3169 102.008 66.2528 101.728L65.6772 99.209C65.6134 98.9297 65.7884 98.651 66.0681 98.587Z" fill="#535C99"/>
<path d="M67.1971 60.6488L63.0859 65.8418C62.5758 68.1022 65.2114 71.7296 70.2129 69.6006C70.5876 68.4907 71.2507 66.0585 71.7836 64.0494C69.9904 63.0367 68.2037 61.799 67.1971 60.6488Z" fill="#C66446"/>
<path d="M65.957 65.1246C65.7756 65.1999 65.597 65.283 65.4296 65.3838C64.6239 65.867 63.8809 66.3317 63.0273 66.5247C63.1058 68.7459 65.6932 71.5254 70.2144 69.6005C70.2796 69.4076 70.3545 69.1703 70.4347 68.9064C68.5998 68.3178 66.9589 66.8843 65.957 65.1246Z" fill="#DB8262"/>
<path d="M65.8329 49.375C65.829 49.3739 65.8254 49.3725 65.821 49.3718C65.4067 49.2785 64.9956 49.2523 64.5934 49.2836C64.2907 47.7763 63.129 46.5112 61.5273 46.1505C59.3569 45.662 57.1976 47.0246 56.7083 49.1986C56.5535 49.8869 56.5834 50.5727 56.7659 51.2042C55.4332 51.6164 54.3532 52.709 54.0252 54.1666C53.536 56.3407 54.8993 58.4963 57.0734 58.9856C57.8916 59.1699 58.7099 59.0918 59.435 58.8049C59.9674 59.3747 60.6698 59.7949 61.4881 59.9792C63.318 60.391 65.1338 59.4874 65.9535 57.8923C65.3851 55.3723 65.3793 51.8626 65.8329 49.375Z" fill="#4B1812"/>
<path d="M76.048 66.0005C73.7594 65.3194 68.6528 62.6007 66.9363 60.3485C65.1763 58.0388 65.1291 50.6008 66.2995 47.6092C68.3126 42.463 74.1183 39.9254 79.2646 41.9385C83.1702 43.4663 84.8259 45.8819 85.4253 51.8241C85.7183 54.73 85.0473 58.7339 82.9672 62.4502C81.1899 65.6254 78.3365 66.6817 76.048 66.0005Z" fill="#DB8262"/>
<path d="M65.5919 51.1992C65.1156 50.7492 64.4935 50.4676 63.7721 50.4554C62.1931 50.428 60.8989 51.6859 60.864 53.2648C60.8075 55.8158 64.1155 56.7201 65.7111 56.5646C65.4774 54.8672 65.4457 52.9293 65.5919 51.1992Z" fill="#C66446"/>
<path d="M65.0083 54.9007C64.3546 54.793 63.613 54.4172 63.2865 53.8142C63.0485 53.3746 63.0391 52.9081 63.235 52.4501C63.4369 51.9778 63.8931 51.7089 64.3873 51.6502C64.7783 51.6038 65.1891 51.7204 65.5444 51.8821C65.5573 51.6517 65.5728 51.4234 65.5919 51.1988C65.1156 50.7488 64.4935 50.4673 63.7721 50.455C62.1931 50.4277 60.8989 51.6855 60.864 53.2645C60.8075 55.8151 64.1155 56.7197 65.7111 56.5642C65.6391 56.0422 65.5887 55.4965 65.5545 54.9417C65.3712 54.9471 65.1873 54.9302 65.0083 54.9007Z" fill="#DB8262"/>
<path d="M74.2892 57.3497C73.7899 58.8463 72.1717 59.6545 70.6755 59.1548C69.179 58.6555 68.3708 57.0376 68.8705 55.5411C69.3698 54.0446 70.988 53.2367 72.4842 53.7361C73.9803 54.2357 74.7889 55.8536 74.2892 57.3497Z" fill="#DB725A"/>
<path d="M81.6828 55.1576C81.1835 56.6542 81.9917 58.272 83.4879 58.7713C83.8331 58.8865 84.1845 58.9294 84.5275 58.9128C85.164 56.9832 85.4643 55.0939 85.492 53.4289C85.4275 53.4019 85.3635 53.3749 85.2961 53.3526C83.8 52.8533 82.1821 53.6615 81.6828 55.1576Z" fill="#DB725A"/>
<path d="M81.4741 52.3375C81.1706 52.1104 80.4934 51.9055 80.0877 51.9116C79.2349 51.9246 77.9929 53.7664 78.7842 53.9446C79.4088 54.085 79.3882 54.5868 79.7299 54.6638C80.0949 54.7459 81.7412 52.5373 81.4741 52.3375Z" fill="#CC6D50"/>
<path d="M78.4244 50.1045C78.4244 50.1045 78.3819 51.9095 78.9305 51.9049C79.4792 51.9002 80.5484 51.8807 81.3789 52.2577C82.073 52.5727 79.6671 54.7208 79.6671 54.7208C79.6671 54.7208 78.6108 53.1749 78.1367 54.3763" stroke="#B74C34" stroke-width="0.270001" stroke-miterlimit="10" stroke-linecap="round" stroke-linejoin="round"/>
<path d="M75.9475 49.4347C77.2259 49.3822 77.4329 52.5372 76.0724 52.4386C74.7123 52.3399 74.6691 49.4869 75.9475 49.4347Z" fill="#18203E"/>
<path d="M73.6168 48.5332C74.434 47.742 74.9949 47.5728 75.1475 47.2689C75.3657 46.8348 74.5593 46.3495 74.1287 46.3848C73.611 46.4272 73.1859 46.811 72.8716 47.2243C72.5008 47.7117 71.7358 49.0646 72.144 49.705C72.5516 50.3444 73.296 48.8439 73.6168 48.5332Z" fill="#4B1812"/>
<path d="M81.8695 48.3182C83.1346 48.1281 83.6811 51.2421 82.3185 51.2911C80.9555 51.34 80.6045 48.5086 81.8695 48.3182Z" fill="#18203E"/>
<path d="M81.7663 46.3976C80.6543 46.1572 80.0887 46.3094 79.7986 46.132C79.3838 45.8785 79.8126 45.0404 80.1971 44.8432C80.6593 44.6059 81.2227 44.7074 81.708 44.8925C82.2804 45.1106 83.6441 45.8555 83.6358 46.6154C83.6272 47.3736 82.203 46.492 81.7663 46.3976Z" fill="#4B1812"/>
<path d="M75.9727 57.4746C75.9727 57.4746 79.3102 54.5078 82.3281 56.9587C81.6938 58.2147 81.0264 60.4107 79.3693 60.4687C77.1236 60.5475 75.9727 57.4746 75.9727 57.4746Z" fill="#18203E"/>
<path d="M81.6626 56.9353C81.6626 56.9353 80.8789 56.2747 79.4032 56.4507C77.6216 56.6631 76.6953 57.4396 76.6953 57.4396C76.6953 57.4396 79.2826 59.0553 81.6626 56.9353Z" fill="#F9E8E1"/>
<path d="M78.1682 43.7298C75.1031 44.8487 72.3775 42.9357 72.3775 42.9357C70.1376 48.5596 67.1859 45.9827 67.1859 45.9827C67.299 50.7732 65.598 51.1991 65.598 51.1991C65.598 51.1991 63.4667 49.0586 62.5019 45.752C61.2225 41.3668 64.2609 40.3772 64.2609 40.3772C64.8524 37.9036 66.4897 39.5193 66.4897 39.5193C66.4897 39.5193 66.5347 37.4831 68.7033 37.0324C69.7776 36.8092 70.5995 37.2171 71.1546 37.6894C71.0693 34.5394 73.9846 31.3754 77.8254 32.1188C83.9195 33.2981 83.9393 41.6235 78.1682 43.7298Z" fill="#4B1812"/>
<path d="M66.7055 49.8054L69.6668 58.3212C70.3786 60.3681 72.0972 61.9025 74.2119 62.3784L76.2797 62.8439C79.1856 63.498 82.1503 62.0173 83.3732 59.3015L85.4112 54.7752L85.0558 62.0328C84.8632 65.9651 81.1365 68.7489 77.3111 67.8176L69.939 66.023C67.0939 65.3304 65.107 62.7603 65.1531 59.8328L65.2968 50.7378C65.2968 50.7378 65.1359 49.5905 66.7055 49.8054Z" fill="#4B1812"/>
<path d="M74.7815 59.6495C75.3849 56.9693 78.0467 55.2856 80.727 55.8886C83.4072 56.492 85.0909 59.1538 84.4875 61.834L83.7758 64.9955L84.1002 65.0686L85.1453 60.2126L85.4113 54.7748C85.4113 54.7748 82.5907 54.2078 79.6657 54.7204C76.7407 55.2331 73.3332 57.0644 70.8532 59.3558L69.5287 60.5794L69.2695 61.7303L74.0694 62.8107L74.7815 59.6495Z" fill="#4B1812"/>
<path d="M66.3047 75.8239L67.1709 70.2435C67.1709 70.2435 68.9673 70.3209 70.215 69.6006" stroke="#CCCACB" stroke-width="0.360001" stroke-miterlimit="10" stroke-linecap="round" stroke-linejoin="round"/>
<path d="M68.5237 71.5742C68.4809 71.7639 68.2926 71.8831 68.1029 71.8403C67.9132 71.7974 67.794 71.6091 67.8368 71.4194C67.8797 71.2297 68.068 71.1105 68.2577 71.1534C68.4474 71.1962 68.5666 71.3845 68.5237 71.5742Z" fill="#CCCACB"/>
<path d="M68.2503 74.3717C68.2074 74.5614 68.0192 74.6806 67.8294 74.6381C67.6397 74.5953 67.5206 74.407 67.5634 74.2173C67.6062 74.0275 67.7945 73.9084 67.9843 73.9512C68.174 73.9937 68.2931 74.182 68.2503 74.3717Z" fill="#CCCACB"/>
<path d="M119.065 57.0216H111.157L110.402 48.8049H119.821L119.065 57.0216Z" fill="#F7DD59"/>
<path d="M116.061 53.4421H114.161C106.724 53.4421 100.695 47.4135 100.695 39.9765V26.5948C100.695 19.1578 106.724 13.1292 114.161 13.1292H116.061C123.498 13.1292 129.527 19.1578 129.527 26.5948V39.9765C129.526 47.4135 123.497 53.4421 116.061 53.4421Z" fill="#F7DD59"/>
<path d="M115.814 52.5637H114.403C108.88 52.5637 104.402 48.0867 104.402 42.5633V27.5213C104.402 21.9986 108.879 17.5209 114.403 17.5209H115.814C121.337 17.5209 125.814 21.9979 125.814 27.5213V42.5633C125.814 48.086 121.337 52.5637 115.814 52.5637Z" fill="#F2CB4B"/>
<path d="M113.263 57.7105V39.6712M113.263 39.6712C112.851 38.0363 112.122 36.3563 110.694 35.4594C110.21 35.156 109.637 34.9528 109.072 35.0347C108.508 35.1165 108.058 35.5582 107.882 36.1015C107.481 37.3413 108.151 39.6712 113.263 39.6712ZM113.263 39.6712C120.846 39.6712 123.238 28.4613 120.394 28.4613C119.123 28.4613 116.914 29.5592 116.914 34.9535L117.002 57.7119" stroke="#DD9F14" stroke-width="0.705608" stroke-miterlimit="10" stroke-linecap="round" stroke-linejoin="round"/>
<path d="M125.817 21.7192C125.817 23.6349 124.263 25.1879 122.348 25.1879C120.432 25.1879 118.879 23.6349 118.879 21.7192C118.879 19.8035 120.432 18.2505 122.348 18.2505C124.263 18.2512 125.817 19.8035 125.817 21.7192Z" fill="#FFEB73"/>
<path d="M109.193 20.5014C110.753 19.7915 112.432 19.3922 114.059 18.8524C114.563 18.6859 115.072 18.4996 115.486 18.1666C115.898 17.8342 116.205 17.3255 116.165 16.797C116.121 16.2015 115.642 15.704 115.087 15.4839C114.532 15.2644 113.913 15.2778 113.319 15.3491C111.143 15.6116 109.102 16.6848 107.571 18.2413C106.786 19.0387 106.13 19.9665 105.658 20.9812C105.425 21.4815 104.529 23.2398 105.795 22.8701C106.334 22.7127 106.775 22.0114 107.215 21.6713C107.822 21.202 108.495 20.8189 109.193 20.5014Z" fill="#FFEB73"/>
<path d="M118.698 59.4257H111.525C110.905 59.4257 110.402 58.9233 110.402 58.3031V58.1443C110.402 57.5241 110.905 57.0217 111.525 57.0217H118.698C119.319 57.0217 119.821 57.5241 119.821 58.1443V58.3031C119.821 58.9226 119.319 59.4257 118.698 59.4257Z" fill="#535C99"/>
<path d="M117.205 62.4704H113.024C112.519 62.4704 112.109 62.0612 112.109 61.556V59.1386C112.109 58.6334 112.519 58.2241 113.024 58.2241H117.205C117.711 58.2241 118.12 58.6334 118.12 59.1386V61.556C118.12 62.0605 117.711 62.4704 117.205 62.4704Z" fill="#535C99"/>
<path d="M104.12 13.3121L99.9388 4.83432C99.8527 4.66004 99.6318 4.60218 99.4716 4.71296L96.5638 6.71686C96.3909 6.83611 96.3782 7.08659 96.5384 7.22277L103.909 13.4772C104.022 13.5725 104.185 13.4455 104.12 13.3121Z" fill="#FFEB73"/>
<path d="M105.265 1.7712L108.279 12.2247C108.337 12.4243 108.627 12.4011 108.652 12.1943L109.901 1.71193C109.927 1.49038 109.755 1.29492 109.532 1.29492H105.623C105.375 1.29492 105.196 1.53271 105.265 1.7712Z" fill="#FFEB73"/>
<path d="M130.014 21.0021L138.962 17.9503C139.146 17.8875 139.343 18.0026 139.378 18.1938L140.022 21.666C140.06 21.8728 139.892 22.059 139.683 22.0421L130.048 21.2667C129.9 21.2554 129.874 21.05 130.014 21.0021Z" fill="#FFEB73"/>
<path d="M137.355 12.0194L127.839 17.2931C127.657 17.394 127.469 17.1724 127.597 17.0087L134.114 8.70379C134.252 8.5281 134.512 8.51257 134.67 8.66992L137.437 11.4295C137.613 11.6045 137.572 11.8995 137.355 12.0194Z" fill="#FFEB73"/>
<path d="M100.859 48.105L92.9859 53.3384C92.8244 53.4457 92.7954 53.6722 92.9253 53.8168L95.2856 56.4438C95.426 56.5997 95.6758 56.58 95.7901 56.4043L101.048 48.2927C101.129 48.1685 100.982 48.0232 100.859 48.105Z" fill="#FFEB73"/>
<path d="M89.2721 48.4459L99.2531 44.1156C99.4436 44.0331 99.3829 43.748 99.1755 43.7501L88.6187 43.8553C88.3957 43.8574 88.2243 44.0543 88.2532 44.2758L88.7542 48.1517C88.7859 48.3979 89.0442 48.5447 89.2721 48.4459Z" fill="#FFEB73"/>
<path d="M85 16.2416L97.9417 22.9215" stroke="#F2CB4B" stroke-width="0.705608" stroke-miterlimit="10" stroke-linecap="round" stroke-linejoin="round"/>
<path d="M85 29.7426H96.9581" stroke="#F2CB4B" stroke-width="0.705608" stroke-miterlimit="10" stroke-linecap="round" stroke-linejoin="round"/>
<path d="M148.792 34.3213L134.273 35.4757" stroke="#F2CB4B" stroke-width="0.705608" stroke-miterlimit="10" stroke-linecap="round" stroke-linejoin="round"/>
<path d="M143.574 46.7716L132.547 42.1464" stroke="#F2CB4B" stroke-width="0.705608" stroke-miterlimit="10" stroke-linecap="round" stroke-linejoin="round"/>
<path d="M123.855 12.6579L126.513 1" stroke="#F2CB4B" stroke-width="0.705608" stroke-miterlimit="10" stroke-linecap="round" stroke-linejoin="round"/>
<path d="M117.584 10.2462L117.008 2.63989" stroke="#F2CB4B" stroke-width="0.705608" stroke-miterlimit="10" stroke-linecap="round" stroke-linejoin="round"/>
</svg>
