<svg width="258" height="162" viewBox="0 0 258 162" fill="none" xmlns="http://www.w3.org/2000/svg">
<path d="M15.4907 22.3309C15.4907 22.3309 5.79361 25.1303 3.8227 38.0394C2.56125 46.1749 6.26642 53.5146 6.26642 58.8142C6.26642 64.1139 1.53644 69.9478 0.27498 78.3041C-0.986476 86.6604 2.08845 90.9968 9.5775 94.0712C17.067 97.1455 37.0127 94.3865 41.0333 90.6814C45.0538 86.9763 49.705 80.9057 48.9169 66.7942C48.3649 60.2509 42.995 51.8571 41.0289 44.9778C39.0624 38.0984 37.1707 30.5298 31.9669 26.2727C26.7646 22.0156 22.5861 20.7541 15.4907 22.3309Z" fill="#23003F"/>
<path d="M12.0391 49.9519C12.0391 49.9519 14.9431 60.5992 20.7507 63.5027C26.5583 66.4062 33.2812 64.6653 35.1734 59.6195C37.0656 54.5742 36.6451 46.9005 36.2246 42.5911C36.2246 42.5911 25.3976 40.5938 20.5625 33.0256C20.5616 33.0261 18.3545 46.4805 12.0391 49.9519Z" fill="#FFD9C0"/>
<path d="M39.8565 42.2481C38.4741 40.7198 36.6265 42.6292 36.2617 43.0372C36.4945 45.5572 36.7 49.0502 36.4859 52.4995C37.1953 52.4731 38.5494 52.1822 39.857 50.5651C41.7448 48.2308 41.3968 43.9507 39.8565 42.2481Z" fill="#FFD9C0"/>
<path d="M12.0395 49.9519C12.0395 49.9519 8.99961 48.583 8.36889 50.7905C7.73816 52.998 9.31498 56.9921 12.0395 58.2535C13.8323 59.0834 15.1317 58.8209 15.8133 58.5444C13.2976 54.5633 12.0395 49.9519 12.0395 49.9519Z" fill="#FFD9C0"/>
<path d="M9.62869 38.3872C10.4697 32.2907 16.1457 27.7705 22.7679 27.7705C28.6427 27.7705 33.4389 31.8232 35.1818 35.0133C32.8893 29.0152 30.3995 26.067 26.3943 24.7974C20.2983 22.8654 12.6767 24.8277 9.7823 31.0293C6.88834 37.2309 9.7823 46.1747 9.7823 46.1747C9.44341 44.1505 9.21397 41.3934 9.62869 38.3872Z" fill="#EBEEF7"/>
<path d="M20.6217 50.7234C20.952 51.8317 20.7125 52.8815 20.087 53.0682C19.4611 53.2549 18.6859 52.5076 18.3556 51.3993C18.0249 50.2909 18.2649 49.2412 18.8904 49.0545C19.5158 48.8678 20.291 49.6151 20.6217 50.7234Z" fill="#23003F"/>
<path d="M31.3442 47.5256C31.6744 48.6339 31.4349 49.6836 30.8094 49.8704C30.1835 50.0571 29.4083 49.3097 29.0781 48.2014C28.7478 47.0931 28.9873 46.0433 29.6133 45.8566C30.2382 45.6699 31.0134 46.4172 31.3442 47.5256Z" fill="#23003F"/>
<path d="M24.8164 47.082C24.8164 47.082 25.1318 49.1609 26.4984 50.8428C27.8649 52.5247 28.3905 55.0476 25.9204 55.8358" stroke="#CC967A" stroke-width="0.480003" stroke-miterlimit="10" stroke-linecap="round"/>
<path d="M23.2773 59.7253C23.2773 59.7253 26.7656 62.2482 29.2357 59.0422" stroke="#CC967A" stroke-width="0.480003" stroke-miterlimit="10" stroke-linecap="round"/>
<path d="M16.8814 48.3199C16.8814 48.3199 16.6711 46.3226 18.6684 45.6919" stroke="#23003F" stroke-width="0.480003" stroke-miterlimit="10" stroke-linecap="round"/>
<path d="M28.1328 42.7493C28.1328 42.7493 30.3927 42.2765 31.549 43.8528" stroke="#23003F" stroke-width="0.480003" stroke-miterlimit="10" stroke-linecap="round"/>
<path d="M55.8606 116.615C55.706 116.72 55.3359 116.974 54.5113 117.538C45.8918 122.058 28.1272 121.847 27.6477 120.271C27.6477 120.271 26.2879 125.369 23.765 129.942C21.242 134.514 16.5745 149.808 18.4681 161.476H41.1632C41.1632 161.476 42.8438 153.277 44.8934 149.493C44.8934 149.493 49.3997 157.701 50.3314 161.476H69.8446C69.8446 161.476 65.4088 139.395 55.8606 116.615Z" fill="#0D3254"/>
<path d="M24.5078 64.732L26.2406 72.0232C26.2406 72.0232 31.4151 74.0205 35.1889 70.5515L32.9425 62.764C30.816 64.5463 27.7056 65.2701 24.5078 64.732Z" fill="#FFD9C0"/>
<path d="M26.2358 72.0233C26.2358 72.0233 24.347 71.8131 24.8198 73.8103C25.2926 75.8076 25.2926 75.8076 25.2926 75.8076C25.2926 75.8076 18.3171 79.3817 15.8134 81.5887C13.3097 83.7962 12.4688 84.5321 12.4688 84.5321C12.4688 84.5321 16.4634 86.0038 18.4602 92.5207C20.4575 99.0377 20.5626 102.086 20.5626 102.086C20.5626 102.086 24.2419 104.819 25.3982 110.916C26.5545 117.012 27.1723 118.694 27.6518 120.271C28.1313 121.848 45.8959 122.058 54.5154 117.538C56.5127 116.171 55.8647 116.615 55.8647 116.615C55.8647 116.615 53.78 106.501 54.6205 98.0916C55.3544 90.7514 54.6205 84.1116 47.2625 77.1737C44.7396 74.0201 42.9525 72.5954 42.9525 72.5954H37.1185C37.1185 72.5954 36.6116 68.6916 34.9993 69.9108L35.1841 70.5516C35.1841 70.5516 31.5845 73.6879 26.2358 72.0233Z" fill="#EBEEF7"/>
<path d="M69.8257 81.7866L69.1537 84.4515L69.4897 87.0435H63.0859V82.0232L65.3813 80.12L69.8257 81.7866Z" fill="#EEB8A9"/>
<path d="M70.3923 100.614C70.3923 96.7249 70.3923 87.0549 70.3923 87.0549L62.1933 86.9498L61.2472 95.4842C61.2472 95.4842 56.6223 80.8533 53.5738 76.5439C50.5253 72.2339 42.957 72.5959 42.957 72.5959C42.957 72.5959 44.7441 74.021 47.267 77.1746C54.625 84.112 55.359 90.7518 54.625 98.092C54.4729 99.6121 54.4177 101.188 54.4273 102.749C55.826 104.795 57.8223 107.772 59.3555 110.285C61.9835 114.595 65.6623 114.385 68.3954 112.493C71.1281 110.6 70.3923 104.504 70.3923 100.614Z" fill="#EBEEF7"/>
<path d="M50.4657 122.607C50.8286 122.607 51.1228 122.312 51.1228 121.949C51.1228 121.587 50.8286 121.292 50.4657 121.292C50.1028 121.292 49.8086 121.587 49.8086 121.949C49.8086 122.312 50.1028 122.607 50.4657 122.607Z" fill="#071E2B"/>
<path d="M46.957 120.049C47.1951 120.663 47.3799 121.296 47.5743 121.926C47.749 122.56 47.9113 123.199 48.0634 123.84C48.3687 125.123 48.5934 126.423 48.7705 127.729C48.9409 129.036 49.0671 130.35 49.1003 131.669C49.1545 132.986 49.1166 134.306 49.0076 135.617C48.9491 134.96 48.9471 134.305 48.8823 133.651C48.843 132.997 48.8003 132.343 48.7321 131.692C48.6126 130.389 48.4748 129.088 48.2953 127.793C48.1316 126.495 47.9209 125.204 47.7039 123.913C47.4807 122.622 47.2297 121.336 46.957 120.049Z" fill="#64628E"/>
<path d="M44.8945 149.493C44.9536 149.026 45.0885 148.577 45.2536 148.143C45.4158 147.706 45.6237 147.288 45.8526 146.883C46.3192 146.079 46.9053 145.329 47.6541 144.763C47.4304 145.177 47.1832 145.558 46.9547 145.951C46.7238 146.342 46.4891 146.728 46.2683 147.123C45.8094 147.903 45.3817 148.696 44.8945 149.493Z" fill="#64628E"/>
<path d="M20.5658 102.086C20.2404 101.075 19.9571 100.072 19.7191 99.0505C19.4877 98.0286 19.276 97.0009 19.1992 95.9363C19.6447 96.9064 19.9403 97.9182 20.1861 98.942C20.2994 99.4566 20.4055 99.9726 20.4756 100.497C20.5452 101.02 20.6028 101.55 20.5658 102.086Z" fill="#64628E"/>
<path d="M54.4202 102.749C54.4965 101.836 54.5642 100.925 54.5983 100.012C54.6467 99.1005 54.676 98.1885 54.6837 97.2765C54.6971 95.4549 54.6775 93.6281 54.5032 91.8209C54.3655 90.0122 54.0146 88.2247 53.4784 86.4938C52.9336 84.7658 52.1565 83.1055 51.1211 81.5945C51.7197 82.2886 52.2333 83.0561 52.6912 83.8558C53.1342 84.6636 53.5096 85.5089 53.8278 86.3758C54.4485 88.1162 54.8027 89.9441 54.9803 91.7786C55.1171 93.617 55.1431 95.4545 55.0504 97.2886C54.9501 99.1202 54.7715 100.95 54.4202 102.749Z" fill="#64628E"/>
<path d="M61.2461 95.4836C61.2662 96.9452 61.2067 98.3862 61.1846 99.8281C61.1707 100.548 61.1587 101.269 61.1664 101.988C61.1803 102.708 61.189 103.427 61.2461 104.156C60.7704 102.764 60.6883 101.272 60.7051 99.819C60.7426 98.3603 60.8909 96.904 61.2461 95.4836Z" fill="#64628E"/>
<path d="M33.5554 64.8896L32.9425 62.7646C30.816 64.5464 27.7056 65.2702 24.5078 64.7322L24.9864 66.7458C28.2211 67.2224 31.3508 66.5427 33.5554 64.8896Z" fill="#EEB8A9"/>
<path d="M201.372 82.6193C198.849 68.1982 196.957 64.0346 194.014 61.722C191.071 59.4094 179.664 53.9436 179.664 53.9436H169.239H166.857H156.432C156.432 53.9436 145.025 59.4094 142.082 61.722C139.139 64.0346 137.247 68.1982 134.724 82.6193C132.201 97.0404 135.355 107.131 140.4 106.501C145.446 105.87 145.446 105.87 145.446 105.87L144.184 123.783H166.857H169.239H191.912L190.65 105.87C190.65 105.87 190.65 105.87 195.696 106.501C200.742 107.131 203.895 97.0408 201.372 82.6193Z" fill="#373167"/>
<path d="M153.818 15.2619C153.818 15.2619 152.809 31.5545 158.59 39.9636C164.371 48.3727 174.673 44.9038 177.932 40.3841C181.19 35.8639 182.452 24.3017 181.295 15.6824C181.295 15.6824 173.202 17.2592 168.261 10.6371C168.261 10.6371 161.554 15.7875 153.818 15.2619Z" fill="#CC6F4C"/>
<path d="M181.293 15.6824C181.724 18.8974 181.814 22.5204 181.595 26.0359C181.832 25.7393 181.978 25.566 181.978 25.566C181.978 25.566 183.419 25.039 184.644 25.9255C185.466 23.7876 187.235 18.5494 187.073 13.3697C186.863 6.64252 182.343 4.75037 179.085 5.80157C179.085 5.80157 175.296 -0.400025 167.73 0.0204548C160.164 0.440934 152.805 4.85597 152.805 4.85597C152.805 4.85597 148.706 3.80477 147.759 6.74813C146.813 9.69148 148.095 13.7907 153.814 15.2624C161.55 15.788 168.257 10.6376 168.257 10.6376C171.22 14.6086 175.314 15.6305 178.119 15.8129C180.066 15.7414 181.293 15.6824 181.293 15.6824Z" fill="#433832"/>
<path d="M154.142 25.5659L154.144 25.5683C153.524 19.9355 153.812 15.2617 153.812 15.2617C152.666 14.967 151.706 14.5628 150.898 14.0876L150.894 14.091C150.894 14.091 148.838 17.9929 151.349 26.0209C152.599 24.9995 154.142 25.5659 154.142 25.5659Z" fill="#433832"/>
<path d="M154.141 25.5666L154.141 25.5662C154.141 25.5662 151.855 24.7223 150.594 26.9294C149.332 29.1369 150.173 35.8698 156.428 35.7618H156.429C155.189 32.5358 154.506 28.8863 154.141 25.5666Z" fill="#CC6F4C"/>
<path d="M185.52 26.9293C184.258 24.7218 181.973 25.5661 181.973 25.5661C181.973 25.5661 181.829 25.737 181.594 26.0302C181.374 29.5558 180.838 32.971 180.008 35.7565C185.965 35.6293 186.759 29.0979 185.52 26.9293Z" fill="#CC6F4C"/>
<path d="M175.507 32.3235C172.459 32.4622 169.697 34.1672 167.277 33.3262C164.857 32.4853 162.578 31.8694 159.845 32.2899C157.343 32.6749 155.024 29.6331 154.648 29.1138C155.338 33.0027 156.532 36.979 158.584 39.9632C164.365 48.3723 174.666 44.9033 177.925 40.3837C179.462 38.251 180.555 34.5498 181.159 30.3306C180.124 30.9598 177.787 32.2203 175.507 32.3235Z" fill="#433832"/>
<path d="M162.576 24.5115C162.576 25.9631 161.941 27.1395 161.157 27.1395C160.373 27.1395 159.738 25.9631 159.738 24.5115C159.738 23.06 160.374 21.8835 161.157 21.8835C161.941 21.884 162.576 23.0605 162.576 24.5115Z" fill="#23003F"/>
<path d="M175.728 24.5115C175.728 25.9631 175.093 27.1395 174.31 27.1395C173.526 27.1395 172.891 25.9631 172.891 24.5115C172.891 23.06 173.526 21.8835 174.31 21.8835C175.093 21.884 175.728 23.0605 175.728 24.5115Z" fill="#23003F"/>
<path d="M167.731 20.2922C167.731 20.2922 166.157 26.9143 165.841 29.1218C165.526 31.3293 167.908 31.7498 167.908 31.7498" stroke="#A55337" stroke-width="0.480003" stroke-miterlimit="10" stroke-linecap="round"/>
<path d="M166.855 37.1009C166.855 37.1009 170.672 39.0257 171.618 35.7632" stroke="#A55337" stroke-width="0.480003" stroke-miterlimit="10" stroke-linecap="round"/>
<path d="M158.379 19.1508C158.379 19.1508 159.115 16.5228 162.583 16.4177" stroke="#433832" stroke-width="0.480003" stroke-miterlimit="10" stroke-linecap="round"/>
<path d="M172.461 17.1535C172.461 17.1535 175.404 16.9634 176.665 20.0542" stroke="#433832" stroke-width="0.480003" stroke-miterlimit="10" stroke-linecap="round"/>
<path d="M172.889 44.0916C169.952 45.282 166.374 45.5671 163.157 44.009L163.147 44.01V50.1597L161.633 52.8929L168.465 65.0863L174.308 52.0519L172.889 50.37V44.0916H172.889Z" fill="#CC6F4C"/>
<path d="M163.146 47.7421C163.146 47.7421 157.536 48.6881 156.43 53.9437C156.43 53.9437 156.586 59.6197 158.163 63.2988C158.163 63.2988 158.739 56.0427 163.338 55.939L161.631 52.892L163.145 50.1589V47.7421H163.146Z" fill="#7173A3"/>
<path d="M172.886 50.3701L174.306 52.052L172.234 56.6715C172.234 56.6715 177.187 58.9894 177.712 63.2993C177.712 63.2993 179.741 58.9097 179.425 53.864C179.459 51.6564 176.259 47.9264 172.886 48.3464V50.3701H172.886Z" fill="#7173A3"/>
<path d="M145.453 105.87C145.802 105.647 146.112 105.38 146.384 105.078C146.665 104.786 146.918 104.469 147.156 104.143C147.627 103.488 148.033 102.786 148.374 102.051C148.738 101.326 149.021 100.563 149.315 99.8L149.715 98.6369C149.845 98.2467 149.959 97.8512 150.104 97.4604C150.066 97.8732 149.996 98.2812 149.943 98.6945C149.863 99.1016 149.769 99.5067 149.673 99.9118C149.557 100.311 149.435 100.711 149.296 101.104C149.14 101.492 148.996 101.885 148.806 102.259C148.445 103.014 148.001 103.738 147.448 104.375C146.902 105.007 146.241 105.587 145.453 105.87Z" fill="#1E1C3F"/>
<path d="M150.097 76.0181C150.079 77.8233 149.987 79.6253 149.876 81.4257C149.763 83.2262 149.591 85.0224 149.423 86.819C149.215 88.6113 149 90.4046 148.707 92.1873C148.407 93.9657 148.069 95.7528 147.477 97.4616C147.563 97.0171 147.672 96.5812 147.752 96.1387C147.825 95.6937 147.91 95.2531 147.971 94.8072L148.172 93.4732L148.342 92.1345C148.558 90.3485 148.777 88.5619 148.947 86.7691C149.154 84.9806 149.319 83.1869 149.51 81.3955C149.698 79.6027 149.881 77.8099 150.097 76.0181Z" fill="#1E1C3F"/>
<path d="M190.721 105.87C189.933 105.586 189.272 105.007 188.726 104.375C188.173 103.738 187.73 103.014 187.368 102.259C187.178 101.885 187.034 101.492 186.879 101.105C186.739 100.711 186.618 100.312 186.501 99.9123C186.404 99.5072 186.31 99.1021 186.232 98.695C186.178 98.2817 186.109 97.8737 186.07 97.4609C186.215 97.8517 186.33 98.2472 186.46 98.6374L186.859 99.8005C187.153 100.563 187.435 101.327 187.8 102.051C188.142 102.786 188.548 103.488 189.019 104.144C189.256 104.47 189.509 104.786 189.79 105.079C190.063 105.381 190.373 105.647 190.721 105.87Z" fill="#1E1C3F"/>
<path d="M186.078 76.0181C186.294 77.8104 186.477 79.6032 186.666 81.395C186.857 83.1869 187.022 84.9801 187.229 86.7686C187.399 88.5614 187.618 90.3475 187.834 92.134L188.004 93.4728L188.205 94.8067C188.266 95.2526 188.351 95.6932 188.424 96.1382C188.503 96.5812 188.613 97.0171 188.699 97.4611C188.107 95.7523 187.769 93.9652 187.469 92.1868C187.175 90.4041 186.96 88.6113 186.753 86.8185C186.585 85.0219 186.412 83.2257 186.3 81.4253C186.188 79.6253 186.096 77.8233 186.078 76.0181Z" fill="#1E1C3F"/>
<path d="M168.469 65.0858V75.3871H171.412V58.5204L168.469 65.0858Z" fill="#1E1C3F"/>
<path d="M144.186 123.783C144.186 123.783 142.084 143.816 142.399 161.476H166.762L169.266 151.055L171.411 161.476H194.116C194.116 161.476 194.125 146.005 191.913 123.783H144.186Z" fill="#A9553C"/>
<path d="M171.825 123.783C172.013 125.404 172.12 127.031 172.199 128.66C172.282 130.288 172.306 131.92 172.294 133.551C172.269 135.183 172.214 136.817 172.038 138.443C171.948 139.256 171.842 140.068 171.683 140.873C171.503 141.667 171.309 142.485 170.879 143.185C171.21 142.439 171.35 141.636 171.451 140.833C171.561 140.031 171.625 139.222 171.669 138.413C171.758 136.793 171.801 135.17 171.814 133.545C171.838 131.92 171.827 130.294 171.831 128.668L171.825 123.783Z" fill="#873F2E"/>
<path d="M165.685 126.183C165.685 126.546 165.391 126.841 165.028 126.841C164.665 126.841 164.371 126.546 164.371 126.183C164.371 125.821 164.665 125.526 165.028 125.526C165.391 125.526 165.685 125.821 165.685 126.183Z" fill="#873F2E"/>
<path d="M148.286 123.783C148.327 125.073 148.21 126.364 148.027 127.643C147.84 128.923 147.554 130.19 147.16 131.428C146.746 132.657 146.248 133.867 145.577 134.984C145.212 135.523 144.879 136.084 144.438 136.566C144.032 137.074 143.535 137.498 143.051 137.919C143.462 137.418 143.916 136.97 144.253 136.422C144.647 135.922 144.938 135.35 145.255 134.803C145.834 133.671 146.308 132.49 146.703 131.281C147.102 130.071 147.394 128.828 147.665 127.58C147.801 126.955 147.913 126.324 148.01 125.691C148.124 125.059 148.206 124.422 148.286 123.783Z" fill="#873F2E"/>
<path d="M186.969 123.783L187.442 125.81C187.596 126.485 187.755 127.159 187.924 127.83C188.265 129.171 188.606 130.51 189.007 131.829C189.402 133.15 189.85 134.454 190.414 135.702C190.703 136.322 191.031 136.926 191.456 137.454C191.859 137.991 192.438 138.439 193.149 138.443C192.805 138.485 192.438 138.432 192.122 138.26C191.963 138.18 191.818 138.074 191.673 137.97C191.544 137.85 191.396 137.743 191.28 137.609C190.796 137.087 190.421 136.483 190.084 135.868C189.425 134.624 188.958 133.3 188.548 131.968C188.154 130.63 187.822 129.276 187.565 127.909C187.307 126.543 187.088 125.168 186.969 123.783Z" fill="#873F2E"/>
<path d="M172.887 46.8105V44.0913C169.949 45.2817 166.371 45.5669 163.155 44.0088L163.145 44.0097V46.7342C166.374 48.1958 169.916 47.9443 172.887 46.8105Z" fill="#B55E43"/>
<path d="M240.409 21.884C240.409 21.884 234.325 19.256 227.074 21.3061C219.823 23.3557 217.459 33.3474 208.471 42.621C199.483 51.8945 203.898 55.5209 206.421 56.9398C208.944 58.3587 210.836 59.1473 212.413 62.143C213.99 65.1387 217.616 67.1926 224.081 66.954C230.545 66.7155 238.21 71.4454 241.473 72.8647C244.736 74.2836 250.412 74.9144 252.777 71.7612C255.142 68.6076 251.831 60.2513 251.831 51.5792C251.831 42.907 254.479 34.8133 249.055 28.4538C243.632 22.0943 240.409 21.884 240.409 21.884Z" fill="#6E2A2C"/>
<path d="M245.247 44.2524C245.247 44.2524 242.343 54.8997 236.536 57.8033C230.728 60.7073 224.005 58.9658 222.113 53.9205C220.221 48.8753 220.641 41.2015 221.062 36.8921C221.062 36.8921 231.889 34.8948 236.724 27.3267C236.724 27.3267 238.932 40.781 245.247 44.2524Z" fill="#FFD9C0"/>
<path d="M217.426 36.5491C218.808 35.0208 220.656 36.9303 221.021 37.3383C220.788 39.8583 220.583 43.3507 220.797 46.8005C220.087 46.7741 218.733 46.4832 217.426 44.8661C215.537 42.5314 215.886 38.2512 217.426 36.5491Z" fill="#FFD9C0"/>
<path d="M245.243 44.2523C245.243 44.2523 248.282 42.8834 248.913 45.0909C249.544 47.2984 247.967 51.2925 245.243 52.5539C243.449 53.3839 242.15 53.1213 241.469 52.8448C243.984 48.8637 245.243 44.2523 245.243 44.2523Z" fill="#FFD9C0"/>
<path d="M236.664 45.0237C236.334 46.132 236.573 47.1818 237.199 47.3685C237.825 47.5552 238.6 46.8079 238.931 45.6996C239.261 44.5912 239.022 43.5415 238.395 43.3548C237.769 43.1685 236.994 43.9154 236.664 45.0237Z" fill="#23003F"/>
<path d="M225.941 41.8261C225.611 42.9344 225.85 43.9842 226.476 44.1709C227.102 44.3576 227.877 43.6103 228.208 42.5019C228.538 41.3936 228.299 40.3439 227.672 40.1571C227.047 39.9704 226.272 40.7178 225.941 41.8261Z" fill="#23003F"/>
<path d="M232.469 41.3827C232.469 41.3827 232.153 43.4616 230.787 45.1435C229.42 46.8254 228.894 49.3483 231.365 50.1364" stroke="#CC967A" stroke-width="0.480003" stroke-miterlimit="10" stroke-linecap="round" stroke-linejoin="round"/>
<path d="M234.009 54.0259C234.009 54.0259 230.521 56.5488 228.051 53.3429" stroke="#CC967A" stroke-width="0.480003" stroke-miterlimit="10" stroke-linecap="round" stroke-linejoin="round"/>
<path d="M240.404 42.6209C240.404 42.6209 240.614 40.6236 238.617 39.9929" stroke="#6E2A2C" stroke-width="0.480003" stroke-miterlimit="10" stroke-linecap="round" stroke-linejoin="round"/>
<path d="M229.151 37.0496C229.151 37.0496 226.891 36.5768 225.734 38.1531" stroke="#6E2A2C" stroke-width="0.480003" stroke-miterlimit="10" stroke-linecap="round" stroke-linejoin="round"/>
<path d="M237.798 67.5035C232.866 65.9675 232.119 65.9267 231.961 64.5079C231.804 63.089 231.968 59.1434 231.968 59.1434L231.967 59.1429C229.063 59.44 226.295 58.6965 224.35 57.0684C224.35 57.0684 224.464 62.4583 224.35 63.7984C224.235 65.1386 222.107 66.952 217.297 68.6075C212.488 70.2631 212.488 70.2631 212.488 70.2631C212.488 70.2631 219.418 82.9557 229.631 88.553C229.631 88.553 238.504 81.3789 244.023 70.1843C244.023 70.1843 242.805 69.0626 237.798 67.5035Z" fill="#FFD9C0"/>
<path d="M243.394 84.2954L244.025 70.1838C238.506 81.3784 229.633 88.5525 229.633 88.5525C219.42 82.9552 212.49 70.2626 212.49 70.2626C212.49 70.2626 208.785 70.7853 207.129 72.8099C205.474 74.8346 204.267 81.3779 203.085 90.5229C201.902 99.6678 200.451 110.402 204.803 111.861C210.512 113.776 213.2 99.8257 213.2 99.8257L214.54 102.664C214.54 102.664 223.527 102.743 228.967 96.9088C228.967 96.9088 236.457 103.097 240.32 104.024C240.32 104.024 243.079 99.5104 244.025 94.9379C244.971 90.3659 243.394 84.2954 243.394 84.2954Z" fill="#0D3254"/>
<path d="M214.543 102.664C214.543 102.664 215.883 110.39 216.724 114.069C216.724 114.069 228.813 116.592 237.642 114.069L240.323 104.024C236.46 103.098 228.97 96.9091 228.97 96.9091C223.53 102.743 214.543 102.664 214.543 102.664Z" fill="#FFD9C0"/>
<path d="M248.987 140.558C246.523 129.015 237.634 114.069 237.634 114.069C228.805 116.592 216.716 114.069 216.716 114.069C205.574 132.99 208.569 161.476 208.569 161.476H248.408C248.409 161.476 251.657 153.066 248.987 140.558Z" fill="#64628E"/>
<path d="M231.541 97.0895C231.541 98.2237 230.621 99.1429 229.487 99.1429C228.353 99.1429 227.434 98.2237 227.434 97.0895C227.434 95.9552 228.353 95.036 229.487 95.036C230.621 95.036 231.541 95.9557 231.541 97.0895Z" fill="#133E5E"/>
<path d="M228.523 97.3669C228.523 97.3669 224.713 98.1311 223.271 101.205C222.046 103.818 222.979 105.345 224.516 104.911C226.053 104.478 227.957 101.688 228.523 97.3669Z" fill="#133E5E"/>
<path d="M229.797 97.3669C229.797 97.3669 233.607 98.1311 235.049 101.205C236.274 103.818 235.341 105.345 233.804 104.911C232.267 104.478 230.362 101.688 229.797 97.3669Z" fill="#133E5E"/>
<path d="M225.714 115.129C225.705 115.731 225.678 116.331 225.68 116.931C225.663 117.531 225.654 118.13 225.654 118.729C225.655 119.927 225.654 121.123 225.689 122.318C225.714 123.513 225.789 124.705 225.868 125.898C225.921 126.492 225.966 127.09 226.05 127.682C226.096 128.282 226.214 128.868 226.282 129.468C225.918 128.32 225.673 127.133 225.501 125.938C225.334 124.742 225.245 123.536 225.209 122.33C225.186 121.124 225.2 119.917 225.287 118.715C225.37 117.514 225.49 116.313 225.714 115.129Z" fill="#404263"/>
<path d="M225.855 137.273C226.594 139.178 227.053 141.18 227.45 143.182C227.844 145.187 228.093 147.217 228.317 149.246C228.511 151.279 228.633 153.318 228.698 155.357L228.733 158.417C228.705 159.437 228.691 160.457 228.647 161.475C228.538 159.438 228.457 157.405 228.328 155.374C228.187 153.344 228.07 151.313 227.84 149.294C227.657 147.269 227.402 145.252 227.088 143.245C226.932 142.24 226.759 141.239 226.552 140.244C226.365 139.244 226.135 138.254 225.855 137.273Z" fill="#404263"/>
<path d="M228.492 117.722C228.492 118.201 228.104 118.589 227.625 118.589C227.146 118.589 226.758 118.201 226.758 117.722C226.758 117.243 227.146 116.854 227.625 116.854C228.104 116.855 228.492 117.243 228.492 117.722Z" fill="#404263"/>
<path d="M231.893 62.9637C231.878 61.2707 231.966 59.1429 231.966 59.1429L231.965 59.1424C229.061 59.4396 226.293 58.696 224.348 57.0679C224.348 57.0679 224.388 58.9768 224.397 60.8051C225.895 61.4498 228.395 62.3315 231.893 62.9637Z" fill="#EEB8A9"/>
<path d="M84.5369 14.0914C84.5369 14.0914 81.281 10.2015 84.5369 6.52658C87.7928 2.85123 93.9095 1.27635 100.499 1.53891C107.088 1.80147 113.782 3.37634 116.013 7.18274C116.013 7.18274 119.597 8.13698 119.708 14.0914C119.82 20.0458 117.72 29.1144 117.72 29.1144L87.7842 25.5662L84.5369 14.0914Z" fill="#000B3D"/>
<path d="M135.016 82.6195C132.493 68.1984 130.601 64.0349 127.658 61.7223C124.714 59.4096 106.534 50.3698 106.534 50.3698L101.372 50.8911L96.7925 50.1595C96.7925 50.1595 78.6698 59.4096 75.7264 61.7223C72.783 64.0349 70.8913 68.1984 68.3684 82.6195C65.8455 97.0406 68.9992 107.132 74.0445 106.501C79.0898 105.87 79.0898 105.87 79.0898 105.87L77.8284 123.783H100.501H102.883H125.556L124.294 105.87C124.294 105.87 124.294 105.87 129.34 106.501C134.385 107.132 137.539 97.0411 135.016 82.6195Z" fill="#003071"/>
<path d="M87.4621 15.2622C87.4621 15.2622 86.4531 31.5549 92.2348 39.964C98.016 48.3731 108.317 44.9041 111.576 40.3845C114.835 35.8643 116.096 24.3021 114.94 15.6827C114.94 15.6827 106.846 17.2595 101.905 10.6375C101.905 10.6375 95.1983 15.7878 87.4621 15.2622Z" fill="#D99D89"/>
<path d="M87.7863 25.5662L87.7882 25.5686C87.1685 19.9358 87.456 15.2621 87.456 15.2621C86.3103 14.9674 85.3503 14.5632 84.5429 14.088L84.5386 14.0914C84.5386 14.0914 82.4827 17.9933 84.9936 26.0213C86.244 24.9998 87.7863 25.5662 87.7863 25.5662Z" fill="#000B3D"/>
<path d="M87.7857 25.5666L87.7852 25.5662C87.7852 25.5662 85.4999 24.7223 84.2384 26.9294C82.977 29.1369 83.8179 35.8698 90.0724 35.7618H90.0739C88.833 32.5358 88.1505 28.8863 87.7857 25.5666Z" fill="#D99D89"/>
<path d="M119.164 26.9295C117.903 24.722 115.618 25.5663 115.618 25.5663C115.618 25.5663 115.473 25.7372 115.239 26.0305C115.019 29.5561 114.483 32.9713 113.652 35.7567C119.61 35.6295 120.404 29.0982 119.164 26.9295Z" fill="#D99D89"/>
<path d="M96.2206 24.5117C96.2206 25.9632 95.5856 27.1397 94.8017 27.1397C94.0179 27.1397 93.3828 25.9632 93.3828 24.5117C93.3828 23.0601 94.0183 21.8837 94.8017 21.8837C95.5856 21.8841 96.2206 23.0606 96.2206 24.5117Z" fill="#23003F"/>
<path d="M109.373 24.5117C109.373 25.9632 108.737 27.1397 107.954 27.1397C107.17 27.1397 106.535 25.9632 106.535 24.5117C106.535 23.0601 107.17 21.8837 107.954 21.8837C108.737 21.8841 109.373 23.0606 109.373 24.5117Z" fill="#23003F"/>
<path d="M101.368 20.2925C101.368 20.2925 99.7933 26.9146 99.478 29.1221C99.1626 31.3296 101.545 31.7501 101.545 31.7501" stroke="#B27666" stroke-width="0.480003" stroke-miterlimit="10" stroke-linecap="round"/>
<path d="M100.5 37.1009C100.5 37.1009 104.316 39.0257 105.262 35.7632" stroke="#B27666" stroke-width="0.480003" stroke-miterlimit="10" stroke-linecap="round"/>
<path d="M92.0156 19.1511C92.0156 19.1511 92.7515 16.5231 96.22 16.418" stroke="#000B3D" stroke-width="0.480003" stroke-miterlimit="10" stroke-linecap="round"/>
<path d="M106.105 17.1539C106.105 17.1539 109.049 16.9638 110.31 20.0545" stroke="#000B3D" stroke-width="0.480003" stroke-miterlimit="10" stroke-linecap="round"/>
<path d="M106.531 44.0917C103.593 45.2821 100.015 45.5672 96.7989 44.0092L96.7888 44.0101V50.1599L96.5556 50.5803C95.7587 52.0179 95.7631 53.7651 96.5666 55.1994L97.3048 56.517C99.2902 60.0594 104.464 59.8285 106.125 56.1229L107.05 54.0599C107.6 52.8325 107.398 51.3983 106.531 50.3701V44.0917Z" fill="#D99D89"/>
<path d="M79.0938 105.87C79.4427 105.647 79.7523 105.38 80.025 105.078C80.3058 104.786 80.5582 104.469 80.7963 104.143C81.2672 103.488 81.6733 102.785 82.0146 102.051C82.3789 101.326 82.6616 100.563 82.9559 99.7998L83.3552 98.6368C83.4853 98.2466 83.5996 97.851 83.7445 97.4603C83.7061 97.8731 83.637 98.2811 83.5832 98.6944C83.504 99.1014 83.41 99.5066 83.313 99.9117C83.1973 100.311 83.0749 100.71 82.9357 101.104C82.7802 101.492 82.6362 101.884 82.4461 102.259C82.0847 103.014 81.6416 103.738 81.0882 104.375C80.5424 105.007 79.8819 105.587 79.0938 105.87Z" fill="#004197"/>
<path d="M83.7414 76.0181C83.7232 77.8233 83.632 79.6253 83.5202 81.4257C83.4078 83.2262 83.235 85.0224 83.0675 86.819C82.8597 88.6113 82.6446 90.4046 82.3513 92.1873C82.0513 93.9657 81.7139 95.7528 81.1211 97.4616C81.2075 97.0171 81.3169 96.5812 81.3966 96.1387C81.4691 95.6937 81.5541 95.2531 81.616 94.8072L81.8161 93.4732L81.9865 92.1345C82.203 90.3485 82.4214 88.5619 82.5913 86.7691C82.7987 84.9806 82.9638 83.1869 83.1549 81.3955C83.3421 79.6027 83.5254 77.8099 83.7414 76.0181Z" fill="#004197"/>
<path d="M124.362 105.87C123.574 105.587 122.913 105.007 122.367 104.375C121.813 103.739 121.37 103.014 121.009 102.26C120.819 101.885 120.675 101.492 120.519 101.105C120.38 100.711 120.258 100.312 120.142 99.9127C120.045 99.5075 119.951 99.1024 119.872 98.6954C119.818 98.2821 119.749 97.8741 119.711 97.4613C119.856 97.852 119.97 98.2476 120.1 98.6378L120.5 99.8008C120.794 100.563 121.076 101.327 121.441 102.052C121.783 102.786 122.188 103.489 122.659 104.144C122.897 104.47 123.15 104.787 123.431 105.079C123.704 105.381 124.013 105.647 124.362 105.87Z" fill="#004197"/>
<path d="M119.711 76.0181C119.926 77.8104 120.11 79.6032 120.298 81.395C120.49 83.1869 120.655 84.9801 120.862 86.7686C121.032 88.5614 121.25 90.3475 121.467 92.134L121.637 93.4728L121.837 94.8067C121.899 95.2526 121.984 95.6932 122.056 96.1382C122.135 96.5812 122.245 97.0171 122.332 97.4611C121.739 95.7523 121.402 93.9652 121.102 92.1868C120.808 90.4041 120.593 88.6113 120.385 86.8185C120.217 85.0219 120.045 83.2257 119.933 81.4253C119.82 79.6253 119.729 77.8233 119.711 76.0181Z" fill="#004197"/>
<path d="M77.831 123.783C77.831 123.783 75.7286 143.816 76.044 161.476H100.407L102.91 151.055L105.056 161.476H127.761C127.761 161.476 127.77 146.005 125.558 123.783H77.831Z" fill="#BD9479"/>
<path d="M105.47 123.783C105.658 125.404 105.765 127.031 105.843 128.66C105.927 130.288 105.951 131.92 105.938 133.551C105.914 135.183 105.858 136.817 105.682 138.444C105.592 139.256 105.486 140.068 105.328 140.873C105.148 141.668 104.954 142.486 104.523 143.185C104.854 142.439 104.994 141.636 105.096 140.833C105.206 140.031 105.269 139.223 105.314 138.413C105.402 136.793 105.445 135.17 105.458 133.545C105.483 131.92 105.471 130.295 105.476 128.668L105.47 123.783Z" fill="#873F2E"/>
<path d="M99.3182 126.184C99.3182 126.547 99.0239 126.841 98.661 126.841C98.2982 126.841 98.0039 126.547 98.0039 126.184C98.0039 125.821 98.2982 125.527 98.661 125.527C99.0244 125.527 99.3182 125.821 99.3182 126.184Z" fill="#873F2E"/>
<path d="M81.9229 123.783C81.9642 125.073 81.8471 126.364 81.6632 127.643C81.477 128.923 81.1909 130.19 80.7964 131.428C80.3831 132.658 79.8848 133.867 79.2133 134.984C78.8485 135.524 78.5154 136.084 78.0752 136.566C77.6691 137.074 77.1718 137.498 76.6875 137.919C77.0989 137.418 77.5529 136.97 77.8894 136.422C78.2835 135.922 78.5744 135.35 78.8917 134.803C79.471 133.671 79.9443 132.49 80.3399 131.281C80.7383 130.071 81.0311 128.829 81.3013 127.58C81.4381 126.955 81.55 126.324 81.6464 125.691C81.7616 125.059 81.8423 124.422 81.9229 123.783Z" fill="#873F2E"/>
<path d="M120.609 123.783L121.083 125.81C121.236 126.485 121.395 127.159 121.565 127.83C121.905 129.171 122.247 130.51 122.648 131.83C123.043 133.15 123.49 134.454 124.054 135.703C124.343 136.322 124.671 136.927 125.097 137.454C125.5 137.991 126.079 138.439 126.789 138.443C126.446 138.486 126.079 138.433 125.763 138.26C125.604 138.181 125.459 138.074 125.313 137.971C125.184 137.851 125.036 137.743 124.92 137.61C124.436 137.088 124.062 136.484 123.724 135.868C123.066 134.624 122.599 133.3 122.189 131.968C121.795 130.63 121.462 129.277 121.206 127.91C120.947 126.543 120.728 125.169 120.609 123.783Z" fill="#873F2E"/>
<path d="M106.531 46.8109V44.0917C103.594 45.2821 100.015 45.5672 96.7991 44.0092L96.7891 44.0101V46.7346C100.018 48.1962 103.561 47.9447 106.531 46.8109Z" fill="#AF7768"/>
<path d="M227.375 81.8589H48.1406V152.929H227.375V81.8589Z" fill="#FEFEFE"/>
<path d="M233.472 105.516L230.155 105.925C230.155 105.925 228.562 105.852 227.984 106.569C227.405 107.286 226.847 110.034 226.847 110.034C226.847 110.034 221.94 113.82 221.431 114.545C220.923 115.27 220.633 115.949 221.015 116.668C221.396 117.386 222.404 116.966 223.365 116.327C224.326 115.688 226.842 113.874 226.842 113.874C226.842 113.874 227.551 114.843 228.035 114.968C228.519 115.094 228.873 115.698 229.842 116.431C230.811 117.165 231.819 117.868 232.959 116.972C234.099 116.077 237.371 113.49 238.102 110.498C238.101 110.498 235.802 108.517 233.472 105.516Z" fill="#FFD9C0"/>
<path d="M244.008 70.1839C244.008 70.1839 247.117 69.4552 249.723 74.0315C251.399 76.9739 254.979 91.3643 256.24 95.1482C257.502 98.9325 257.208 100.193 255.62 101.245C254.033 102.296 237.635 111.861 237.635 111.861C237.635 111.861 234.481 109.128 233.43 105.239C233.43 105.239 238.475 101.665 240.788 99.353C243.1 97.0403 246.017 94.9384 246.017 94.9384C246.017 94.9384 242.851 86.6757 242.391 81.8589C241.931 77.0421 242.09 71.9181 244.008 70.1839Z" fill="#0D3254"/>
<path d="M246.02 94.9385C246.329 94.7815 246.662 94.6961 246.997 94.6433C247.333 94.5885 247.675 94.5818 248.016 94.5996C248.692 94.6481 249.384 94.8348 249.935 95.2538C249.588 95.2317 249.269 95.1823 248.945 95.1554C248.622 95.1285 248.304 95.093 247.983 95.0781C247.341 95.0282 246.701 95.0119 246.02 94.9385Z" fill="#64628E"/>
<path d="M12.4696 84.5323C12.4696 84.5323 11.103 86.3717 9.57896 94.0714C8.05494 101.771 3.74496 115.541 4.16545 118.064C4.58593 120.587 11.6286 122.268 19.302 122.899C26.9753 123.529 30.1347 124.52 31.7058 122.899C32.5468 121.742 32.757 116.066 32.6519 114.7C32.5468 113.333 31.916 111.756 30.4443 111.967C28.9726 112.177 19.1968 111.021 19.1968 111.021C19.1968 111.021 19.2981 109.864 18.4067 109.654L20.5634 102.086C20.5634 102.086 19.9855 97.093 18.461 92.5205C16.937 87.9485 14.9401 85.5835 12.4696 84.5323Z" fill="#EBEEF7"/>
<path d="M32.6514 114.7L35.6471 112.861C35.6471 112.861 36.9085 111.757 37.8546 111.968C38.8007 112.178 41.0606 114.07 41.0606 114.07C41.0606 114.07 47.5776 113.965 48.4714 114.228C49.3647 114.49 50.0482 114.858 50.2057 115.699C50.3631 116.54 49.2596 116.856 48.0509 116.961C46.8423 117.066 43.5835 117.223 43.5835 117.223C43.5835 117.223 43.6358 118.485 43.3205 118.905C43.0051 119.326 43.1102 120.055 42.7949 121.293C42.4795 122.531 42.1113 123.77 40.5873 123.781C39.0633 123.793 34.6765 123.812 32.1133 121.831C32.1133 121.831 32.7042 118.694 32.6514 114.7Z" fill="#FFD9C0"/>
<path d="M18.4068 109.654C17.8049 109.704 17.2433 109.783 16.6985 109.942C16.1489 110.089 15.6415 110.329 15.0977 110.6C15.2815 110.361 15.5004 110.138 15.7625 109.977C16.0169 109.803 16.3054 109.683 16.601 109.596C17.1924 109.432 17.8404 109.421 18.4068 109.654Z" fill="#64628E"/>
<path d="M19.1986 111.021C18.7848 111.299 18.3768 111.521 17.9755 111.762C17.5675 111.994 17.1869 112.242 16.7539 112.493C16.9809 112.044 17.3707 111.702 17.7936 111.451C18.2218 111.208 18.6951 111.03 19.1986 111.021Z" fill="#64628E"/>
<path d="M69.8489 81.9123C69.8489 81.9123 70.2425 78.3752 69.5854 77.8822C68.9283 77.3893 67.8603 77.3893 67.8603 77.3893C67.8603 77.3893 66.9564 76.1571 65.8063 75.9925C65.8063 75.9925 64.9845 74.6782 62.7664 75.1712C60.5483 75.6641 58.3302 76.2392 58.0019 77.6355C57.6731 79.0323 56.7697 84.7006 57.098 85.2757C57.4264 85.8507 58.4949 87.0828 59.0694 86.0969C59.0694 86.0969 59.6445 87.4937 60.7946 87.1649C61.9447 86.8361 62.0268 85.0289 62.0268 85.0289C62.0268 85.0289 63.7519 86.754 64.8199 84.536C65.8879 82.3179 66.8633 81.9277 66.8633 81.9277L69.8489 81.9123Z" fill="#FFD9C0"/>
<path d="M66.0023 78.324C65.409 78.6955 64.8479 79.0997 64.3343 79.5427C64.0823 79.7688 63.8336 79.9968 63.6268 80.2555C63.4112 80.5061 63.2216 80.7758 63.0949 81.0681C62.8247 81.6648 62.6365 82.3382 62.4671 82.9963C62.3029 83.6621 62.181 84.3427 62.0279 85.0296C61.9947 84.3316 61.9928 83.6251 62.0994 82.9252C62.2016 82.2225 62.3658 81.539 62.66 80.8651C62.9826 80.1796 63.5255 79.6603 64.1039 79.2489C64.6847 78.8337 65.3308 78.5275 66.0023 78.324Z" fill="#CC967A"/>
<path d="M62.9136 77.2766C62.1033 77.5776 61.3752 78.0657 60.8712 78.7089C60.6254 79.0339 60.4276 79.3925 60.3259 79.7837C60.2131 80.1811 60.1185 80.6021 60.0393 81.0211C59.8651 81.8582 59.7235 82.7068 59.5646 83.5536C59.4139 84.4017 59.2463 85.2494 59.0625 86.0976C59.062 84.3604 59.2377 82.6348 59.5694 80.9256C59.6596 80.4984 59.7552 80.0755 59.8934 79.6478C60.0364 79.2101 60.2745 78.8011 60.586 78.4685C61.2028 77.7907 62.0563 77.3985 62.9136 77.2766Z" fill="#CC967A"/>
<path d="M200.458 81.9124C200.458 81.9124 200.852 78.3753 200.195 77.8823C199.538 77.3894 198.47 77.3894 198.47 77.3894C198.47 77.3894 197.566 76.1572 196.416 75.9926C196.416 75.9926 195.594 74.6783 193.376 75.1713C191.158 75.6643 188.94 76.2393 188.611 77.6356C188.282 79.0324 187.379 84.7007 187.707 85.2758C188.036 85.8508 189.104 87.083 189.679 86.0971C189.679 86.0971 190.254 87.4939 191.404 87.1651C192.555 86.8363 192.637 85.029 192.637 85.029C192.637 85.029 194.362 86.7542 195.43 84.5361C196.498 82.318 197.473 81.9278 197.473 81.9278L200.458 81.9124Z" fill="#CC6F4C"/>
<path d="M196.612 78.324C196.018 78.6955 195.457 79.0997 194.944 79.5427C194.692 79.7688 194.443 79.9968 194.236 80.2555C194.021 80.5061 193.831 80.7758 193.704 81.0681C193.434 81.6648 193.246 82.3382 193.076 82.9963C192.912 83.6621 192.79 84.3427 192.637 85.0296C192.604 84.3316 192.602 83.6251 192.709 82.9252C192.811 82.2225 192.975 81.539 193.269 80.8651C193.592 80.1796 194.135 79.6603 194.713 79.2489C195.294 78.8337 195.94 78.5275 196.612 78.324Z" fill="#A55337"/>
<path d="M193.531 77.2766C192.721 77.5776 191.992 78.0657 191.488 78.7089C191.243 79.0339 191.045 79.3925 190.943 79.7837C190.83 80.1811 190.736 80.6021 190.656 81.0211C190.482 81.8582 190.341 82.7068 190.182 83.5536C190.031 84.4017 189.864 85.2494 189.68 86.0976C189.68 84.3604 189.855 82.6348 190.187 80.9256C190.277 80.4984 190.372 80.0755 190.511 79.6478C190.654 79.2101 190.892 78.8011 191.203 78.4685C191.82 77.7907 192.673 77.3985 193.531 77.2766Z" fill="#A55337"/>
<path d="M203.203 81.9124C203.203 81.9124 202.809 78.3753 203.466 77.8823C204.124 77.3894 205.192 77.3894 205.192 77.3894C205.192 77.3894 206.095 76.1572 207.245 75.9926C207.245 75.9926 208.067 74.6783 210.285 75.1713C212.503 75.6643 214.722 76.2393 215.05 77.6356C215.379 79.0324 216.283 84.7007 215.954 85.2758C215.625 85.8508 214.557 87.083 213.982 86.0971C213.982 86.0971 213.407 87.4939 212.257 87.1651C211.107 86.8363 211.025 85.029 211.025 85.029C211.025 85.029 209.3 86.7542 208.232 84.5361C207.164 82.318 206.188 81.9278 206.188 81.9278L203.203 81.9124Z" fill="#FFD9C0"/>
<path d="M207.055 78.3241C207.726 78.5276 208.372 78.8339 208.953 79.2491C209.532 79.6604 210.074 80.1798 210.397 80.8652C210.691 81.5391 210.855 82.2227 210.958 82.9254C211.064 83.6247 211.062 84.3318 211.029 85.0297C210.876 84.3428 210.754 83.6622 210.59 82.9964C210.42 82.3383 210.233 81.6649 209.962 81.0683C209.835 80.7759 209.646 80.5062 209.43 80.2556C209.223 79.9969 208.975 79.7689 208.723 79.5428C208.209 79.0998 207.648 78.6956 207.055 78.3241Z" fill="#CC967A"/>
<path d="M210.133 77.2769C210.99 77.3988 211.844 77.7909 212.46 78.4682C212.771 78.8013 213.01 79.2098 213.153 79.6476C213.291 80.0753 213.387 80.4981 213.477 80.9253C213.808 82.6346 213.984 84.3602 213.984 86.0973C213.8 85.2487 213.633 84.4015 213.482 83.5533C213.323 82.7066 213.181 81.858 213.007 81.0209C212.928 80.6018 212.833 80.1809 212.721 79.7834C212.619 79.3922 212.421 79.0337 212.175 78.7087C211.671 78.066 210.943 77.5778 210.133 77.2769Z" fill="#CC967A"/>
<path d="M136.004 81.9124C136.004 81.9124 135.61 78.3753 136.267 77.8823C136.924 77.3894 137.992 77.3894 137.992 77.3894C137.992 77.3894 138.896 76.1572 140.046 75.9926C140.046 75.9926 140.868 74.6783 143.086 75.1713C145.304 75.6643 147.522 76.2393 147.851 77.6356C148.179 79.0324 149.083 84.7007 148.755 85.2758C148.426 85.8508 147.358 87.083 146.783 86.0971C146.783 86.0971 146.208 87.4939 145.058 87.1651C143.907 86.8363 143.825 85.029 143.825 85.029C143.825 85.029 142.1 86.7542 141.032 84.5361C139.964 82.318 138.989 81.9278 138.989 81.9278L136.004 81.9124Z" fill="#CC6F4C"/>
<path d="M139.844 78.3241C140.515 78.5276 141.161 78.8339 141.742 79.2491C142.32 79.6604 142.863 80.1798 143.186 80.8652C143.48 81.5391 143.644 82.2227 143.746 82.9254C143.853 83.6247 143.851 84.3318 143.818 85.0297C143.665 84.3428 143.543 83.6622 143.379 82.9964C143.209 82.3383 143.021 81.6649 142.751 81.0683C142.624 80.7759 142.434 80.5062 142.219 80.2556C142.012 79.9969 141.763 79.7689 141.511 79.5428C140.998 79.0998 140.437 78.6956 139.844 78.3241Z" fill="#A55337"/>
<path d="M142.938 77.2767C143.795 77.3987 144.648 77.7908 145.265 78.4681C145.576 78.8012 145.815 79.2097 145.958 79.6475C146.096 80.0751 146.191 80.498 146.282 80.9252C146.613 82.6345 146.789 84.3601 146.789 86.0972C146.605 85.2486 146.437 84.4014 146.287 83.5532C146.128 82.7065 145.986 81.8578 145.812 81.0207C145.733 80.6017 145.638 80.1807 145.526 79.7833C145.424 79.3921 145.226 79.0335 144.98 78.7086C144.476 78.0659 143.747 77.5777 142.938 77.2767Z" fill="#A55337"/>
<path d="M134.118 81.9124C134.118 81.9124 134.512 78.3753 133.854 77.8823C133.197 77.3894 132.129 77.3894 132.129 77.3894C132.129 77.3894 131.225 76.1572 130.075 75.9926C130.075 75.9926 129.254 74.6783 127.036 75.1713C124.818 75.6643 122.6 76.2393 122.271 77.6356C121.943 79.0324 121.039 84.7007 121.368 85.2758C121.696 85.8508 122.764 87.083 123.339 86.0971C123.339 86.0971 123.914 87.4939 125.065 87.1651C126.215 86.8363 126.297 85.029 126.297 85.029C126.297 85.029 128.022 86.7542 129.09 84.5361C130.158 82.318 131.133 81.9278 131.133 81.9278L134.118 81.9124Z" fill="#D99D89"/>
<path d="M130.268 78.3241C129.675 78.6956 129.114 79.0998 128.6 79.5428C128.348 79.7689 128.099 79.9969 127.892 80.2556C127.677 80.5062 127.487 80.7759 127.361 81.0683C127.09 81.6649 126.902 82.3383 126.733 82.9964C126.569 83.6622 126.447 84.3428 126.293 85.0297C126.26 84.3318 126.258 83.6252 126.365 82.9254C126.467 82.2227 126.631 81.5391 126.926 80.8652C127.248 80.1798 127.791 79.6604 128.369 79.2491C128.95 78.8339 129.596 78.5276 130.268 78.3241Z" fill="#B27666"/>
<path d="M127.19 77.2767C126.38 77.5777 125.652 78.0659 125.148 78.7091C124.902 79.034 124.704 79.3926 124.603 79.7838C124.49 80.1812 124.395 80.6022 124.317 81.0212C124.142 81.8583 124 82.707 123.842 83.5537C123.691 84.4018 123.524 85.2495 123.34 86.0977C123.34 84.3606 123.515 82.635 123.847 80.9257C123.937 80.4985 124.032 80.0756 124.171 79.6479C124.314 79.2102 124.552 78.8012 124.863 78.4686C125.48 77.7908 126.333 77.3987 127.19 77.2767Z" fill="#B27666"/>
<path d="M69.6482 81.9123C69.6482 81.9123 69.2546 78.3752 69.9117 77.8822C70.5688 77.3893 71.6368 77.3893 71.6368 77.3893C71.6368 77.3893 72.5407 76.1571 73.6908 75.9925C73.6908 75.9925 74.5121 74.6782 76.7302 75.1712C78.9483 75.6641 81.1664 76.2392 81.4952 77.6355C81.824 79.0323 82.7274 84.7006 82.3991 85.2757C82.0702 85.8507 81.0022 87.0828 80.4272 86.0969C80.4272 86.0969 79.8521 87.4937 78.702 87.1649C77.552 86.8361 77.4699 85.0289 77.4699 85.0289C77.4699 85.0289 75.7447 86.754 74.6767 84.536C73.6087 82.3179 72.6333 81.9277 72.6333 81.9277L69.6482 81.9123Z" fill="#D99D89"/>
<path d="M73.4961 78.3237C74.1676 78.5273 74.8137 78.8335 75.394 79.2487C75.9724 79.66 76.5153 80.1794 76.8379 80.8648C77.1321 81.5388 77.2963 82.2223 77.3985 82.925C77.5051 83.6244 77.5032 84.3314 77.4701 85.0293C77.3169 84.3424 77.195 83.6618 77.0309 82.996C76.8614 82.338 76.6737 81.6645 76.403 81.0679C76.2763 80.7756 76.0867 80.5058 75.8712 80.2552C75.6643 79.9965 75.4156 79.7685 75.1636 79.5424C74.6505 79.0994 74.0894 78.6953 73.4961 78.3237Z" fill="#B27666"/>
<path d="M76.5703 77.2764C77.4276 77.3983 78.2811 77.7905 78.8979 78.4677C79.2089 78.8009 79.4475 79.2093 79.5905 79.6471C79.7287 80.0748 79.8243 80.4976 79.9145 80.9248C80.2457 82.6341 80.4214 84.3597 80.4214 86.0968C80.2375 85.2482 80.07 84.401 79.9193 83.5528C79.7604 82.7061 79.6188 81.8575 79.4446 81.0204C79.3659 80.6013 79.2708 80.1804 79.1585 79.7829C79.0567 79.3917 78.859 79.0332 78.6132 78.7082C78.1087 78.0655 77.3806 77.5773 76.5703 77.2764Z" fill="#B27666"/>
</svg>
