<svg width="36" height="29" viewBox="0 0 36 29" fill="none" xmlns="http://www.w3.org/2000/svg">
<path d="M36 0.0878906C34.596 0.921291 31.779 2.05709 30.123 2.38469C30.0744 2.39729 30.0348 2.41349 29.988 2.42609C28.5246 0.98249 26.5194 0.0878906 24.3 0.0878906C19.827 0.0878906 16.2 3.71489 16.2 8.18789C16.2 8.42369 16.1802 8.85749 16.2 9.08789C10.1646 9.08789 5.571 5.92709 2.277 1.88789C1.9188 2.78789 1.7622 4.20989 1.7622 5.54549C1.7622 8.06729 3.7332 10.5441 6.8022 12.0795C6.237 12.2253 5.6142 12.3297 4.9662 12.3297C3.9204 12.3297 2.8134 12.0543 1.8 11.2191C1.8 11.2497 1.8 11.2785 1.8 11.3109C1.8 14.8353 5.5404 17.2347 8.8668 17.9025C8.1918 18.3003 6.831 18.3399 6.1668 18.3399C5.6988 18.3399 4.0428 18.1257 3.6 18.0429C4.5252 20.9319 7.8624 22.5555 11.043 22.6131C8.5554 24.5643 6.8292 25.2879 1.7352 25.2879H0C3.2184 27.3507 7.317 28.8897 11.4246 28.8897C24.7986 28.8897 32.4 18.6963 32.4 9.08789C32.4 8.93309 32.3964 8.60909 32.391 8.28329C32.391 8.25089 32.4 8.22029 32.4 8.18789C32.4 8.13929 32.3856 8.09249 32.3856 8.04389C32.3802 7.79909 32.3748 7.57049 32.3694 7.45169C33.7914 6.42569 35.0244 5.14589 36 3.68789C34.695 4.26749 33.2946 4.65629 31.824 4.83269C33.3252 3.93269 35.4582 1.78709 36 0.0878906Z" fill="white"/>
</svg>
